{
.appVersion = "3151";
.formatVersion = 3;
customParameters = (
{
name = vendorID;
value = COMM;
},
{
name = panose;
value = (
2,
13,
6,
4,
3,
5,
2,
5,
2,
3
);
},
{
name = unicodeRanges;
value = (
0,
1,
2
);
},
{
name = codePageRanges;
value = (
"1252",
"1250",
"1254",
"1257",
"bit 29"
);
},
{
name = fsType;
value = (
2
);
},
{
name = glyphOrder;
value = (
.notdef,
Eth,
eth,
Lslash,
lslash,
Scaron,
scaron,
Yacute,
yacute,
Thorn,
thorn,
Zcaron,
zcaron,
onehalf,
onequarter,
onesuperior,
threequarters,
threesuperior,
twosuperior,
brokenbar,
minus,
multiply,
space,
exclam,
quotedbl,
numbersign,
dollar,
percent,
ampersand,
quotesingle,
parenleft,
parenright,
asterisk,
plus,
comma,
hyphen,
period,
slash,
zero,
one,
two,
three,
four,
five,
six,
seven,
eight,
nine,
colon,
semicolon,
less,
equal,
greater,
question,
at,
A,
B,
C,
D,
E,
F,
G,
H,
I,
J,
K,
L,
M,
N,
O,
P,
Q,
R,
S,
T,
U,
V,
W,
X,
Y,
Z,
bracketleft,
backslash,
bracketright,
asciicircum,
underscore,
grave,
a,
b,
c,
d,
e,
f,
g,
h,
i,
j,
k,
l,
m,
n,
o,
p,
q,
r,
s,
t,
u,
v,
w,
x,
y,
z,
braceleft,
bar,
braceright,
asciitilde,
Adieresis,
Aring,
Ccedilla,
Eacute,
Ntilde,
Odieresis,
Udieresis,
aacute,
agrave,
acircumflex,
adieresis,
atilde,
aring,
ccedilla,
eacute,
egrave,
ecircumflex,
edieresis,
iacute,
igrave,
icircumflex,
idieresis,
ntilde,
oacute,
ograve,
ocircumflex,
odieresis,
otilde,
uacute,
ugrave,
ucircumflex,
udieresis,
dagger,
degree,
cent,
sterling,
section,
bullet,
paragraph,
germandbls,
registered,
copyright,
trademark,
acute,
dieresis,
notequal,
AE,
Oslash,
infinity,
plusminus,
lessequal,
greaterequal,
yen,
mu,
partialdiff,
summation,
product,
pi,
integral,
ordfeminine,
ordmasculine,
Omega,
ae,
oslash,
questiondown,
exclamdown,
logicalnot,
radical,
florin,
approxequal,
Delta,
guillemotleft,
guillemotright,
ellipsis,
uni00A0,
Agrave,
Atilde,
Otilde,
OE,
oe,
endash,
emdash,
quotedblleft,
quotedblright,
quoteleft,
quoteright,
divide,
lozenge,
ydieresis,
Ydieresis,
fraction,
Euro,
guilsinglleft,
guilsinglright,

glyphs = (
{
glyphname = Eth;
kernRight = Eth;
layers = (
{
hints = (
{
horizontal = 1;
place = (0, 125);
place = (0, 125);
type = Stem;
},
{
horizontal = 1;
place = (304, 117);
place = (304, 117);
type = Stem;
},
{
horizontal = 1;
place = (591, 124);
place = (591, 124);
type = Stem;
},
{
place = (65, 145);
place = (65, 145);
type = Stem;
},
{
place = (511, 147);
place = (511, 147);
type = Stem;
}
);
layerId = m01;
shapes = (
{
closed = 1;
nodes = (
(1,304,l),
(65,304,l),
(65,0,l),
(332,0,ls),
(422,0,o),
(491,25,o),
(544,69,cs),
(619,132,o),
(658,234,o),
(658,350,cs),
(658,561,o),
(535,715,o),
(344,715,cs),
(65,715,l),
(65,421,l),
(1,421,l)
);
},
{
closed = 1;
nodes = (
(210,125,l),
(210,304,l),
(375,304,l),
(375,421,l),
(210,421,l),
(210,591,l),
(326,591,ls),
(449,591,o),
(511,492,o),
(511,350,cs),
(511,208,o),
(458,125,o),
(322,125,cs)
);
}
);
width = 682;
}
);
note = Eth;
unicode = 208;
},
{
glyphname = eth;
layers = (
{
hints = (
{
horizontal = 1;
place = (-15, 104);
place = (-15, 104);
type = Stem;
},
{
horizontal = 1;
place = (422, 97);
place = (422, 97);
type = Stem;
},
{
horizontal = 1;
place = (585, 130);
place = (585, 130);
type = Stem;
},
{
place = (19, 138);
place = (19, 138);
type = Stem;
},
{
place = (417, 133);
place = (417, 133);
type = Stem;
},
{
horizontal = 1;
place = (698, -20);
target = down;
type = TopGhost;
},
{
horizontal = 1;
place = (715, -20);
target = down;
type = TopGhost;
},
{
horizontal = 1;
place = (628, 87);
place = (628, 87);
type = Stem;
}
);
layerId = m01;
shapes = (
{
closed = 1;
nodes = (
(144,592,l),
(165,542,l),
(303,585,l),
(337,548,o),
(365,508,o),
(385,463,c),
(383,463,l),
(352,498,o),
(308,519,o),
(257,519,cs),
(112,519,o),
(19,409,o),
(19,256,cs),
(19,103,o),
(128,-15,o),
(287,-15,cs),
(470,-15,o),
(550,121,o),
(550,272,cs),
(550,425,o),
(495,540,o),
(423,622,c),
(507,648,l),
(485,698,l),
(379,665,l),
(358,684,o),
(336,700,o),
(314,715,c),
(150,715,l),
(188,688,o),
(226,660,o),
(260,628,c)
);
},
{
closed = 1;
nodes = (
(203,89,o),
(157,156,o),
(157,256,cs),
(157,356,o),
(203,422,o),
(287,422,cs),
(370,422,o),
(417,356,o),
(417,256,cs),
(417,156,o),
(370,89,o),
(287,89,cs)
);
}
);
width = 571;
}
);
note = eth;
unicode = 240;
},
{
glyphname = Lslash;
layers = (
{
hints = (
{
horizontal = 1;
place = (0, 121);
place = (0, 121);
type = Stem;
},
{
horizontal = 1;
place = (715, -20);
target = down;
type = TopGhost;
},
{
place = (60, 145);
place = (60, 145);
type = Stem;
}
);
layerId = m01;
shapes = (
{
closed = 1;
nodes = (
(-4,191,l),
(60,223,l),
(60,0,l),
(541,0,l),
(541,121,l),
(205,121,l),
(205,297,l),
(405,400,l),
(405,497,l),
(205,394,l),
(205,715,l),
(60,715,l),
(60,320,l),
(-4,288,l)
);
}
);
width = 564;
}
);
note = Lslash;
unicode = 321;
},
{
glyphname = lslash;
layers = (
{
hints = (
{
horizontal = 1;
place = (0, 21);
target = up;
type = BottomGhost;
},
{
horizontal = 1;
place = (715, -20);
target = down;
type = TopGhost;
},
{
place = (61, 136);
place = (61, 136);
type = Stem;
}
);
layerId = m01;
shapes = (
{
closed = 1;
nodes = (
(3,213,l),
(61,257,l),
(61,0,l),
(197,0,l),
(197,360,l),
(263,411,l),
(263,508,l),
(197,457,l),
(197,715,l),
(61,715,l),
(61,354,l),
(3,310,l)
);
}
);
width = 260;
}
);
note = lslash;
unicode = 322;
},
{
glyphname = Scaron;
kernLeft = Scaron;
kernRight = Scaron;
layers = (
{
hints = (
{
horizontal = 1;
place = (-16, 117);
place = (-16, 117);
type = Stem;
},
{
horizontal = 1;
place = (613, 115);
place = (613, 115);
type = Stem;
},
{
place = (43, 144);
place = (43, 144);
type = Stem;
},
{
place = (465, 145);
place = (465, 145);
type = Stem;
},
{
horizontal = 1;
place = (753, 114);
place = (753, 114);
type = Stem;
}
);
layerId = m01;
shapes = (
{
closed = 1;
nodes = (
(493,-16,o),
(610,65,o),
(610,210,cs),
(610,364,o),
(490,399,o),
(343,431,cs),
(237,454,o),
(187,471,o),
(187,529,cs),
(187,580,o),
(238,613,o),
(316,613,cs),
(390,613,o),
(446,577,o),
(454,505,c),
(593,505,l),
(582,649,o),
(478,728,o),
(317,728,cs),
(158,728,o),
(43,655,o),
(43,514,cs),
(43,365,o),
(160,331,o),
(288,302,cs),
(397,277,o),
(465,263,o),
(465,193,cs),
(465,127,o),
(400,101,o),
(326,101,cs),
(224,101,o),
(175,135,o),
(165,221,c),
(23,221,l),
(28,70,o),
(138,-16,o),
(332,-16,cs)
);
},
{
closed = 1;
nodes = (
(488,867,l),
(369,867,l),
(320,810,l),
(318,810,l),
(270,867,l),
(152,867,l),
(248,753,l),
(394,753,l)
);
}
);
width = 642;
}
);
note = Scaron;
unicode = 352;
},
{
glyphname = scaron;
kernLeft = scaron;
kernRight = scaron;
layers = (
{
hints = (
{
horizontal = 1;
place = (-15, 96);
place = (-15, 96);
type = Stem;
},
{
horizontal = 1;
place = (432, 95);
place = (432, 95);
type = Stem;
},
{
horizontal = 1;
place = (576, 126);
place = (576, 126);
type = Stem;
},
{
place = (27, 119);
place = (27, 119);
type = Stem;
},
{
place = (344, 124);
place = (344, 124);
type = Stem;
}
);
layerId = m01;
shapes = (
{
closed = 1;
nodes = (
(380,-15,o),
(468,47,o),
(468,150,cs),
(468,270,o),
(373,294,o),
(287,312,cs),
(214,327,o),
(146,331,o),
(146,375,cs),
(146,412,o),
(181,432,o),
(234,432,cs),
(292,432,o),
(327,412,o),
(333,357,c),
(456,357,l),
(446,460,o),
(371,527,o),
(236,527,cs),
(119,527,o),
(27,474,o),
(27,363,cs),
(27,251,o),
(117,226,o),
(209,208,cs),
(279,194,o),
(344,189,o),
(344,140,cs),
(344,104,o),
(310,81,o),
(250,81,cs),
(189,81,o),
(147,107,o),
(138,166,c),
(12,166,l),
(20,57,o),
(103,-15,o),
(252,-15,cs)
);
},
{
closed = 1;
nodes = (
(171,576,l),
(317,576,l),
(411,702,l),
(292,702,l),
(243,633,l),
(241,633,l),
(193,702,l),
(75,702,l)
);
}
);
width = 485;
}
);
note = scaron;
unicode = 353;
},
{
glyphname = Yacute;
kernLeft = Yacute;
kernRight = Yacute;
layers = (
{
hints = (
{
horizontal = 1;
place = (0, 21);
target = up;
type = BottomGhost;
},
{
horizontal = 1;
place = (715, -20);
target = down;
type = TopGhost;
},
{
horizontal = 1;
place = (753, 125);
place = (753, 125);
type = Stem;
},
{
place = (242, 145);
place = (242, 145);
type = Stem;
}
);
layerId = m01;
shapes = (
{
closed = 1;
nodes = (
(242,0,l),
(387,0,l),
(387,276,l),
(625,715,l),
(473,715,l),
(367,503,ls),
(346,460,o),
(319,401,o),
(319,401,c),
(317,401,l),
(317,401,o),
(292,460,o),
(270,503,cs),
(162,715,l),
(4,715,l),
(242,276,l)
);
},
{
closed = 1;
nodes = (
(461,878,l),
(302,878,l),
(260,753,l),
(366,753,l)
);
}
);
width = 629;
}
);
note = Yacute;
unicode = 221;
},
{
glyphname = yacute;
kernLeft = yacute;
kernRight = yacute;
layers = (
{
hints = (
{
horizontal = 1;
place = (-168, 107);
place = (-168, 107);
type = Stem;
},
{
horizontal = 1;
place = (513, -20);
target = down;
type = TopGhost;
},
{
horizontal = 1;
place = (577, 141);
place = (577, 141);
type = Stem;
},
{
place = (2, 493);
place = (2, 493);
type = Stem;
}
);
layerId = m01;
shapes = (
{
closed = 1;
nodes = (
(55,-168,l),
(135,-168,ls),
(239,-168,o),
(277,-127,o),
(316,-13,cs),
(495,513,l),
(358,513,l),
(286,282,ls),
(270,235,o),
(256,170,o),
(256,170,c),
(254,170,l),
(254,170,o),
(237,235,o),
(221,282,cs),
(145,513,l),
(2,513,l),
(140,148,ls),
(169,70,o),
(179,37,o),
(179,9,cs),
(179,-33,o),
(157,-61,o),
(103,-61,cs),
(55,-61,l)
);
},
{
closed = 1;
nodes = (
(408,718,l),
(249,718,l),
(194,577,l),
(300,577,l)
);
}
);
width = 497;
}
);
note = yacute;
unicode = 253;
},
{
glyphname = Thorn;
layers = (
{
hints = (
{
horizontal = 1;
place = (0, 21);
target = up;
type = BottomGhost;
},
{
horizontal = 1;
place = (150, 118);
place = (150, 118);
type = Stem;
},
{
horizontal = 1;
place = (480, 126);
place = (480, 126);
type = Stem;
},
{
horizontal = 1;
place = (715, -20);
target = down;
type = TopGhost;
},
{
place = (55, 150);
place = (55, 150);
type = Stem;
},
{
place = (471, 149);
place = (471, 149);
type = Stem;
}
);
layerId = m01;
shapes = (
{
closed = 1;
nodes = (
(55,0,l),
(205,0,l),
(205,150,l),
(381,150,ls),
(531,150,o),
(620,241,o),
(620,376,cs),
(620,442,o),
(596,498,o),
(556,539,cs),
(514,582,o),
(452,605,o),
(369,606,cs),
(205,606,l),
(205,715,l),
(55,715,l)
);
},
{
closed = 1;
nodes = (
(357,480,ls),
(429,480,o),
(471,442,o),
(471,375,cs),
(471,310,o),
(431,268,o),
(355,268,cs),
(205,268,l),
(205,480,l)
);
}
);
width = 633;
}
);
note = Thorn;
unicode = 222;
},
{
glyphname = thorn;
kernRight = thorn;
layers = (
{
hints = (
{
horizontal = 1;
place = (-168, 21);
target = up;
type = BottomGhost;
},
{
horizontal = 1;
place = (-15, 113);
place = (-15, 113);
type = Stem;
},
{
horizontal = 1;
place = (417, 110);
place = (417, 110);
type = Stem;
},
{
horizontal = 1;
place = (716, -20);
target = down;
type = TopGhost;
},
{
place = (44, 136);
place = (44, 136);
type = Stem;
},
{
place = (414, 138);
place = (414, 138);
type = Stem;
}
);
layerId = m01;
shapes = (
{
closed = 1;
nodes = (
(462,-15,o),
(552,90,o),
(552,256,cs),
(552,416,o),
(465,527,o),
(329,527,cs),
(259,527,o),
(211,494,o),
(183,451,c),
(180,451,l),
(180,716,l),
(44,716,l),
(44,-168,l),
(180,-168,l),
(180,58,l),
(182,58,l),
(211,11,o),
(258,-15,o),
(330,-15,cs)
);
},
{
closed = 1;
nodes = (
(220,98,o),
(177,159,o),
(177,252,cs),
(177,344,o),
(211,417,o),
(296,417,cs),
(380,417,o),
(414,349,o),
(414,252,cs),
(414,155,o),
(370,98,o),
(301,98,cs)
);
}
);
width = 571;
}
);
note = thorn;
unicode = 254;
},
{
glyphname = Zcaron;
kernLeft = Zcaron;
kernRight = Zcaron;
layers = (
{
hints = (
{
horizontal = 1;
place = (0, 123);
place = (0, 123);
type = Stem;
},
{
horizontal = 1;
place = (594, 121);
place = (594, 121);
type = Stem;
},
{
horizontal = 1;
place = (753, 114);
place = (753, 114);
type = Stem;
},
{
place = (27, 569);
place = (27, 569);
type = Stem;
},
{
place = (417, 172);
place = (417, 172);
type = Stem;
}
);
layerId = m01;
shapes = (
{
closed = 1;
nodes = (
(27,0,l),
(596,0,l),
(596,123,l),
(212,123,l),
(212,126,l),
(589,594,l),
(589,715,l),
(52,715,l),
(52,594,l),
(417,594,l),
(417,591,l),
(27,109,l)
);
},
{
closed = 1;
nodes = (
(483,867,l),
(364,867,l),
(315,810,l),
(313,810,l),
(265,867,l),
(147,867,l),
(243,753,l),
(389,753,l)
);
}
);
width = 626;
}
);
note = Zcaron;
unicode = 381;
},
{
glyphname = zcaron;
kernLeft = zcaron;
kernRight = zcaron;
layers = (
{
hints = (
{
horizontal = 1;
place = (0, 109);
place = (0, 109);
type = Stem;
},
{
horizontal = 1;
place = (406, 107);
place = (406, 107);
type = Stem;
},
{
horizontal = 1;
place = (576, 126);
place = (576, 126);
type = Stem;
},
{
place = (27, 164);
place = (27, 164);
type = Stem;
},
{
place = (291, 158);
place = (291, 158);
type = Stem;
}
);
layerId = m01;
shapes = (
{
closed = 1;
nodes = (
(27,0,l),
(462,0,l),
(462,109,l),
(191,109,l),
(191,112,l),
(449,404,l),
(449,513,l),
(57,513,l),
(57,406,l),
(291,406,l),
(291,403,l),
(27,104,l)
);
},
{
closed = 1;
nodes = (
(191,576,l),
(337,576,l),
(431,702,l),
(312,702,l),
(263,633,l),
(261,633,l),
(213,702,l),
(95,702,l)
);
}
);
width = 485;
}
);
note = zcaron;
unicode = 382;
},
{
glyphname = onehalf;
layers = (
{
hints = (
{
horizontal = 1;
place = (0, 82);
place = (0, 82);
type = Stem;
},
{
horizontal = 1;
place = (323, 82);
place = (323, 82);
type = Stem;
},
{
horizontal = 1;
place = (567, 151);
place = (567, 151);
type = Stem;
},
{
place = (116, 104);
place = (116, 104);
type = Stem;
},
{
horizontal = 1;
place = (567, 71);
place = (567, 71);
type = Stem;
},
{
horizontal = 1;
place = (715, -20);
target = down;
type = TopGhost;
},
{
place = (484, 97);
place = (484, 97);
type = Stem;
},
{
place = (691, 103);
place = (691, 103);
type = Stem;
}
);
layerId = m01;
shapes = (
{
closed = 1;
nodes = (
(116,318,l),
(220,318,l),
(220,718,l),
(135,718,l),
(125,665,o),
(82,640,o),
(25,638,c),
(25,567,l),
(116,567,l)
);
},
{
closed = 1;
nodes = (
(88,0,l),
(177,0,l),
(674,715,l),
(584,715,l)
);
},
{
closed = 1;
nodes = (
(796,0,l),
(796,82,l),
(617,82,l),
(637,108,o),
(684,128,o),
(722,156,cs),
(762,185,o),
(794,218,o),
(794,278,cs),
(794,347,o),
(741,405,o),
(645,405,cs),
(546,405,o),
(484,349,o),
(484,250,c),
(581,250,l),
(581,297,o),
(605,323,o),
(642,323,cs),
(675,323,o),
(691,303,o),
(691,274,cs),
(691,226,o),
(642,209,o),
(574,162,cs),
(522,126,o),
(479,79,o),
(478,0,c)
);
}
);
width = 827;
}
);
note = onehalf;
unicode = 189;
},
{
glyphname = onequarter;
layers = (
{
hints = (
{
horizontal = 1;
place = (0, 160);
place = (0, 160);
type = Stem;
},
{
horizontal = 1;
place = (567, 151);
place = (567, 151);
type = Stem;
},
{
place = (116, 104);
place = (116, 104);
type = Stem;
},
{
place = (634, 102);
place = (634, 102);
type = Stem;
},
{
horizontal = 1;
place = (567, 71);
place = (567, 71);
type = Stem;
},
{
horizontal = 1;
place = (715, -20);
target = down;
type = TopGhost;
},
{
horizontal = 1;
place = (84, 76);
place = (84, 76);
type = Stem;
},
{
place = (445, 79);
place = (445, 79);
type = Stem;
}
);
layerId = m01;
shapes = (
{
closed = 1;
nodes = (
(116,318,l),
(220,318,l),
(220,718,l),
(135,718,l),
(125,665,o),
(82,640,o),
(25,638,c),
(25,567,l),
(116,567,l)
);
},
{
closed = 1;
nodes = (
(105,0,l),
(194,0,l),
(691,715,l),
(601,715,l)
);
},
{
closed = 1;
nodes = (
(634,0,l),
(736,0,l),
(736,84,l),
(795,84,l),
(795,160,l),
(736,160,l),
(736,402,l),
(633,402,l),
(445,175,l),
(445,84,l),
(634,84,l)
);
},
{
closed = 1;
nodes = (
(524,161,l),
(633,293,l),
(634,293,l),
(634,160,l),
(524,160,l)
);
}
);
width = 821;
}
);
note = onequarter;
unicode = 188;
},
{
glyphname = onesuperior;
layers = (
{
hints = (
{
horizontal = 1;
place = (537, 151);
place = (537, 151);
type = Stem;
},
{
place = (117, 104);
place = (117, 104);
type = Stem;
},
{
horizontal = 1;
place = (537, 71);
place = (537, 71);
type = Stem;
}
);
layerId = m01;
shapes = (
{
closed = 1;
nodes = (
(117,288,l),
(221,288,l),
(221,688,l),
(136,688,l),
(126,635,o),
(83,610,o),
(26,608,c),
(26,537,l),
(117,537,l)
);
}
);
width = 263;
}
);
note = onesuperior;
unicode = 185;
},
{
glyphname = threequarters;
layers = (
{
hints = (
{
horizontal = 1;
place = (0, 160);
place = (0, 160);
type = Stem;
},
{
horizontal = 1;
place = (309, 76);
place = (309, 76);
type = Stem;
},
{
horizontal = 1;
place = (488, 72);
place = (488, 72);
type = Stem;
},
{
horizontal = 1;
place = (648, 75);
place = (648, 75);
type = Stem;
},
{
place = (22, 103);
place = (22, 103);
type = Stem;
},
{
place = (246, 109);
place = (246, 109);
type = Stem;
},
{
place = (677, 102);
place = (677, 102);
type = Stem;
},
{
place = (159, 122);
place = (159, 122);
type = Stem;
},
{
place = (34, 100);
place = (34, 100);
type = Stem;
},
{
place = (237, 105);
place = (237, 105);
type = Stem;
},
{
horizontal = 1;
place = (715, -20);
target = down;
type = TopGhost;
},
{
horizontal = 1;
place = (84, 76);
place = (84, 76);
type = Stem;
},
{
place = (488, 79);
place = (488, 79);
type = Stem;
}
);
layerId = m01;
shapes = (
{
closed = 1;
nodes = (
(280,309,o),
(355,348,o),
(355,433,cs),
(355,486,o),
(324,517,o),
(281,531,c),
(281,533,l),
(316,547,o),
(342,571,o),
(342,611,cs),
(342,681,o),
(281,723,o),
(193,723,cs),
(93,723,o),
(37,667,o),
(34,591,c),
(134,591,l),
(136,623,o),
(150,648,o),
(190,648,cs),
(222,648,o),
(237,631,o),
(237,605,cs),
(237,576,o),
(217,560,o),
(180,560,cs),
(159,560,l),
(159,488,l),
(183,488,ls),
(225,488,o),
(246,471,o),
(246,437,cs),
(246,407,o),
(228,385,o),
(189,385,cs),
(142,385,o),
(126,413,o),
(125,453,c),
(22,453,l),
(23,367,o),
(75,309,o),
(191,309,cs)
);
},
{
closed = 1;
nodes = (
(169,0,l),
(258,0,l),
(755,715,l),
(665,715,l)
);
},
{
closed = 1;
nodes = (
(677,0,l),
(779,0,l),
(779,84,l),
(838,84,l),
(838,160,l),
(779,160,l),
(779,402,l),
(676,402,l),
(488,175,l),
(488,84,l),
(677,84,l)
);
},
{
closed = 1;
nodes = (
(567,161,l),
(676,293,l),
(677,293,l),
(677,160,l),
(567,160,l)
);
}
);
width = 864;
}
);
note = threequarters;
unicode = 190;
},
{
glyphname = threesuperior;
layers = (
{
hints = (
{
horizontal = 1;
place = (279, 76);
place = (279, 76);
type = Stem;
},
{
horizontal = 1;
place = (458, 72);
place = (458, 72);
type = Stem;
},
{
horizontal = 1;
place = (618, 75);
place = (618, 75);
type = Stem;
},
{
place = (22, 103);
place = (22, 103);
type = Stem;
},
{
place = (246, 109);
place = (246, 109);
type = Stem;
},
{
place = (34, 100);
place = (34, 100);
type = Stem;
},
{
place = (237, 105);
place = (237, 105);
type = Stem;
}
);
layerId = m01;
shapes = (
{
closed = 1;
nodes = (
(283,279,o),
(355,318,o),
(355,403,cs),
(355,456,o),
(324,487,o),
(281,501,c),
(281,502,l),
(316,516,o),
(342,541,o),
(342,581,cs),
(342,651,o),
(281,693,o),
(193,693,cs),
(93,693,o),
(37,637,o),
(34,561,c),
(134,561,l),
(136,593,o),
(150,618,o),
(190,618,cs),
(222,618,o),
(237,601,o),
(237,575,cs),
(237,546,o),
(217,530,o),
(180,530,cs),
(159,530,l),
(159,458,l),
(183,458,ls),
(225,458,o),
(246,441,o),
(246,409,cs),
(246,377,o),
(228,355,o),
(189,355,cs),
(141,355,o),
(126,383,o),
(125,423,c),
(22,423,l),
(23,337,o),
(81,279,o),
(194,279,cs)
);
}
);
width = 378;
}
);
note = threesuperior;
unicode = 179;
},
{
glyphname = twosuperior;
layers = (
{
hints = (
{
horizontal = 1;
place = (288, 82);
place = (288, 82);
type = Stem;
},
{
horizontal = 1;
place = (611, 82);
place = (611, 82);
type = Stem;
},
{
place = (32, 97);
place = (32, 97);
type = Stem;
},
{
place = (239, 103);
place = (239, 103);
type = Stem;
}
);
layerId = m01;
shapes = (
{
closed = 1;
nodes = (
(344,288,l),
(344,370,l),
(168,370,l),
(188,396,o),
(235,416,o),
(273,444,cs),
(313,473,o),
(342,506,o),
(342,566,cs),
(342,635,o),
(289,693,o),
(193,693,cs),
(94,693,o),
(32,637,o),
(32,538,c),
(129,538,l),
(129,585,o),
(153,611,o),
(190,611,cs),
(223,611,o),
(239,591,o),
(239,562,cs),
(239,514,o),
(190,497,o),
(122,450,cs),
(70,414,o),
(27,367,o),
(26,288,c)
);
}
);
width = 377;
}
);
note = twosuperior;
unicode = 178;
},
{
glyphname = brokenbar;
layers = (
{
hints = (
{
horizontal = 1;
place = (-131, 885);
place = (-131, 885);
type = Stem;
},
{
place = (64, 83);
place = (64, 83);
type = Stem;
}
);
layerId = m01;
shapes = (
{
closed = 1;
nodes = (
(64,-131,l),
(147,-131,l),
(147,261,l),
(64,261,l)
);
},
{
closed = 1;
nodes = (
(64,375,l),
(147,375,l),
(147,754,l),
(64,754,l)
);
}
);
width = 210;
}
);
note = brokenbar;
unicode = 166;
},
{
glyphname = minus;
kernLeft = minus;
kernRight = minus;
layers = (
{
hints = (
{
horizontal = 1;
place = (278, 100);
place = (278, 100);
type = Stem;
},
{
place = (35, 499);
place = (35, 499);
type = Stem;
}
);
layerId = m01;
shapes = (
{
closed = 1;
nodes = (
(35,278,l),
(534,278,l),
(534,378,l),
(35,378,l)
);
}
);
width = 569;
}
);
note = minus;
unicode = 8722;
},
{
glyphname = multiply;
layers = (
{
hints = (
{
horizontal = 1;
place = (85, 474);
place = (85, 474);
type = Stem;
},
{
place = (51, 466);
place = (51, 466);
type = Stem;
}
);
layerId = m01;
shapes = (
{
closed = 1;
nodes = (
(121,85,l),
(284,253,l),
(447,85,l),
(517,151,l),
(351,322,l),
(517,493,l),
(447,559,l),
(284,391,l),
(121,559,l),
(51,493,l),
(217,322,l),
(51,151,l)
);
}
);
width = 568;
}
);
note = multiply;
unicode = 215;
},
{
glyphname = exclam;
layers = (
{
hints = (
{
horizontal = 1;
place = (0, 145);
place = (0, 145);
type = Stem;
},
{
horizontal = 1;
place = (715, -20);
target = down;
type = TopGhost;
},
{
place = (54, 146);
place = (54, 146);
type = Stem;
}
);
layerId = m01;
shapes = (
{
closed = 1;
nodes = (
(94,209,l),
(160,209,l),
(198,557,l),
(198,715,l),
(56,715,l),
(56,557,l)
);
},
{
closed = 1;
nodes = (
(54,0,l),
(200,0,l),
(200,145,l),
(54,145,l)
);
}
);
width = 254;
}
);
note = exclam;
unicode = 33;
},
{
glyphname = quotedbl;
kernLeft = quotedbl;
kernRight = quotedbl;
layers = (
{
hints = (
{
horizontal = 1;
place = (464, 251);
place = (464, 251);
type = Stem;
},
{
place = (41, 119);
place = (41, 119);
type = Stem;
},
{
place = (222, 119);
place = (222, 119);
type = Stem;
}
);
layerId = m01;
shapes = (
{
closed = 1;
nodes = (
(222,464,l),
(341,464,l),
(341,715,l),
(222,715,l)
);
},
{
closed = 1;
nodes = (
(41,464,l),
(160,464,l),
(160,715,l),
(41,715,l)
);
}
);
width = 382;
}
);
note = quotedbl;
unicode = 34;
},
{
glyphname = numbersign;
layers = (
{
hints = (
{
horizontal = 1;
place = (0, 21);
target = up;
type = BottomGhost;
},
{
horizontal = 1;
place = (183, 106);
place = (183, 106);
type = Stem;
},
{
horizontal = 1;
place = (407, 106);
place = (407, 106);
type = Stem;
},
{
horizontal = 1;
place = (686, -20);
target = down;
type = TopGhost;
},
{
place = (26, 540);
place = (26, 540);
type = Stem;
}
);
layerId = m01;
shapes = (
{
closed = 1;
nodes = (
(61,407,l),
(158,407,l),
(140,289,l),
(44,289,l),
(26,183,l),
(123,183,l),
(95,0,l),
(188,0,l),
(216,183,l),
(324,183,l),
(296,0,l),
(389,0,l),
(417,183,l),
(513,183,l),
(530,289,l),
(434,289,l),
(452,407,l),
(549,407,l),
(566,513,l),
(469,513,l),
(496,686,l),
(403,686,l),
(376,513,l),
(268,513,l),
(295,686,l),
(202,686,l),
(175,513,l),
(79,513,l)
);
},
{
closed = 1;
nodes = (
(251,407,l),
(359,407,l),
(341,289,l),
(233,289,l)
);
}
);
width = 593;
}
);
note = numbersign;
unicode = 35;
},
{
glyphname = dollar;
layers = (
{
hints = (
{
horizontal = 1;
place = (-12, 21);
target = up;
type = BottomGhost;
},
{
horizontal = 1;
place = (700, -20);
target = down;
type = TopGhost;
},
{
place = (41, 139);
place = (41, 139);
type = Stem;
},
{
place = (281, 60);
place = (281, 60);
type = Stem;
},
{
place = (446, 140);
place = (446, 140);
type = Stem;
},
{
horizontal = 1;
place = (-11, 21);
target = up;
type = BottomGhost;
},
{
horizontal = 1;
place = (699, -20);
target = down;
type = TopGhost;
},
{
place = (436, 133);
place = (436, 133);
type = Stem;
},
{
horizontal = 1;
place = (-12, 112);
place = (-12, 112);
type = Stem;
},
{
horizontal = 1;
place = (589, 111);
place = (589, 111);
type = Stem;
}
);
layerId = m01;
shapes = (
{
closed = 1;
nodes = (
(281,-97,l),
(341,-97,l),
(341,-12,l),
(483,-5,o),
(586,70,o),
(586,204,cs),
(586,346,o),
(476,386,o),
(347,412,c),
(345,412,o),
(343,412,o),
(341,413,c),
(341,586,l),
(392,576,o),
(429,543,o),
(436,487,c),
(569,487,l),
(560,613,o),
(475,687,o),
(341,699,c),
(341,759,l),
(281,759,l),
(281,700,l),
(141,693,o),
(41,624,o),
(41,495,cs),
(41,352,o),
(154,319,o),
(276,291,c),
(277,290,o),
(279,290,o),
(281,290,c),
(281,100,l),
(204,108,o),
(167,144,o),
(158,214,c),
(22,214,l),
(26,79,o),
(118,-1,o),
(281,-11,c)
);
},
{
closed = 1;
nodes = (
(446,132,o),
(399,106,o),
(341,100,c),
(341,275,l),
(407,258,o),
(446,238,o),
(446,187,cs)
);
},
{
closed = 1;
nodes = (
(180,554,o),
(218,583,o),
(281,589,c),
(281,426,l),
(212,444,o),
(180,464,o),
(180,510,cs)
);
}
);
width = 614;
}
);
note = dollar;
unicode = 36;
},
{
glyphname = percent;
kernLeft = percent;
layers = (
{
hints = (
{
horizontal = 1;
place = (-16, 77);
place = (-16, 77);
type = Stem;
},
{
horizontal = 1;
place = (301, 77);
place = (301, 77);
type = Stem;
},
{
horizontal = 1;
place = (624, 76);
place = (624, 76);
type = Stem;
},
{
place = (19, 107);
place = (19, 107);
type = Stem;
},
{
place = (264, 106);
place = (264, 106);
type = Stem;
},
{
place = (467, 107);
place = (467, 107);
type = Stem;
},
{
place = (712, 106);
place = (712, 106);
type = Stem;
},
{
horizontal = 1;
place = (307, 76);
place = (307, 76);
type = Stem;
},
{
horizontal = 1;
place = (0, 21);
target = up;
type = BottomGhost;
},
{
horizontal = 1;
place = (686, -20);
target = down;
type = TopGhost;
}
);
layerId = m01;
shapes = (
{
closed = 1;
nodes = (
(298,301,o),
(370,379,o),
(370,500,cs),
(370,623,o),
(298,700,o),
(195,700,cs),
(94,700,o),
(19,622,o),
(19,500,cs),
(19,379,o),
(93,301,o),
(195,301,cs)
);
},
{
closed = 1;
nodes = (
(746,-16,o),
(818,62,o),
(818,183,cs),
(818,306,o),
(746,383,o),
(643,383,cs),
(542,383,o),
(467,305,o),
(467,183,cs),
(467,62,o),
(541,-16,o),
(643,-16,cs)
);
},
{
closed = 1;
nodes = (
(201,0,l),
(286,0,l),
(637,686,l),
(552,686,l)
);
},
{
closed = 1;
nodes = (
(596,61,o),
(574,112,o),
(574,183,cs),
(574,256,o),
(596,307,o),
(643,307,cs),
(689,307,o),
(712,255,o),
(712,183,cs),
(712,111,o),
(690,61,o),
(643,61,cs)
);
},
{
closed = 1;
nodes = (
(148,378,o),
(126,429,o),
(126,500,cs),
(126,573,o),
(148,624,o),
(195,624,cs),
(241,624,o),
(264,572,o),
(264,500,cs),
(264,428,o),
(242,378,o),
(195,378,cs)
);
}
);
width = 837;
}
);
note = percent;
unicode = 37;
},
{
glyphname = ampersand;
kernLeft = ampersand;
kernRight = ampersand;
layers = (
{
hints = (
{
horizontal = 1;
place = (-15, 112);
place = (-15, 112);
type = Stem;
},
{
horizontal = 1;
place = (601, 109);
place = (601, 109);
type = Stem;
},
{
place = (19, 144);
place = (19, 144);
type = Stem;
},
{
place = (360, 129);
place = (360, 129);
type = Stem;
},
{
horizontal = 1;
place = (0, 21);
target = up;
type = BottomGhost;
},
{
place = (484, 121);
place = (484, 121);
type = Stem;
},
{
horizontal = 1;
place = (0, 146);
place = (0, 146);
type = Stem;
},
{
place = (117, 131);
place = (117, 131);
type = Stem;
}
);
layerId = m01;
shapes = (
{
closed = 1;
nodes = (
(329,-15,o),
(394,8,o),
(447,47,c),
(484,0,l),
(650,0,l),
(537,146,l),
(576,210,o),
(599,287,o),
(605,367,c),
(484,367,l),
(480,328,o),
(470,287,o),
(456,251,c),
(361,374,l),
(438,414,o),
(489,458,o),
(489,546,cs),
(489,644,o),
(410,710,o),
(302,710,cs),
(191,710,o),
(117,638,o),
(117,545,cs),
(117,487,o),
(136,447,o),
(177,397,c),
(84,350,o),
(19,286,o),
(19,184,cs),
(19,72,o),
(100,-15,o),
(257,-15,cs)
);
},
{
closed = 1;
nodes = (
(206,97,o),
(163,134,o),
(163,188,cs),
(163,233,o),
(184,273,o),
(245,310,c),
(376,139,l),
(344,112,o),
(305,97,o),
(262,97,cs)
);
},
{
closed = 1;
nodes = (
(248,577,o),
(272,601,o),
(304,601,cs),
(334,601,o),
(360,579,o),
(360,544,cs),
(360,510,o),
(347,479,o),
(300,451,c),
(270,480,o),
(248,511,o),
(248,543,cs)
);
}
);
width = 656;
}
);
note = ampersand;
unicode = 38;
},
{
glyphname = quotesingle;
kernLeft = quotedbl;
kernRight = quotedbl;
layers = (
{
hints = (
{
horizontal = 1;
place = (464, 251);
place = (464, 251);
type = Stem;
},
{
place = (41, 119);
place = (41, 119);
type = Stem;
}
);
layerId = m01;
shapes = (
{
closed = 1;
nodes = (
(41,464,l),
(160,464,l),
(160,715,l),
(41,715,l)
);
}
);
width = 201;
}
);
note = quotesingle;
unicode = 39;
},
{
glyphname = parenleft;
kernRight = parenleft;
layers = (
{
hints = (
{
horizontal = 1;
place = (-131, 885);
place = (-131, 885);
type = Stem;
},
{
place = (67, 142);
place = (67, 142);
type = Stem;
}
);
layerId = m01;
shapes = (
{
closed = 1;
nodes = (
(333,-131,l),
(264,-12,o),
(209,128,o),
(209,308,cs),
(209,501,o),
(261,639,o),
(334,754,c),
(218,754,l),
(139,649,o),
(67,497,o),
(67,308,cs),
(67,125,o),
(138,-20,o),
(219,-131,c)
);
}
);
width = 346;
}
);
note = parenleft;
unicode = 40;
},
{
glyphname = parenright;
kernLeft = parenright;
layers = (
{
hints = (
{
horizontal = 1;
place = (-131, 885);
place = (-131, 885);
type = Stem;
},
{
place = (137, 142);
place = (137, 142);
type = Stem;
}
);
layerId = m01;
shapes = (
{
closed = 1;
nodes = (
(127,-131,l),
(208,-20,o),
(279,125,o),
(279,308,cs),
(279,497,o),
(207,649,o),
(128,754,c),
(12,754,l),
(85,639,o),
(137,501,o),
(137,308,cs),
(137,128,o),
(82,-12,o),
(13,-131,c)
);
}
);
width = 346;
}
);
note = parenright;
unicode = 41;
},
{
glyphname = asterisk;
kernLeft = asterisk;
kernRight = asterisk;
layers = (
{
hints = (
{
horizontal = 1;
place = (528, -20);
target = down;
type = TopGhost;
},
{
horizontal = 1;
place = (715, -20);
target = down;
type = TopGhost;
},
{
place = (163, 77);
place = (163, 77);
type = Stem;
}
);
layerId = m01;
shapes = (
{
closed = 1;
nodes = (
(134,391,l),
(202,488,l),
(270,391,l),
(331,436,l),
(264,528,l),
(370,563,l),
(343,632,l),
(240,597,l),
(240,715,l),
(163,715,l),
(163,597,l),
(59,632,l),
(32,563,l),
(140,528,l),
(72,436,l)
);
}
);
width = 402;
}
);
note = asterisk;
unicode = 42;
},
{
glyphname = plus;
kernLeft = minus;
kernRight = minus;
layers = (
{
hints = (
{
horizontal = 1;
place = (278, 100);
place = (278, 100);
type = Stem;
},
{
place = (232, 104);
place = (232, 104);
type = Stem;
}
);
layerId = m01;
shapes = (
{
closed = 1;
nodes = (
(35,278,l),
(232,278,l),
(232,75,l),
(336,75,l),
(336,278,l),
(534,278,l),
(534,378,l),
(336,378,l),
(336,581,l),
(232,581,l),
(232,378,l),
(35,378,l)
);
}
);
width = 569;
}
);
note = plus;
unicode = 43;
},
{
glyphname = comma;
kernLeft = comma;
kernRight = comma;
layers = (
{
hints = (
{
horizontal = 1;
place = (0, 145);
place = (0, 145);
type = Stem;
},
{
place = (36, 146);
place = (36, 146);
type = Stem;
}
);
layerId = m01;
shapes = (
{
closed = 1;
nodes = (
(37,-166,l),
(114,-152,o),
(182,-94,o),
(182,8,cs),
(182,145,l),
(36,145,l),
(36,0,l),
(109,0,l),
(109,-62,o),
(76,-97,o),
(37,-117,c)
);
}
);
width = 218;
}
);
note = comma;
unicode = 44;
},
{
glyphname = hyphen;
kernLeft = hyphen;
kernRight = hyphen;
layers = (
{
hints = (
{
horizontal = 1;
place = (189, 117);
place = (189, 117);
type = Stem;
},
{
place = (34, 271);
place = (34, 271);
type = Stem;
}
);
layerId = m01;
shapes = (
{
closed = 1;
nodes = (
(34,189,l),
(305,189,l),
(305,306,l),
(34,306,l)
);
}
);
width = 339;
}
);
note = hyphen;
unicode = 45;
},
{
glyphname = period;
kernLeft = comma;
kernRight = comma;
layers = (
{
hints = (
{
horizontal = 1;
place = (0, 145);
place = (0, 145);
type = Stem;
},
{
place = (36, 146);
place = (36, 146);
type = Stem;
}
);
layerId = m01;
shapes = (
{
closed = 1;
nodes = (
(36,0,l),
(182,0,l),
(182,145,l),
(36,145,l)
);
}
);
width = 218;
}
);
note = period;
unicode = 46;
},
{
glyphname = slash;
kernLeft = slash;
kernRight = slash;
layers = (
{
hints = (
{
horizontal = 1;
place = (0, 21);
target = up;
type = BottomGhost;
},
{
horizontal = 1;
place = (715, -20);
target = down;
type = TopGhost;
},
{
place = (13, 388);
place = (13, 388);
type = Stem;
}
);
layerId = m01;
shapes = (
{
closed = 1;
nodes = (
(13,0,l),
(121,0,l),
(401,715,l),
(293,715,l)
);
}
);
width = 414;
}
);
note = slash;
unicode = 47;
},
{
glyphname = zero;
kernLeft = zero;
kernRight = zero;
layers = (
{
hints = (
{
horizontal = 1;
place = (-16, 116);
place = (-16, 116);
type = Stem;
},
{
horizontal = 1;
place = (584, 116);
place = (584, 116);
type = Stem;
},
{
place = (30, 142);
place = (30, 142);
type = Stem;
},
{
place = (460, 142);
place = (460, 142);
type = Stem;
}
);
layerId = m01;
shapes = (
{
closed = 1;
nodes = (
(494,-16,o),
(602,124,o),
(602,342,cs),
(602,562,o),
(494,700,o),
(317,700,cs),
(143,700,o),
(30,561,o),
(30,342,cs),
(30,124,o),
(141,-16,o),
(316,-16,cs)
);
},
{
closed = 1;
nodes = (
(215,100,o),
(172,197,o),
(172,342,cs),
(172,488,o),
(215,584,o),
(317,584,cs),
(418,584,o),
(460,487,o),
(460,342,cs),
(460,195,o),
(419,100,o),
(317,100,cs)
);
}
);
width = 632;
}
);
note = zero;
unicode = 48;
},
{
glyphname = one;
kernLeft = one;
layers = (
{
hints = (
{
horizontal = 1;
place = (0, 21);
target = up;
type = BottomGhost;
},
{
horizontal = 1;
place = (478, 90);
place = (478, 90);
type = Stem;
},
{
horizontal = 1;
place = (690, -20);
target = down;
type = TopGhost;
},
{
place = (182, 137);
place = (182, 137);
type = Stem;
}
);
layerId = m01;
shapes = (
{
closed = 1;
nodes = (
(182,0,l),
(319,0,l),
(319,690,l),
(200,690,l),
(186,602,o),
(111,571,o),
(27,568,c),
(27,478,l),
(182,478,l)
);
}
);
width = 392;
}
);
note = one;
unicode = 49;
},
{
glyphname = two;
kernLeft = two;
kernRight = two;
layers = (
{
hints = (
{
horizontal = 1;
place = (0, 112);
place = (0, 112);
type = Stem;
},
{
horizontal = 1;
place = (583, 116);
place = (583, 116);
type = Stem;
},
{
place = (36, 128);
place = (36, 128);
type = Stem;
},
{
place = (371, 141);
place = (371, 141);
type = Stem;
}
);
layerId = m01;
shapes = (
{
closed = 1;
nodes = (
(518,0,l),
(518,112,l),
(202,112,l),
(225,156,o),
(287,200,o),
(340,234,cs),
(424,290,o),
(512,351,o),
(512,480,cs),
(512,598,o),
(428,699,o),
(279,699,cs),
(116,699,o),
(36,600,o),
(36,444,c),
(164,444,l),
(166,533,o),
(207,583,o),
(276,583,cs),
(337,583,o),
(371,540,o),
(371,476,cs),
(371,388,o),
(277,340,o),
(191,272,cs),
(113,211,o),
(31,131,o),
(26,0,c)
);
}
);
width = 547;
}
);
note = two;
unicode = 50;
},
{
glyphname = three;
kernLeft = three;
kernRight = three;
layers = (
{
hints = (
{
horizontal = 1;
place = (-15, 109);
place = (-15, 109);
type = Stem;
},
{
horizontal = 1;
place = (311, 103);
place = (311, 103);
type = Stem;
},
{
horizontal = 1;
place = (595, 104);
place = (595, 104);
type = Stem;
},
{
place = (15, 130);
place = (15, 130);
type = Stem;
},
{
place = (401, 142);
place = (401, 142);
type = Stem;
},
{
place = (37, 130);
place = (37, 130);
type = Stem;
},
{
place = (383, 138);
place = (383, 138);
type = Stem;
}
);
layerId = m01;
shapes = (
{
closed = 1;
nodes = (
(426,-15,o),
(543,54,o),
(543,196,cs),
(543,291,o),
(491,347,o),
(404,368,c),
(404,370,l),
(472,392,o),
(521,437,o),
(521,514,cs),
(521,628,o),
(429,699,o),
(286,699,cs),
(127,699,o),
(42,608,o),
(37,473,c),
(167,473,l),
(170,544,o),
(208,595,o),
(286,595,cs),
(346,595,o),
(383,559,o),
(383,505,cs),
(383,447,o),
(337,414,o),
(272,414,cs),
(233,414,l),
(233,311,l),
(275,311,ls),
(359,311,o),
(401,271,o),
(401,205,cs),
(401,135,o),
(356,94,o),
(280,94,cs),
(186,94,o),
(150,151,o),
(145,233,c),
(15,233,l),
(17,83,o),
(108,-15,o),
(285,-15,cs)
);
}
);
width = 567;
}
);
note = three;
unicode = 51;
},
{
glyphname = four;
kernLeft = four;
kernRight = four;
layers = (
{
hints = (
{
horizontal = 1;
place = (0, 21);
target = up;
type = BottomGhost;
},
{
horizontal = 1;
place = (149, 109);
place = (149, 109);
type = Stem;
},
{
horizontal = 1;
place = (693, -20);
target = down;
type = TopGhost;
},
{
place = (24, 110);
place = (24, 110);
type = Stem;
},
{
place = (340, 133);
place = (340, 133);
type = Stem;
},
{
horizontal = 1;
place = (524, 169);
place = (524, 169);
type = Stem;
}
);
layerId = m01;
shapes = (
{
closed = 1;
nodes = (
(340,0,l),
(473,0,l),
(473,149,l),
(577,149,l),
(577,258,l),
(473,258,l),
(473,693,l),
(335,693,l),
(24,296,l),
(24,149,l),
(340,149,l)
);
},
{
closed = 1;
nodes = (
(134,261,l),
(338,524,l),
(340,524,l),
(340,258,l),
(134,258,l)
);
}
);
width = 595;
}
);
note = four;
unicode = 52;
},
{
glyphname = five;
kernLeft = five;
kernRight = five;
layers = (
{
hints = (
{
horizontal = 1;
place = (-15, 114);
place = (-15, 114);
type = Stem;
},
{
horizontal = 1;
place = (354, 113);
place = (354, 113);
type = Stem;
},
{
horizontal = 1;
place = (572, 113);
place = (572, 113);
type = Stem;
},
{
place = (413, 141);
place = (413, 141);
type = Stem;
},
{
horizontal = 1;
place = (311, 113);
place = (311, 113);
type = Stem;
}
);
layerId = m01;
shapes = (
{
closed = 1;
nodes = (
(439,-15,o),
(554,85,o),
(554,228,cs),
(554,376,o),
(443,467,o),
(322,467,cs),
(259,467,o),
(210,450,o),
(180,424,c),
(178,424,l),
(204,572,l),
(513,572,l),
(513,685,l),
(109,685,l),
(43,311,l),
(174,311,l),
(194,334,o),
(234,354,o),
(286,354,cs),
(358,354,o),
(413,309,o),
(413,228,cs),
(413,155,o),
(364,99,o),
(286,99,cs),
(215,99,o),
(159,131,o),
(147,198,c),
(13,198,l),
(26,65,o),
(137,-15,o),
(289,-15,cs)
);
}
);
width = 578;
}
);
note = five;
unicode = 53;
},
{
glyphname = six;
kernLeft = six;
kernRight = six;
layers = (
{
hints = (
{
horizontal = 1;
place = (-15, 107);
place = (-15, 107);
type = Stem;
},
{
horizontal = 1;
place = (360, 110);
place = (360, 110);
type = Stem;
},
{
horizontal = 1;
place = (595, 104);
place = (595, 104);
type = Stem;
},
{
place = (31, 147);
place = (31, 147);
type = Stem;
},
{
place = (440, 130);
place = (440, 130);
type = Stem;
}
);
layerId = m01;
shapes = (
{
closed = 1;
nodes = (
(458,-15,o),
(570,84,o),
(570,225,cs),
(570,371,o),
(459,470,o),
(332,470,cs),
(252,470,o),
(207,441,o),
(171,399,c),
(169,399,l),
(169,520,o),
(217,595,o),
(317,595,cs),
(377,595,o),
(407,564,o),
(417,522,c),
(548,522,l),
(531,624,o),
(449,699,o),
(312,699,cs),
(219,699,o),
(159,670,o),
(115,620,cs),
(54,551,o),
(30,453,o),
(31,332,cs),
(33,146,o),
(119,-15,o),
(315,-15,cs)
);
},
{
closed = 1;
nodes = (
(233,92,o),
(178,147,o),
(178,224,cs),
(178,303,o),
(227,360,o),
(311,360,cs),
(385,360,o),
(440,301,o),
(440,223,cs),
(440,149,o),
(384,92,o),
(310,92,cs)
);
}
);
width = 594;
}
);
note = six;
unicode = 54;
},
{
glyphname = seven;
kernLeft = seven;
kernRight = seven;
layers = (
{
hints = (
{
horizontal = 1;
place = (0, 21);
target = up;
type = BottomGhost;
},
{
horizontal = 1;
place = (568, 117);
place = (568, 117);
type = Stem;
},
{
place = (112, 148);
place = (112, 148);
type = Stem;
}
);
layerId = m01;
shapes = (
{
closed = 1;
nodes = (
(260,0,l),
(270,249,o),
(384,448,o),
(507,573,c),
(507,685,l),
(19,685,l),
(19,568,l),
(359,568,l),
(359,566,l),
(255,459,o),
(121,252,o),
(112,0,c)
);
}
);
width = 530;
}
);
note = seven;
unicode = 55;
},
{
glyphname = eight;
kernLeft = eight;
kernRight = eight;
layers = (
{
hints = (
{
horizontal = 1;
place = (-15, 110);
place = (-15, 110);
type = Stem;
},
{
horizontal = 1;
place = (319, 95);
place = (319, 95);
type = Stem;
},
{
horizontal = 1;
place = (596, 103);
place = (596, 103);
type = Stem;
},
{
place = (23, 141);
place = (23, 141);
type = Stem;
},
{
place = (434, 140);
place = (434, 140);
type = Stem;
},
{
place = (52, 133);
place = (52, 133);
type = Stem;
},
{
place = (412, 133);
place = (412, 133);
type = Stem;
}
);
layerId = m01;
shapes = (
{
closed = 1;
nodes = (
(457,-15,o),
(574,63,o),
(574,204,cs),
(574,287,o),
(526,352,o),
(450,379,c),
(450,382,l),
(509,410,o),
(545,455,o),
(545,519,cs),
(545,634,o),
(449,699,o),
(301,699,cs),
(153,699,o),
(52,633,o),
(52,517,cs),
(52,451,o),
(87,409,o),
(148,381,c),
(148,378,l),
(73,349,o),
(23,283,o),
(23,198,cs),
(23,60,o),
(147,-15,o),
(302,-15,cs)
);
},
{
closed = 1;
nodes = (
(216,95,o),
(164,136,o),
(164,203,cs),
(164,273,o),
(217,319,o),
(301,319,cs),
(385,319,o),
(434,273,o),
(434,203,cs),
(434,138,o),
(379,95,o),
(299,95,cs)
);
},
{
closed = 1;
nodes = (
(227,414,o),
(185,452,o),
(185,506,cs),
(185,560,o),
(227,596,o),
(299,596,cs),
(370,596,o),
(412,560,o),
(412,506,cs),
(412,452,o),
(370,414,o),
(299,414,cs)
);
}
);
width = 597;
}
);
note = eight;
unicode = 56;
},
{
glyphname = nine;
kernLeft = nine;
kernRight = nine;
layers = (
{
hints = (
{
horizontal = 1;
place = (-15, 104);
place = (-15, 104);
type = Stem;
},
{
horizontal = 1;
place = (218, 110);
place = (218, 110);
type = Stem;
},
{
horizontal = 1;
place = (592, 107);
place = (592, 107);
type = Stem;
},
{
place = (25, 130);
place = (25, 130);
type = Stem;
},
{
place = (431, 136);
place = (431, 136);
type = Stem;
}
);
layerId = m01;
shapes = (
{
closed = 1;
nodes = (
(494,-15,o),
(567,133,o),
(567,352,cs),
(567,584,o),
(465,699,o),
(283,699,cs),
(136,699,o),
(25,600,o),
(25,459,cs),
(25,313,o),
(131,218,o),
(270,218,cs),
(345,218,o),
(393,251,o),
(429,293,c),
(431,293,l),
(430,222,o),
(415,166,o),
(388,132,cs),
(364,102,o),
(332,89,o),
(289,89,cs),
(228,89,o),
(196,123,o),
(185,164,c),
(53,164,l),
(68,61,o),
(150,-15,o),
(293,-15,cs)
);
},
{
closed = 1;
nodes = (
(205,328,o),
(155,383,o),
(155,461,cs),
(155,535,o),
(211,592,o),
(290,592,cs),
(368,592,o),
(427,537,o),
(427,459,cs),
(427,380,o),
(367,328,o),
(289,328,cs)
);
}
);
width = 597;
}
);
note = nine;
unicode = 57;
},
{
glyphname = colon;
kernLeft = colon;
kernRight = colon;
layers = (
{
hints = (
{
horizontal = 1;
place = (0, 145);
place = (0, 145);
type = Stem;
},
{
horizontal = 1;
place = (301, 145);
place = (301, 145);
type = Stem;
},
{
place = (39, 146);
place = (39, 146);
type = Stem;
}
);
layerId = m01;
shapes = (
{
closed = 1;
nodes = (
(39,301,l),
(185,301,l),
(185,446,l),
(39,446,l)
);
},
{
closed = 1;
nodes = (
(39,0,l),
(185,0,l),
(185,145,l),
(39,145,l)
);
}
);
width = 224;
}
);
note = colon;
unicode = 58;
},
{
glyphname = semicolon;
kernLeft = colon;
kernRight = colon;
layers = (
{
hints = (
{
horizontal = 1;
place = (0, 145);
place = (0, 145);
type = Stem;
},
{
horizontal = 1;
place = (301, 145);
place = (301, 145);
type = Stem;
},
{
place = (39, 146);
place = (39, 146);
type = Stem;
}
);
layerId = m01;
shapes = (
{
closed = 1;
nodes = (
(40,-166,l),
(117,-152,o),
(185,-94,o),
(185,8,cs),
(185,145,l),
(39,145,l),
(39,0,l),
(112,0,l),
(112,-62,o),
(79,-97,o),
(40,-117,c)
);
},
{
closed = 1;
nodes = (
(39,301,l),
(185,301,l),
(185,446,l),
(39,446,l)
);
}
);
width = 224;
}
);
note = semicolon;
unicode = 59;
},
{
glyphname = less;
layers = (
{
hints = (
{
horizontal = 1;
place = (79, 462);
place = (79, 462);
type = Stem;
},
{
place = (45, 410);
place = (45, 410);
type = Stem;
},
{
place = (45, 98);
place = (45, 98);
type = Stem;
}
);
layerId = m01;
shapes = (
{
closed = 1;
nodes = (
(455,79,l),
(455,195,l),
(238,277,ls),
(205,289,o),
(143,307,o),
(143,307,c),
(143,309,l),
(143,309,o),
(205,329,o),
(238,342,cs),
(455,427,l),
(455,541,l),
(45,368,l),
(45,252,l)
);
}
);
width = 500;
}
);
note = less;
unicode = 60;
},
{
glyphname = equal;
layers = (
{
hints = (
{
horizontal = 1;
place = (165, 98);
place = (165, 98);
type = Stem;
},
{
horizontal = 1;
place = (358, 98);
place = (358, 98);
type = Stem;
},
{
place = (56, 464);
place = (56, 464);
type = Stem;
}
);
layerId = m01;
shapes = (
{
closed = 1;
nodes = (
(56,358,l),
(520,358,l),
(520,456,l),
(56,456,l)
);
},
{
closed = 1;
nodes = (
(56,165,l),
(520,165,l),
(520,263,l),
(56,263,l)
);
}
);
width = 562;
}
);
note = equal;
unicode = 61;
},
{
glyphname = greater;
layers = (
{
hints = (
{
horizontal = 1;
place = (79, 462);
place = (79, 462);
type = Stem;
},
{
place = (45, 410);
place = (45, 410);
type = Stem;
},
{
place = (357, 98);
place = (357, 98);
type = Stem;
}
);
layerId = m01;
shapes = (
{
closed = 1;
nodes = (
(45,79,l),
(455,252,l),
(455,368,l),
(45,541,l),
(45,425,l),
(262,343,ls),
(295,331,o),
(357,313,o),
(357,313,c),
(357,311,l),
(357,311,o),
(295,291,o),
(262,278,cs),
(45,193,l)
);
}
);
width = 500;
}
);
note = greater;
unicode = 62;
},
{
glyphname = question;
kernLeft = question;
layers = (
{
hints = (
{
horizontal = 1;
place = (0, 145);
place = (0, 145);
type = Stem;
},
{
horizontal = 1;
place = (613, 115);
place = (613, 115);
type = Stem;
},
{
place = (18, 129);
place = (18, 129);
type = Stem;
},
{
place = (193, 122);
place = (193, 122);
type = Stem;
},
{
place = (378, 136);
place = (378, 136);
type = Stem;
},
{
place = (181, 146);
place = (181, 146);
type = Stem;
}
);
layerId = m01;
shapes = (
{
closed = 1;
nodes = (
(315,209,l),
(315,280,o),
(344,290,o),
(419,347,cs),
(462,380,o),
(514,420,o),
(514,519,cs),
(514,637,o),
(424,728,o),
(271,728,cs),
(108,728,o),
(21,621,o),
(18,488,c),
(147,488,l),
(148,566,o),
(198,613,o),
(272,613,cs),
(333,613,o),
(378,576,o),
(378,515,cs),
(378,454,o),
(340,430,o),
(297,399,cs),
(236,355,o),
(193,326,o),
(193,209,c)
);
},
{
closed = 1;
nodes = (
(181,0,l),
(327,0,l),
(327,145,l),
(181,145,l)
);
}
);
width = 538;
}
);
note = question;
unicode = 63;
},
{
glyphname = at;
kernLeft = at;
kernRight = at;
layers = (
{
hints = (
{
horizontal = 1;
place = (-109, 75);
place = (-109, 75);
type = Stem;
},
{
horizontal = 1;
place = (78, 97);
place = (78, 97);
type = Stem;
},
{
horizontal = 1;
place = (423, 96);
place = (423, 96);
type = Stem;
},
{
horizontal = 1;
place = (637, 77);
place = (637, 77);
type = Stem;
},
{
place = (36, 89);
place = (36, 89);
type = Stem;
},
{
place = (228, 130);
place = (228, 130);
type = Stem;
},
{
place = (530, 112);
place = (530, 112);
type = Stem;
},
{
place = (782, 83);
place = (782, 83);
type = Stem;
},
{
horizontal = 1;
place = (79, 75);
place = (79, 75);
type = Stem;
}
);
layerId = m01;
shapes = (
{
closed = 1;
nodes = (
(455,78,o),
(501,107,o),
(531,158,c),
(534,158,l),
(554,105,o),
(604,79,o),
(675,79,cs),
(794,79,o),
(865,180,o),
(865,343,cs),
(865,585,o),
(678,714,o),
(466,714,cs),
(246,714,o),
(36,560,o),
(36,284,cs),
(36,47,o),
(206,-109,o),
(442,-109,cs),
(516,-109,o),
(587,-94,o),
(649,-63,c),
(621,3,l),
(567,-20,o),
(506,-34,o),
(440,-34,cs),
(235,-34,o),
(125,101,o),
(125,284,cs),
(125,507,o),
(279,637,o),
(465,637,cs),
(651,637,o),
(782,540,o),
(782,341,cs),
(782,207,o),
(731,154,o),
(685,154,cs),
(645,154,o),
(635,183,o),
(642,234,cs),
(676,508,l),
(551,508,l),
(544,445,l),
(542,445,l),
(523,491,o),
(485,519,o),
(427,519,cs),
(307,519,o),
(228,418,o),
(228,274,cs),
(228,155,o),
(292,78,o),
(395,78,cs)
);
},
{
closed = 1;
nodes = (
(380,175,o),
(358,220,o),
(358,277,cs),
(358,358,o),
(392,423,o),
(454,423,cs),
(505,423,o),
(530,380,o),
(530,322,cs),
(530,237,o),
(493,175,o),
(430,175,cs)
);
}
);
width = 901;
}
);
note = at;
unicode = 64;
},
{
glyphname = A;
kernLeft = A;
kernRight = A;
layers = (
{
hints = (
{
horizontal = 1;
place = (0, 21);
target = up;
type = BottomGhost;
},
{
horizontal = 1;
place = (152, 111);
place = (152, 111);
type = Stem;
},
{
horizontal = 1;
place = (715, -20);
target = down;
type = TopGhost;
},
{
place = (3, 651);
place = (3, 651);
type = Stem;
},
{
horizontal = 1;
place = (579, 136);
place = (579, 136);
type = Stem;
}
);
layerId = m01;
shapes = (
{
closed = 1;
nodes = (
(3,0,l),
(150,0,l),
(197,152,l),
(455,152,l),
(503,0,l),
(654,0,l),
(402,715,l),
(252,715,l)
);
},
{
closed = 1;
nodes = (
(295,469,ls),
(307,507,o),
(325,579,o),
(325,579,c),
(327,579,l),
(327,579,o),
(344,507,o),
(356,469,cs),
(420,263,l),
(231,263,l)
);
}
);
width = 659;
}
);
note = A;
unicode = 65;
},
{
glyphname = B;
layers = (
{
hints = (
{
horizontal = 1;
place = (0, 120);
place = (0, 120);
type = Stem;
},
{
horizontal = 1;
place = (320, 107);
place = (320, 107);
type = Stem;
},
{
horizontal = 1;
place = (597, 118);
place = (597, 118);
type = Stem;
},
{
place = (55, 145);
place = (55, 145);
type = Stem;
},
{
place = (479, 147);
place = (479, 147);
type = Stem;
},
{
place = (463, 142);
place = (463, 142);
type = Stem;
}
);
layerId = m01;
shapes = (
{
closed = 1;
nodes = (
(55,0,l),
(383,0,ls),
(459,0,o),
(522,21,o),
(563,57,cs),
(605,93,o),
(626,139,o),
(626,206,cs),
(626,294,o),
(572,360,o),
(493,383,c),
(493,386,l),
(560,409,o),
(605,456,o),
(605,529,cs),
(605,585,o),
(587,628,o),
(548,663,cs),
(511,696,o),
(452,715,o),
(375,715,cs),
(55,715,l)
);
},
{
closed = 1;
nodes = (
(200,320,l),
(363,320,ls),
(429,320,o),
(479,285,o),
(479,217,cs),
(479,159,o),
(437,120,o),
(367,120,cs),
(200,120,l)
);
},
{
closed = 1;
nodes = (
(200,427,l),
(200,597,l),
(360,597,ls),
(424,597,o),
(463,566,o),
(463,513,cs),
(463,457,o),
(420,427,o),
(357,427,cs)
);
}
);
width = 656;
}
);
note = B;
unicode = 66;
},
{
glyphname = C;
kernLeft = C;
kernRight = C;
layers = (
{
hints = (
{
horizontal = 1;
place = (-15, 119);
place = (-15, 119);
type = Stem;
},
{
horizontal = 1;
place = (607, 122);
place = (607, 122);
type = Stem;
},
{
place = (24, 148);
place = (24, 148);
type = Stem;
}
);
layerId = m01;
shapes = (
{
closed = 1;
nodes = (
(467,-15,o),
(536,15,o),
(585,61,cs),
(633,106,o),
(660,167,o),
(664,230,c),
(522,230,l),
(513,155,o),
(453,104,o),
(368,104,cs),
(248,104,o),
(172,209,o),
(172,355,cs),
(172,497,o),
(235,607,o),
(367,607,cs),
(451,607,o),
(505,560,o),
(518,488,c),
(662,488,l),
(647,624,o),
(543,729,o),
(367,729,cs),
(156,729,o),
(24,567,o),
(24,355,cs),
(24,140,o),
(167,-15,o),
(368,-15,cs)
);
}
);
width = 684;
}
);
note = C;
unicode = 67;
},
{
glyphname = D;
kernRight = Eth;
layers = (
{
hints = (
{
horizontal = 1;
place = (0, 125);
place = (0, 125);
type = Stem;
},
{
horizontal = 1;
place = (591, 124);
place = (591, 124);
type = Stem;
},
{
place = (55, 145);
place = (55, 145);
type = Stem;
},
{
place = (501, 147);
place = (501, 147);
type = Stem;
}
);
layerId = m01;
shapes = (
{
closed = 1;
nodes = (
(55,0,l),
(322,0,ls),
(412,0,o),
(481,25,o),
(534,69,cs),
(609,132,o),
(648,234,o),
(648,350,cs),
(648,561,o),
(525,715,o),
(334,715,cs),
(55,715,l)
);
},
{
closed = 1;
nodes = (
(200,125,l),
(200,591,l),
(316,591,ls),
(439,591,o),
(501,492,o),
(501,350,cs),
(501,208,o),
(448,125,o),
(312,125,cs)
);
}
);
width = 672;
}
);
note = D;
unicode = 68;
},
{
glyphname = E;
kernRight = E;
layers = (
{
hints = (
{
horizontal = 1;
place = (0, 121);
place = (0, 121);
type = Stem;
},
{
horizontal = 1;
place = (314, 119);
place = (314, 119);
type = Stem;
},
{
horizontal = 1;
place = (593, 122);
place = (593, 122);
type = Stem;
},
{
place = (55, 145);
place = (55, 145);
type = Stem;
}
);
layerId = m01;
shapes = (
{
closed = 1;
nodes = (
(55,0,l),
(584,0,l),
(584,121,l),
(200,121,l),
(200,314,l),
(534,314,l),
(534,433,l),
(200,433,l),
(200,593,l),
(581,593,l),
(581,715,l),
(55,715,l)
);
}
);
width = 619;
}
);
note = E;
unicode = 69;
},
{
glyphname = F;
kernRight = F;
layers = (
{
hints = (
{
horizontal = 1;
place = (0, 21);
target = up;
type = BottomGhost;
},
{
horizontal = 1;
place = (296, 124);
place = (296, 124);
type = Stem;
},
{
horizontal = 1;
place = (592, 123);
place = (592, 123);
type = Stem;
},
{
place = (55, 145);
place = (55, 145);
type = Stem;
}
);
layerId = m01;
shapes = (
{
closed = 1;
nodes = (
(55,0,l),
(200,0,l),
(200,296,l),
(511,296,l),
(511,420,l),
(200,420,l),
(200,592,l),
(567,592,l),
(567,715,l),
(55,715,l)
);
}
);
width = 594;
}
);
note = F;
unicode = 70;
},
{
glyphname = G;
kernLeft = C;
kernRight = G;
layers = (
{
hints = (
{
horizontal = 1;
place = (0, 21);
target = up;
type = BottomGhost;
},
{
horizontal = 1;
place = (268, 112);
place = (268, 112);
type = Stem;
},
{
horizontal = 1;
place = (609, 120);
place = (609, 120);
type = Stem;
},
{
place = (27, 148);
place = (27, 148);
type = Stem;
},
{
place = (576, 111);
place = (576, 111);
type = Stem;
},
{
horizontal = 1;
place = (-15, 117);
place = (-15, 117);
type = Stem;
}
);
layerId = m01;
shapes = (
{
closed = 1;
nodes = (
(579,0,l),
(688,0,l),
(688,380,l),
(387,380,l),
(387,268,l),
(559,268,l),
(559,264,ls),
(559,185,o),
(486,102,o),
(375,102,cs),
(252,102,o),
(175,209,o),
(175,355,cs),
(175,497,o),
(242,609,o),
(377,609,cs),
(469,609,o),
(522,559,o),
(538,490,c),
(680,490,l),
(657,630,o),
(554,729,o),
(374,729,cs),
(278,729,o),
(202,700,o),
(144,647,cs),
(69,578,o),
(27,474,o),
(27,355,cs),
(27,247,o),
(61,155,o),
(120,89,cs),
(179,24,o),
(263,-15,o),
(371,-15,cs),
(456,-15,o),
(523,14,o),
(572,96,c),
(574,96,l)
);
}
);
width = 734;
}
);
note = G;
unicode = 71;
},
{
glyphname = H;
kernRight = H;
layers = (
{
hints = (
{
horizontal = 1;
place = (0, 21);
target = up;
type = BottomGhost;
},
{
horizontal = 1;
place = (315, 120);
place = (315, 120);
type = Stem;
},
{
horizontal = 1;
place = (715, -20);
target = down;
type = TopGhost;
},
{
place = (55, 145);
place = (55, 145);
type = Stem;
},
{
place = (481, 145);
place = (481, 145);
type = Stem;
}
);
layerId = m01;
shapes = (
{
closed = 1;
nodes = (
(55,0,l),
(200,0,l),
(200,315,l),
(481,315,l),
(481,0,l),
(626,0,l),
(626,715,l),
(481,715,l),
(481,435,l),
(200,435,l),
(200,715,l),
(55,715,l)
);
}
);
width = 681;
}
);
note = H;
unicode = 72;
},
{
glyphname = I;
kernRight = H;
layers = (
{
hints = (
{
horizontal = 1;
place = (0, 21);
target = up;
type = BottomGhost;
},
{
horizontal = 1;
place = (715, -20);
target = down;
type = TopGhost;
},
{
place = (56, 145);
place = (56, 145);
type = Stem;
}
);
layerId = m01;
shapes = (
{
closed = 1;
nodes = (
(56,0,l),
(201,0,l),
(201,715,l),
(56,715,l)
);
}
);
width = 257;
}
);
note = I;
unicode = 73;
},
{
glyphname = J;
kernLeft = J;
kernRight = J;
layers = (
{
hints = (
{
horizontal = 1;
place = (-13, 117);
place = (-13, 117);
type = Stem;
},
{
horizontal = 1;
place = (715, -20);
target = down;
type = TopGhost;
},
{
place = (17, 130);
place = (17, 130);
type = Stem;
},
{
place = (325, 145);
place = (325, 145);
type = Stem;
}
);
layerId = m01;
shapes = (
{
closed = 1;
nodes = (
(399,-13,o),
(470,79,o),
(470,201,cs),
(470,715,l),
(325,715,l),
(325,202,ls),
(325,139,o),
(298,104,o),
(239,104,cs),
(180,104,o),
(147,132,o),
(147,204,cs),
(147,266,l),
(17,266,l),
(17,195,ls),
(17,55,o),
(103,-13,o),
(251,-13,cs)
);
}
);
width = 516;
}
);
note = J;
unicode = 74;
},
{
glyphname = K;
kernRight = K;
layers = (
{
hints = (
{
horizontal = 1;
place = (0, 21);
target = up;
type = BottomGhost;
},
{
horizontal = 1;
place = (715, -20);
target = down;
type = TopGhost;
},
{
place = (55, 145);
place = (55, 145);
type = Stem;
}
);
layerId = m01;
shapes = (
{
closed = 1;
nodes = (
(55,0,l),
(200,0,l),
(200,260,l),
(273,334,l),
(503,0,l),
(673,0,l),
(375,429,l),
(655,715,l),
(475,715,l),
(200,430,l),
(200,715,l),
(55,715,l)
);
}
);
width = 674;
}
);
note = K;
unicode = 75;
},
{
glyphname = L;
kernRight = L;
layers = (
{
hints = (
{
horizontal = 1;
place = (0, 121);
place = (0, 121);
type = Stem;
},
{
horizontal = 1;
place = (715, -20);
target = down;
type = TopGhost;
},
{
place = (55, 145);
place = (55, 145);
type = Stem;
}
);
layerId = m01;
shapes = (
{
closed = 1;
nodes = (
(55,0,l),
(536,0,l),
(536,121,l),
(200,121,l),
(200,715,l),
(55,715,l)
);
}
);
width = 559;
}
);
note = L;
unicode = 76;
},
{
glyphname = M;
kernRight = H;
layers = (
{
hints = (
{
horizontal = 1;
place = (0, 21);
target = up;
type = BottomGhost;
},
{
horizontal = 1;
place = (715, -20);
target = down;
type = TopGhost;
},
{
place = (55, 133);
place = (55, 133);
type = Stem;
},
{
place = (624, 135);
place = (624, 135);
type = Stem;
},
{
horizontal = 1;
place = (558, 157);
place = (558, 157);
type = Stem;
},
{
horizontal = 1;
place = (0, 163);
place = (0, 163);
type = Stem;
}
);
layerId = m01;
shapes = (
{
closed = 1;
nodes = (
(55,0,l),
(188,0,l),
(188,410,ls),
(188,468,o),
(182,558,o),
(182,558,c),
(184,558,l),
(184,558,o),
(200,474,o),
(215,422,cs),
(335,0,l),
(474,0,l),
(597,422,ls),
(612,474,o),
(628,558,o),
(628,558,c),
(630,558,l),
(630,558,o),
(624,468,o),
(624,410,cs),
(624,0,l),
(759,0,l),
(759,715,l),
(552,715,l),
(451,356,ls),
(426,266,o),
(407,163,o),
(407,163,c),
(405,163,l),
(405,163,o),
(385,266,o),
(360,356,cs),
(259,715,l),
(55,715,l)
);
}
);
width = 814;
}
);
note = M;
unicode = 77;
},
{
glyphname = N;
kernRight = H;
layers = (
{
hints = (
{
horizontal = 1;
place = (0, 21);
target = up;
type = BottomGhost;
},
{
horizontal = 1;
place = (715, -20);
target = down;
type = TopGhost;
},
{
place = (55, 143);
place = (55, 143);
type = Stem;
},
{
place = (488, 143);
place = (488, 143);
type = Stem;
}
);
layerId = m01;
shapes = (
{
closed = 1;
nodes = (
(55,0,l),
(198,0,l),
(198,369,ls),
(198,419,o),
(194,494,o),
(194,494,c),
(196,494,l),
(196,494,o),
(224,433,o),
(247,395,cs),
(491,0,l),
(631,0,l),
(631,715,l),
(488,715,l),
(488,340,ls),
(488,290,o),
(492,216,o),
(492,216,c),
(490,216,l),
(490,216,o),
(463,277,o),
(440,316,cs),
(202,715,l),
(55,715,l)
);
}
);
width = 686;
}
);
note = N;
unicode = 78;
},
{
glyphname = O;
kernLeft = C;
kernRight = O;
layers = (
{
hints = (
{
horizontal = 1;
place = (-16, 119);
place = (-16, 119);
type = Stem;
},
{
horizontal = 1;
place = (610, 119);
place = (610, 119);
type = Stem;
},
{
place = (24, 148);
place = (24, 148);
type = Stem;
},
{
place = (565, 148);
place = (565, 148);
type = Stem;
}
);
layerId = m01;
shapes = (
{
closed = 1;
nodes = (
(580,-16,o),
(713,142,o),
(713,356,cs),
(713,570,o),
(580,729,o),
(369,729,cs),
(158,729,o),
(24,570,o),
(24,356,cs),
(24,142,o),
(158,-16,o),
(369,-16,cs)
);
},
{
closed = 1;
nodes = (
(239,103,o),
(172,214,o),
(172,356,cs),
(172,499,o),
(239,610,o),
(370,610,cs),
(501,610,o),
(565,499,o),
(565,356,cs),
(565,214,o),
(501,103,o),
(370,103,cs)
);
}
);
width = 737;
}
);
note = O;
unicode = 79;
},
{
glyphname = P;
kernRight = P;
layers = (
{
hints = (
{
horizontal = 1;
place = (0, 21);
target = up;
type = BottomGhost;
},
{
horizontal = 1;
place = (259, 118);
place = (259, 118);
type = Stem;
},
{
horizontal = 1;
place = (589, 126);
place = (589, 126);
type = Stem;
},
{
place = (55, 150);
place = (55, 150);
type = Stem;
},
{
place = (471, 149);
place = (471, 149);
type = Stem;
}
);
layerId = m01;
shapes = (
{
closed = 1;
nodes = (
(55,0,l),
(205,0,l),
(205,259,l),
(381,259,ls),
(531,259,o),
(620,350,o),
(620,485,cs),
(620,551,o),
(596,607,o),
(556,648,cs),
(514,691,o),
(452,715,o),
(369,715,cs),
(55,715,l)
);
},
{
closed = 1;
nodes = (
(205,589,l),
(357,589,ls),
(429,589,o),
(471,551,o),
(471,484,cs),
(471,419,o),
(431,377,o),
(355,377,cs),
(205,377,l)
);
}
);
width = 637;
}
);
note = P;
unicode = 80;
},
{
glyphname = Q;
kernLeft = C;
kernRight = Q;
layers = (
{
hints = (
{
horizontal = 1;
place = (-16, 119);
place = (-16, 119);
type = Stem;
},
{
horizontal = 1;
place = (610, 119);
place = (610, 119);
type = Stem;
},
{
place = (24, 148);
place = (24, 148);
type = Stem;
},
{
place = (561, 148);
place = (561, 148);
type = Stem;
}
);
layerId = m01;
shapes = (
{
closed = 1;
nodes = (
(633,-42,l),
(707,39,l),
(631,107,l),
(681,172,o),
(709,258,o),
(709,356,cs),
(709,570,o),
(578,729,o),
(367,729,cs),
(156,729,o),
(24,570,o),
(24,356,cs),
(24,142,o),
(156,-16,o),
(367,-16,cs),
(437,-16,o),
(499,2,o),
(550,33,c)
);
},
{
closed = 1;
nodes = (
(237,103,o),
(172,214,o),
(172,356,cs),
(172,499,o),
(237,610,o),
(368,610,cs),
(499,610,o),
(561,499,o),
(561,356,cs),
(561,297,o),
(550,243,o),
(528,200,c),
(463,260,l),
(389,180,l),
(452,122,l),
(428,109,o),
(400,103,o),
(368,103,cs)
);
}
);
width = 733;
}
);
note = Q;
unicode = 81;
},
{
glyphname = R;
kernRight = R;
layers = (
{
hints = (
{
horizontal = 1;
place = (0, 7);
place = (0, 7);
type = Stem;
},
{
horizontal = 1;
place = (287, 112);
place = (287, 112);
type = Stem;
},
{
horizontal = 1;
place = (598, 117);
place = (598, 117);
type = Stem;
},
{
place = (55, 145);
place = (55, 145);
type = Stem;
},
{
place = (472, 141);
place = (472, 141);
type = Stem;
}
);
layerId = m01;
shapes = (
{
closed = 1;
nodes = (
(55,0,l),
(200,0,l),
(200,287,l),
(317,287,ls),
(407,287,o),
(451,243,o),
(457,165,cs),
(463,88,o),
(465,8,o),
(483,0,c),
(622,0,l),
(622,7,l),
(597,18,o),
(601,95,o),
(591,196,cs),
(582,283,o),
(548,321,o),
(482,340,c),
(482,343,l),
(574,368,o),
(613,432,o),
(613,516,cs),
(613,635,o),
(521,715,o),
(383,715,cs),
(55,715,l)
);
},
{
closed = 1;
nodes = (
(200,598,l),
(358,598,ls),
(435,598,o),
(472,555,o),
(472,497,cs),
(472,440,o),
(433,399,o),
(354,399,cs),
(200,399,l)
);
}
);
width = 651;
}
);
note = R;
unicode = 82;
},
{
glyphname = S;
kernLeft = Scaron;
kernRight = Scaron;
layers = (
{
hints = (
{
horizontal = 1;
place = (-16, 117);
place = (-16, 117);
type = Stem;
},
{
horizontal = 1;
place = (613, 115);
place = (613, 115);
type = Stem;
},
{
place = (43, 144);
place = (43, 144);
type = Stem;
},
{
place = (465, 145);
place = (465, 145);
type = Stem;
}
);
layerId = m01;
shapes = (
{
closed = 1;
nodes = (
(493,-16,o),
(610,65,o),
(610,210,cs),
(610,364,o),
(490,399,o),
(343,431,cs),
(237,454,o),
(187,471,o),
(187,529,cs),
(187,580,o),
(238,613,o),
(316,613,cs),
(390,613,o),
(446,577,o),
(454,505,c),
(593,505,l),
(582,649,o),
(478,728,o),
(317,728,cs),
(158,728,o),
(43,655,o),
(43,514,cs),
(43,365,o),
(160,331,o),
(288,302,cs),
(397,277,o),
(465,263,o),
(465,193,cs),
(465,127,o),
(400,101,o),
(326,101,cs),
(224,101,o),
(175,135,o),
(165,221,c),
(23,221,l),
(28,70,o),
(138,-16,o),
(332,-16,cs)
);
}
);
width = 642;
}
);
note = S;
unicode = 83;
},
{
glyphname = T;
kernLeft = T;
kernRight = T;
layers = (
{
hints = (
{
horizontal = 1;
place = (0, 21);
target = up;
type = BottomGhost;
},
{
horizontal = 1;
place = (593, 122);
place = (593, 122);
type = Stem;
},
{
place = (233, 145);
place = (233, 145);
type = Stem;
}
);
layerId = m01;
shapes = (
{
closed = 1;
nodes = (
(18,593,l),
(233,593,l),
(233,0,l),
(378,0,l),
(378,593,l),
(593,593,l),
(593,715,l),
(18,715,l)
);
}
);
width = 611;
}
);
note = T;
unicode = 84;
},
{
glyphname = U;
kernLeft = U;
kernRight = U;
layers = (
{
hints = (
{
horizontal = 1;
place = (-12, 116);
place = (-12, 116);
type = Stem;
},
{
horizontal = 1;
place = (715, -20);
target = down;
type = TopGhost;
},
{
place = (49, 145);
place = (49, 145);
type = Stem;
},
{
place = (463, 145);
place = (463, 145);
type = Stem;
}
);
layerId = m01;
shapes = (
{
closed = 1;
nodes = (
(514,-12,o),
(608,77,o),
(608,230,cs),
(608,715,l),
(463,715,l),
(463,232,ls),
(463,158,o),
(420,104,o),
(328,104,cs),
(231,104,o),
(194,156,o),
(194,230,cs),
(194,715,l),
(49,715,l),
(49,230,ls),
(49,75,o),
(146,-12,o),
(331,-12,cs)
);
}
);
width = 657;
}
);
note = U;
unicode = 85;
},
{
glyphname = V;
kernLeft = V;
kernRight = V;
layers = (
{
hints = (
{
horizontal = 1;
place = (0, 21);
target = up;
type = BottomGhost;
},
{
horizontal = 1;
place = (715, -20);
target = down;
type = TopGhost;
},
{
place = (2, 614);
place = (2, 614);
type = Stem;
}
);
layerId = m01;
shapes = (
{
closed = 1;
nodes = (
(243,0,l),
(375,0,l),
(616,715,l),
(469,715,l),
(344,301,ls),
(330,255,o),
(313,187,o),
(313,187,c),
(311,187,l),
(311,187,o),
(294,254,o),
(280,301,cs),
(154,715,l),
(2,715,l)
);
}
);
width = 618;
}
);
note = V;
unicode = 86;
},
{
glyphname = W;
kernLeft = W;
kernRight = W;
layers = (
{
hints = (
{
horizontal = 1;
place = (0, 21);
target = up;
type = BottomGhost;
},
{
horizontal = 1;
place = (715, -20);
target = down;
type = TopGhost;
},
{
place = (5, 906);
place = (5, 906);
type = Stem;
}
);
layerId = m01;
shapes = (
{
closed = 1;
nodes = (
(213,0,l),
(347,0,l),
(435,383,ls),
(447,435,o),
(458,510,o),
(458,510,c),
(460,510,l),
(460,510,o),
(473,435,o),
(485,383,cs),
(572,0,l),
(707,0,l),
(911,715,l),
(768,715,l),
(678,361,ls),
(664,299,o),
(643,204,o),
(643,204,c),
(641,204,l),
(641,204,o),
(623,294,o),
(608,357,cs),
(530,715,l),
(390,715,l),
(312,356,ls),
(297,293,o),
(279,204,o),
(279,204,c),
(277,204,l),
(277,204,o),
(260,299,o),
(246,360,cs),
(153,715,l),
(5,715,l)
);
}
);
width = 916;
}
);
note = W;
unicode = 87;
},
{
glyphname = X;
kernLeft = X;
kernRight = X;
layers = (
{
hints = (
{
horizontal = 1;
place = (0, 21);
target = up;
type = BottomGhost;
},
{
horizontal = 1;
place = (715, -20);
target = down;
type = TopGhost;
},
{
place = (8, 631);
place = (8, 631);
type = Stem;
}
);
layerId = m01;
shapes = (
{
closed = 1;
nodes = (
(8,0,l),
(174,0,l),
(322,261,l),
(324,261,l),
(470,0,l),
(639,0,l),
(402,375,l),
(612,715,l),
(454,715,l),
(322,489,l),
(320,489,l),
(188,715,l),
(25,715,l),
(239,374,l)
);
}
);
width = 647;
}
);
note = X;
unicode = 88;
},
{
glyphname = Y;
kernLeft = Yacute;
kernRight = Yacute;
layers = (
{
hints = (
{
horizontal = 1;
place = (0, 21);
target = up;
type = BottomGhost;
},
{
horizontal = 1;
place = (715, -20);
target = down;
type = TopGhost;
},
{
place = (242, 145);
place = (242, 145);
type = Stem;
}
);
layerId = m01;
shapes = (
{
closed = 1;
nodes = (
(242,0,l),
(387,0,l),
(387,276,l),
(625,715,l),
(473,715,l),
(367,503,ls),
(346,460,o),
(319,401,o),
(319,401,c),
(317,401,l),
(317,401,o),
(292,460,o),
(270,503,cs),
(162,715,l),
(4,715,l),
(242,276,l)
);
}
);
width = 629;
}
);
note = Y;
unicode = 89;
},
{
glyphname = Z;
kernLeft = Zcaron;
kernRight = Zcaron;
layers = (
{
hints = (
{
horizontal = 1;
place = (0, 123);
place = (0, 123);
type = Stem;
},
{
horizontal = 1;
place = (594, 121);
place = (594, 121);
type = Stem;
},
{
place = (27, 569);
place = (27, 569);
type = Stem;
},
{
place = (417, 172);
place = (417, 172);
type = Stem;
}
);
layerId = m01;
shapes = (
{
closed = 1;
nodes = (
(27,0,l),
(596,0,l),
(596,123,l),
(212,123,l),
(212,126,l),
(589,594,l),
(589,715,l),
(52,715,l),
(52,594,l),
(417,594,l),
(417,591,l),
(27,109,l)
);
}
);
width = 626;
}
);
note = Z;
unicode = 90;
},
{
glyphname = bracketleft;
kernRight = bracketleft;
layers = (
{
hints = (
{
horizontal = 1;
place = (-131, 106);
place = (-131, 106);
type = Stem;
},
{
horizontal = 1;
place = (648, 106);
place = (648, 106);
type = Stem;
},
{
place = (64, 131);
place = (64, 131);
type = Stem;
}
);
layerId = m01;
shapes = (
{
closed = 1;
nodes = (
(64,-131,l),
(350,-131,l),
(350,-25,l),
(195,-25,l),
(195,648,l),
(350,648,l),
(350,754,l),
(64,754,l)
);
}
);
width = 382;
}
);
note = bracketleft;
unicode = 91;
},
{
glyphname = backslash;
kernLeft = backslash;
kernRight = backslash;
layers = (
{
hints = (
{
horizontal = 1;
place = (0, 21);
target = up;
type = BottomGhost;
},
{
horizontal = 1;
place = (715, -20);
target = down;
type = TopGhost;
},
{
place = (13, 388);
place = (13, 388);
type = Stem;
}
);
layerId = m01;
shapes = (
{
closed = 1;
nodes = (
(293,0,l),
(401,0,l),
(121,715,l),
(13,715,l)
);
}
);
width = 414;
}
);
note = backslash;
unicode = 92;
},
{
glyphname = bracketright;
kernLeft = bracketright;
layers = (
{
hints = (
{
horizontal = 1;
place = (-131, 106);
place = (-131, 106);
type = Stem;
},
{
horizontal = 1;
place = (648, 106);
place = (648, 106);
type = Stem;
},
{
place = (187, 131);
place = (187, 131);
type = Stem;
}
);
layerId = m01;
shapes = (
{
closed = 1;
nodes = (
(32,-131,l),
(318,-131,l),
(318,754,l),
(32,754,l),
(32,648,l),
(187,648,l),
(187,-25,l),
(32,-25,l)
);
}
);
width = 382;
}
);
note = bracketright;
unicode = 93;
},
{
glyphname = asciicircum;
kernLeft = asciicircum;
kernRight = asciicircum;
layers = (
{
hints = (
{
horizontal = 1;
place = (428, 287);
place = (428, 287);
type = Stem;
},
{
place = (8, 431);
place = (8, 431);
type = Stem;
},
{
horizontal = 1;
place = (597, 118);
place = (597, 118);
type = Stem;
}
);
layerId = m01;
shapes = (
{
closed = 1;
nodes = (
(8,428,l),
(130,428,l),
(223,597,l),
(225,597,l),
(315,428,l),
(439,428,l),
(281,715,l),
(166,715,l)
);
}
);
width = 447;
}
);
note = asciicircum;
unicode = 94;
},
{
glyphname = underscore;
layers = (
{
hints = (
{
horizontal = 1;
place = (-168, 85);
place = (-168, 85);
type = Stem;
},
{
place = (-3, 428);
place = (-3, 428);
type = Stem;
}
);
layerId = m01;
shapes = (
{
closed = 1;
nodes = (
(-3,-168,l),
(425,-168,l),
(425,-83,l),
(-3,-83,l)
);
}
);
width = 423;
}
);
note = underscore;
unicode = 95;
},
{
glyphname = grave;
layers = (
{
hints = (
{
horizontal = 1;
place = (577, 141);
place = (577, 141);
type = Stem;
},
{
place = (102, 214);
place = (102, 214);
type = Stem;
}
);
layerId = m01;
shapes = (
{
closed = 1;
nodes = (
(210,577,l),
(316,577,l),
(261,718,l),
(102,718,l)
);
}
);
width = 500;
}
);
note = grave;
unicode = 96;
},
{
glyphname = a;
kernLeft = a;
kernRight = a;
layers = (
{
hints = (
{
horizontal = 1;
place = (0, 21);
target = up;
type = BottomGhost;
},
{
horizontal = 1;
place = (429, 97);
place = (429, 97);
type = Stem;
},
{
place = (19, 132);
place = (19, 132);
type = Stem;
},
{
place = (352, 128);
place = (352, 128);
type = Stem;
},
{
horizontal = 1;
place = (-12, 95);
place = (-12, 95);
type = Stem;
}
);
layerId = m01;
shapes = (
{
closed = 1;
nodes = (
(498,0,l),
(498,5,l),
(486,14,o),
(480,37,o),
(480,76,cs),
(480,337,ls),
(480,457,o),
(418,526,o),
(264,526,cs),
(114,526,o),
(47,447,o),
(43,357,c),
(164,357,l),
(168,406,o),
(199,429,o),
(263,429,cs),
(320,429,o),
(349,405,o),
(349,368,cs),
(349,329,o),
(310,322,o),
(225,310,cs),
(111,294,o),
(19,258,o),
(19,145,cs),
(19,43,o),
(93,-12,o),
(198,-12,cs),
(286,-12,o),
(323,18,o),
(349,57,c),
(351,57,l),
(354,34,o),
(359,10,o),
(367,0,c)
);
},
{
closed = 1;
nodes = (
(183,83,o),
(151,100,o),
(151,148,cs),
(151,196,o),
(186,212,o),
(257,228,cs),
(291,236,o),
(328,244,o),
(352,258,c),
(352,181,ls),
(352,131,o),
(309,83,o),
(231,83,cs)
);
}
);
width = 522;
}
);
note = a;
unicode = 97;
},
{
glyphname = b;
kernLeft = b;
kernRight = thorn;
layers = (
{
hints = (
{
horizontal = 1;
place = (-15, 114);
place = (-15, 114);
type = Stem;
},
{
horizontal = 1;
place = (417, 110);
place = (417, 110);
type = Stem;
},
{
horizontal = 1;
place = (715, -20);
target = down;
type = TopGhost;
},
{
place = (44, 136);
place = (44, 136);
type = Stem;
},
{
place = (409, 138);
place = (409, 138);
type = Stem;
},
{
horizontal = 1;
place = (0, 99);
place = (0, 99);
type = Stem;
}
);
layerId = m01;
shapes = (
{
closed = 1;
nodes = (
(459,-15,o),
(547,90,o),
(547,256,cs),
(547,416,o),
(455,527,o),
(326,527,cs),
(255,527,o),
(211,494,o),
(183,451,c),
(180,451,l),
(180,715,l),
(44,715,l),
(44,0,l),
(175,0,l),
(175,64,l),
(177,64,l),
(207,16,o),
(258,-15,o),
(330,-15,cs)
);
},
{
closed = 1;
nodes = (
(224,99,o),
(177,159,o),
(177,253,cs),
(177,348,o),
(209,417,o),
(295,417,cs),
(371,417,o),
(409,351,o),
(409,256,cs),
(409,157,o),
(370,99,o),
(300,99,cs)
);
}
);
width = 566;
}
);
note = b;
unicode = 98;
},
{
glyphname = c;
kernLeft = c;
kernRight = c;
layers = (
{
hints = (
{
horizontal = 1;
place = (-15, 109);
place = (-15, 109);
type = Stem;
},
{
horizontal = 1;
place = (418, 109);
place = (418, 109);
type = Stem;
},
{
place = (19, 138);
place = (19, 138);
type = Stem;
}
);
layerId = m01;
shapes = (
{
closed = 1;
nodes = (
(419,-15,o),
(504,72,o),
(513,181,c),
(382,181,l),
(373,123,o),
(334,94,o),
(279,94,cs),
(196,94,o),
(157,159,o),
(157,256,cs),
(157,355,o),
(199,418,o),
(281,418,cs),
(331,418,o),
(366,384,o),
(375,339,c),
(508,339,l),
(490,450,o),
(408,527,o),
(275,527,cs),
(119,527,o),
(19,409,o),
(19,256,cs),
(19,103,o),
(120,-15,o),
(282,-15,cs)
);
}
);
width = 528;
}
);
note = c;
unicode = 99;
},
{
glyphname = d;
kernLeft = d;
kernRight = d;
layers = (
{
hints = (
{
horizontal = 1;
place = (-15, 114);
place = (-15, 114);
type = Stem;
},
{
horizontal = 1;
place = (417, 110);
place = (417, 110);
type = Stem;
},
{
horizontal = 1;
place = (715, -20);
target = down;
type = TopGhost;
},
{
place = (19, 138);
place = (19, 138);
type = Stem;
},
{
place = (386, 136);
place = (386, 136);
type = Stem;
},
{
horizontal = 1;
place = (0, 99);
place = (0, 99);
type = Stem;
}
);
layerId = m01;
shapes = (
{
closed = 1;
nodes = (
(308,-15,o),
(359,18,o),
(389,67,c),
(391,67,l),
(391,0,l),
(522,0,l),
(522,715,l),
(386,715,l),
(386,451,l),
(383,451,l),
(355,494,o),
(310,527,o),
(238,527,cs),
(110,527,o),
(19,416,o),
(19,256,cs),
(19,90,o),
(107,-15,o),
(236,-15,cs)
);
},
{
closed = 1;
nodes = (
(196,99,o),
(157,157,o),
(157,256,cs),
(157,351,o),
(195,417,o),
(270,417,cs),
(357,417,o),
(389,351,o),
(389,253,cs),
(389,159,o),
(347,99,o),
(266,99,cs)
);
}
);
width = 566;
}
);
note = d;
unicode = 100;
},
{
glyphname = e;
kernLeft = c;
kernRight = e;
layers = (
{
hints = (
{
horizontal = 1;
place = (-15, 105);
place = (-15, 105);
type = Stem;
},
{
horizontal = 1;
place = (218, 94);
place = (218, 94);
type = Stem;
},
{
horizontal = 1;
place = (422, 105);
place = (422, 105);
type = Stem;
},
{
place = (19, 134);
place = (19, 134);
type = Stem;
},
{
place = (383, 142);
place = (383, 142);
type = Stem;
}
);
layerId = m01;
shapes = (
{
closed = 1;
nodes = (
(417,-15,o),
(498,62,o),
(517,153,c),
(383,153,l),
(368,114,o),
(337,90,o),
(284,90,cs),
(207,90,o),
(163,139,o),
(153,218,c),
(525,218,l),
(525,401,o),
(437,527,o),
(272,527,cs),
(122,527,o),
(19,409,o),
(19,257,cs),
(19,104,o),
(115,-15,o),
(285,-15,cs)
);
},
{
closed = 1;
nodes = (
(336,422,o),
(379,377,o),
(383,312,c),
(155,312,l),
(167,379,o),
(202,422,o),
(274,422,cs)
);
}
);
width = 544;
}
);
note = e;
unicode = 101;
},
{
glyphname = f;
kernLeft = f;
kernRight = f;
layers = (
{
hints = (
{
horizontal = 1;
place = (0, 21);
target = up;
type = BottomGhost;
},
{
horizontal = 1;
place = (419, 94);
place = (419, 94);
type = Stem;
},
{
horizontal = 1;
place = (714, -20);
target = down;
type = TopGhost;
},
{
place = (84, 136);
place = (84, 136);
type = Stem;
}
);
layerId = m01;
shapes = (
{
closed = 1;
nodes = (
(14,419,l),
(84,419,l),
(84,0,l),
(220,0,l),
(220,419,l),
(312,419,l),
(312,513,l),
(220,513,l),
(220,551,ls),
(220,604,o),
(248,612,o),
(312,609,c),
(312,714,l),
(181,728,o),
(84,684,o),
(84,559,cs),
(84,513,l),
(14,513,l)
);
}
);
width = 330;
}
);
note = f;
unicode = 102;
},
{
glyphname = g;
kernLeft = g;
kernRight = g;
layers = (
{
hints = (
{
horizontal = 1;
place = (-175, 103);
place = (-175, 103);
type = Stem;
},
{
horizontal = 1;
place = (31, 109);
place = (31, 109);
type = Stem;
},
{
horizontal = 1;
place = (418, 109);
place = (418, 109);
type = Stem;
},
{
place = (19, 133);
place = (19, 133);
type = Stem;
},
{
place = (382, 134);
place = (382, 134);
type = Stem;
},
{
horizontal = 1;
place = (418, 95);
place = (418, 95);
type = Stem;
}
);
layerId = m01;
shapes = (
{
closed = 1;
nodes = (
(346,-175,o),
(412,-157,o),
(455,-117,cs),
(493,-82,o),
(516,-33,o),
(516,39,cs),
(516,513,l),
(385,513,l),
(385,459,l),
(383,459,l),
(352,502,o),
(305,527,o),
(241,527,cs),
(111,527,o),
(19,429,o),
(19,276,cs),
(19,121,o),
(131,31,o),
(245,31,cs),
(310,31,o),
(349,57,o),
(379,91,c),
(382,91,l),
(382,35,ls),
(382,-35,o),
(345,-72,o),
(268,-72,cs),
(205,-72,o),
(176,-47,o),
(165,-15,c),
(30,-15,l),
(44,-115,o),
(130,-175,o),
(270,-175,cs)
);
},
{
closed = 1;
nodes = (
(198,140,o),
(152,191,o),
(152,278,cs),
(152,364,o),
(198,418,o),
(267,418,cs),
(349,418,o),
(389,354,o),
(389,279,cs),
(389,203,o),
(354,140,o),
(268,140,cs)
);
}
);
width = 560;
}
);
note = g;
unicode = 103;
},
{
glyphname = h;
kernLeft = b;
kernRight = h;
layers = (
{
hints = (
{
horizontal = 1;
place = (0, 21);
target = up;
type = BottomGhost;
},
{
horizontal = 1;
place = (409, 118);
place = (409, 118);
type = Stem;
},
{
horizontal = 1;
place = (715, -20);
target = down;
type = TopGhost;
},
{
place = (44, 136);
place = (44, 136);
type = Stem;
},
{
place = (373, 136);
place = (373, 136);
type = Stem;
}
);
layerId = m01;
shapes = (
{
closed = 1;
nodes = (
(180,715,l),
(44,715,l),
(44,0,l),
(180,0,l),
(180,291,ls),
(180,361,o),
(224,409,o),
(284,409,cs),
(341,409,o),
(373,370,o),
(373,315,cs),
(373,0,l),
(509,0,l),
(509,335,ls),
(509,447,o),
(438,527,o),
(332,527,cs),
(262,527,o),
(220,500,o),
(183,446,c),
(180,446,l)
);
}
);
width = 549;
}
);
note = h;
unicode = 104;
},
{
glyphname = i;
kernLeft = b;
kernRight = d;
layers = (
{
hints = (
{
horizontal = 1;
place = (0, 21);
target = up;
type = BottomGhost;
},
{
horizontal = 1;
place = (513, -20);
target = down;
type = TopGhost;
},
{
horizontal = 1;
place = (593, 122);
place = (593, 122);
type = Stem;
},
{
place = (44, 136);
place = (44, 136);
type = Stem;
}
);
layerId = m01;
shapes = (
{
closed = 1;
nodes = (
(44,0,l),
(180,0,l),
(180,513,l),
(44,513,l)
);
},
{
closed = 1;
nodes = (
(44,593,l),
(180,593,l),
(180,715,l),
(44,715,l)
);
}
);
width = 224;
}
);
note = i;
unicode = 105;
},
{
glyphname = j;
kernLeft = j;
kernRight = j;
layers = (
{
hints = (
{
horizontal = 1;
place = (-169, 103);
place = (-169, 103);
type = Stem;
},
{
horizontal = 1;
place = (513, -20);
target = down;
type = TopGhost;
},
{
horizontal = 1;
place = (593, 122);
place = (593, 122);
type = Stem;
},
{
place = (44, 136);
place = (44, 136);
type = Stem;
}
);
layerId = m01;
shapes = (
{
closed = 1;
nodes = (
(80,-169,o),
(120,-159,o),
(146,-132,cs),
(168,-110,o),
(180,-80,o),
(180,-20,cs),
(180,513,l),
(44,513,l),
(44,-13,ls),
(44,-60,o),
(14,-65,o),
(-41,-66,c),
(-41,-163,l),
(-20,-167,o),
(11,-169,o),
(36,-169,cs)
);
},
{
closed = 1;
nodes = (
(44,593,l),
(180,593,l),
(180,715,l),
(44,715,l)
);
}
);
width = 224;
}
);
note = j;
unicode = 106;
},
{
glyphname = k;
kernLeft = b;
kernRight = k;
layers = (
{
hints = (
{
horizontal = 1;
place = (0, 21);
target = up;
type = BottomGhost;
},
{
horizontal = 1;
place = (513, -20);
target = down;
type = TopGhost;
},
{
horizontal = 1;
place = (715, -20);
target = down;
type = TopGhost;
},
{
place = (44, 135);
place = (44, 135);
type = Stem;
}
);
layerId = m01;
shapes = (
{
closed = 1;
nodes = (
(382,0,l),
(547,0,l),
(335,318,l),
(524,513,l),
(361,513,l),
(179,319,l),
(179,715,l),
(44,715,l),
(44,0,l),
(179,0,l),
(179,173,l),
(238,234,l)
);
}
);
width = 546;
}
);
note = k;
unicode = 107;
},
{
glyphname = l;
kernLeft = b;
kernRight = d;
layers = (
{
hints = (
{
horizontal = 1;
place = (0, 21);
target = up;
type = BottomGhost;
},
{
horizontal = 1;
place = (715, -20);
target = down;
type = TopGhost;
},
{
place = (46, 136);
place = (46, 136);
type = Stem;
}
);
layerId = m01;
shapes = (
{
closed = 1;
nodes = (
(46,0,l),
(182,0,l),
(182,715,l),
(46,715,l)
);
}
);
width = 228;
}
);
note = l;
unicode = 108;
},
{
glyphname = m;
kernLeft = m;
kernRight = h;
layers = (
{
hints = (
{
horizontal = 1;
place = (0, 21);
target = up;
type = BottomGhost;
},
{
horizontal = 1;
place = (410, 117);
place = (410, 117);
type = Stem;
},
{
place = (44, 136);
place = (44, 136);
type = Stem;
},
{
place = (351, 136);
place = (351, 136);
type = Stem;
},
{
place = (658, 136);
place = (658, 136);
type = Stem;
},
{
horizontal = 1;
place = (410, 103);
place = (410, 103);
type = Stem;
}
);
layerId = m01;
shapes = (
{
closed = 1;
nodes = (
(44,0,l),
(180,0,l),
(180,298,ls),
(180,366,o),
(217,410,o),
(272,410,cs),
(322,410,o),
(351,380,o),
(351,322,cs),
(351,0,l),
(487,0,l),
(487,298,ls),
(487,366,o),
(522,410,o),
(579,410,cs),
(629,410,o),
(658,380,o),
(658,322,cs),
(658,0,l),
(794,0,l),
(794,345,ls),
(794,457,o),
(733,527,o),
(625,527,cs),
(560,527,o),
(506,493,o),
(471,437,c),
(469,437,l),
(444,491,o),
(392,527,o),
(327,527,cs),
(256,527,o),
(206,491,o),
(178,444,c),
(175,444,l),
(175,513,l),
(44,513,l)
);
}
);
width = 834;
}
);
note = m;
unicode = 109;
},
{
glyphname = n;
kernLeft = m;
kernRight = h;
layers = (
{
hints = (
{
horizontal = 1;
place = (0, 21);
target = up;
type = BottomGhost;
},
{
horizontal = 1;
place = (409, 104);
place = (409, 104);
type = Stem;
},
{
place = (44, 136);
place = (44, 136);
type = Stem;
},
{
place = (373, 136);
place = (373, 136);
type = Stem;
},
{
horizontal = 1;
place = (409, 118);
place = (409, 118);
type = Stem;
}
);
layerId = m01;
shapes = (
{
closed = 1;
nodes = (
(177,513,l),
(44,513,l),
(44,0,l),
(180,0,l),
(180,291,ls),
(180,361,o),
(224,409,o),
(284,409,cs),
(341,409,o),
(373,370,o),
(373,315,cs),
(373,0,l),
(509,0,l),
(509,335,ls),
(509,447,o),
(438,527,o),
(332,527,cs),
(262,527,o),
(215,498,o),
(180,443,c),
(177,443,l)
);
}
);
width = 549;
}
);
note = n;
unicode = 110;
},
{
glyphname = o;
kernLeft = c;
kernRight = o;
layers = (
{
hints = (
{
horizontal = 1;
place = (-15, 104);
place = (-15, 104);
type = Stem;
},
{
horizontal = 1;
place = (424, 103);
place = (424, 103);
type = Stem;
},
{
place = (19, 138);
place = (19, 138);
type = Stem;
},
{
place = (417, 138);
place = (417, 138);
type = Stem;
}
);
layerId = m01;
shapes = (
{
closed = 1;
nodes = (
(446,-15,o),
(555,103,o),
(555,256,cs),
(555,409,o),
(446,527,o),
(287,527,cs),
(128,527,o),
(19,409,o),
(19,256,cs),
(19,103,o),
(128,-15,o),
(287,-15,cs)
);
},
{
closed = 1;
nodes = (
(203,89,o),
(157,156,o),
(157,256,cs),
(157,356,o),
(203,424,o),
(287,424,cs),
(370,424,o),
(417,356,o),
(417,256,cs),
(417,156,o),
(370,89,o),
(287,89,cs)
);
}
);
width = 574;
}
);
note = o;
unicode = 111;
},
{
glyphname = p;
kernLeft = p;
kernRight = thorn;
layers = (
{
hints = (
{
horizontal = 1;
place = (-168, 21);
target = up;
type = BottomGhost;
},
{
horizontal = 1;
place = (-15, 113);
place = (-15, 113);
type = Stem;
},
{
horizontal = 1;
place = (417, 110);
place = (417, 110);
type = Stem;
},
{
place = (44, 136);
place = (44, 136);
type = Stem;
},
{
place = (414, 138);
place = (414, 138);
type = Stem;
},
{
horizontal = 1;
place = (417, 96);
place = (417, 96);
type = Stem;
}
);
layerId = m01;
shapes = (
{
closed = 1;
nodes = (
(44,-168,l),
(180,-168,l),
(180,58,l),
(182,58,l),
(211,14,o),
(258,-15,o),
(330,-15,cs),
(462,-15,o),
(552,90,o),
(552,256,cs),
(552,416,o),
(465,527,o),
(329,527,cs),
(259,527,o),
(211,494,o),
(178,449,c),
(175,449,l),
(175,513,l),
(44,513,l)
);
},
{
closed = 1;
nodes = (
(220,98,o),
(177,159,o),
(177,252,cs),
(177,344,o),
(211,417,o),
(296,417,cs),
(380,417,o),
(414,349,o),
(414,252,cs),
(414,155,o),
(370,98,o),
(301,98,cs)
);
}
);
width = 571;
}
);
note = p;
unicode = 112;
},
{
glyphname = q;
kernLeft = d;
kernRight = q;
layers = (
{
hints = (
{
horizontal = 1;
place = (-168, 21);
target = up;
type = BottomGhost;
},
{
horizontal = 1;
place = (-15, 116);
place = (-15, 116);
type = Stem;
},
{
horizontal = 1;
place = (419, 108);
place = (419, 108);
type = Stem;
},
{
place = (27, 138);
place = (27, 138);
type = Stem;
},
{
place = (391, 136);
place = (391, 136);
type = Stem;
},
{
horizontal = 1;
place = (419, 94);
place = (419, 94);
type = Stem;
}
);
layerId = m01;
shapes = (
{
closed = 1;
nodes = (
(391,-168,l),
(527,-168,l),
(527,513,l),
(396,513,l),
(396,449,l),
(393,449,l),
(362,498,o),
(319,527,o),
(249,527,cs),
(113,527,o),
(27,416,o),
(27,256,cs),
(27,90,o),
(125,-15,o),
(249,-15,cs),
(318,-15,o),
(364,17,o),
(389,58,c),
(391,58,l)
);
},
{
closed = 1;
nodes = (
(206,101,o),
(165,155,o),
(165,252,cs),
(165,349,o),
(194,419,o),
(279,419,cs),
(361,419,o),
(394,345,o),
(394,252,cs),
(394,159,o),
(350,101,o),
(278,101,cs)
);
}
);
width = 571;
}
);
note = q;
unicode = 113;
},
{
glyphname = r;
kernLeft = m;
kernRight = r;
layers = (
{
hints = (
{
horizontal = 1;
place = (0, 21);
target = up;
type = BottomGhost;
},
{
horizontal = 1;
place = (513, -20);
target = down;
type = TopGhost;
},
{
place = (44, 136);
place = (44, 136);
type = Stem;
},
{
horizontal = 1;
place = (515, -20);
target = down;
type = TopGhost;
},
{
horizontal = 1;
place = (519, -20);
target = down;
type = TopGhost;
}
);
layerId = m01;
shapes = (
{
closed = 1;
nodes = (
(175,513,l),
(44,513,l),
(44,0,l),
(180,0,l),
(180,250,ls),
(180,358,o),
(244,405,o),
(333,396,cs),
(336,396,l),
(336,515,l),
(328,518,o),
(319,519,o),
(304,519,cs),
(244,519,o),
(209,489,o),
(178,431,c),
(175,431,l)
);
}
);
width = 351;
}
);
note = r;
unicode = 114;
},
{
glyphname = s;
kernLeft = scaron;
kernRight = scaron;
layers = (
{
hints = (
{
horizontal = 1;
place = (-15, 96);
place = (-15, 96);
type = Stem;
},
{
horizontal = 1;
place = (432, 95);
place = (432, 95);
type = Stem;
},
{
place = (27, 119);
place = (27, 119);
type = Stem;
},
{
place = (344, 124);
place = (344, 124);
type = Stem;
}
);
layerId = m01;
shapes = (
{
closed = 1;
nodes = (
(380,-15,o),
(468,47,o),
(468,150,cs),
(468,270,o),
(373,294,o),
(287,312,cs),
(214,327,o),
(146,331,o),
(146,375,cs),
(146,412,o),
(181,432,o),
(234,432,cs),
(292,432,o),
(327,412,o),
(333,357,c),
(456,357,l),
(446,460,o),
(371,527,o),
(236,527,cs),
(119,527,o),
(27,474,o),
(27,363,cs),
(27,251,o),
(117,226,o),
(209,208,cs),
(279,194,o),
(344,189,o),
(344,140,cs),
(344,104,o),
(310,81,o),
(250,81,cs),
(189,81,o),
(147,107,o),
(138,166,c),
(12,166,l),
(20,57,o),
(103,-15,o),
(252,-15,cs)
);
}
);
width = 485;
}
);
note = s;
unicode = 115;
},
{
glyphname = t;
kernLeft = t;
kernRight = t;
layers = (
{
hints = (
{
horizontal = 1;
place = (-1, 101);
place = (-1, 101);
type = Stem;
},
{
horizontal = 1;
place = (423, 90);
place = (423, 90);
type = Stem;
},
{
place = (85, 133);
place = (85, 133);
type = Stem;
}
);
layerId = m01;
shapes = (
{
closed = 1;
nodes = (
(14,423,l),
(85,423,l),
(85,122,ls),
(85,25,o),
(158,-1,o),
(224,-1,cs),
(278,-1,o),
(309,1,o),
(309,1,c),
(309,101,l),
(309,101,o),
(286,100,o),
(269,100,cs),
(239,100,o),
(218,113,o),
(218,151,cs),
(218,423,l),
(306,423,l),
(306,513,l),
(218,513,l),
(218,673,l),
(85,673,l),
(85,513,l),
(14,513,l)
);
}
);
width = 332;
}
);
note = t;
unicode = 116;
},
{
glyphname = u;
kernLeft = u;
kernRight = u;
layers = (
{
hints = (
{
horizontal = 1;
place = (0, 101);
place = (0, 101);
type = Stem;
},
{
horizontal = 1;
place = (513, -20);
target = down;
type = TopGhost;
},
{
place = (40, 135);
place = (40, 135);
type = Stem;
},
{
place = (363, 136);
place = (363, 136);
type = Stem;
},
{
horizontal = 1;
place = (-14, 115);
place = (-14, 115);
type = Stem;
}
);
layerId = m01;
shapes = (
{
closed = 1;
nodes = (
(499,0,l),
(499,513,l),
(363,513,l),
(363,217,ls),
(363,149,o),
(324,101,o),
(260,101,cs),
(202,101,o),
(175,134,o),
(175,194,cs),
(175,513,l),
(40,513,l),
(40,171,ls),
(40,59,o),
(104,-14,o),
(218,-14,cs),
(290,-14,o),
(330,13,o),
(365,60,c),
(368,60,l),
(368,0,l)
);
}
);
width = 543;
}
);
note = u;
unicode = 117;
},
{
glyphname = v;
kernLeft = v;
kernRight = v;
layers = (
{
hints = (
{
horizontal = 1;
place = (0, 21);
target = up;
type = BottomGhost;
},
{
horizontal = 1;
place = (513, -20);
target = down;
type = TopGhost;
},
{
place = (2, 487);
place = (2, 487);
type = Stem;
}
);
layerId = m01;
shapes = (
{
closed = 1;
nodes = (
(180,0,l),
(310,0,l),
(489,513,l),
(353,513,l),
(269,247,ls),
(254,198,o),
(247,165,o),
(247,165,c),
(245,165,l),
(245,165,o),
(237,198,o),
(222,247,cs),
(140,513,l),
(2,513,l)
);
}
);
width = 491;
}
);
note = v;
unicode = 118;
},
{
glyphname = w;
kernLeft = w;
kernRight = w;
layers = (
{
hints = (
{
horizontal = 1;
place = (0, 21);
target = up;
type = BottomGhost;
},
{
horizontal = 1;
place = (513, -20);
target = down;
type = TopGhost;
},
{
place = (4, 737);
place = (4, 737);
type = Stem;
},
{
horizontal = 1;
place = (179, 334);
place = (179, 334);
type = Stem;
}
);
layerId = m01;
shapes = (
{
closed = 1;
nodes = (
(154,0,l),
(277,0,l),
(347,252,ls),
(358,293,o),
(371,341,o),
(371,341,c),
(373,341,l),
(373,341,o),
(385,293,o),
(396,252,cs),
(464,0,l),
(588,0,l),
(741,513,l),
(609,513,l),
(544,275,ls),
(533,233,o),
(521,179,o),
(521,179,c),
(519,179,l),
(519,179,o),
(506,233,o),
(495,276,cs),
(428,513,l),
(312,513,l),
(248,276,ls),
(237,234,o),
(226,179,o),
(226,179,c),
(224,179,l),
(224,179,o),
(212,233,o),
(201,275,cs),
(139,513,l),
(4,513,l)
);
}
);
width = 745;
}
);
note = w;
unicode = 119;
},
{
glyphname = x;
kernLeft = x;
kernRight = x;
layers = (
{
hints = (
{
horizontal = 1;
place = (0, 21);
target = up;
type = BottomGhost;
},
{
horizontal = 1;
place = (513, -20);
target = down;
type = TopGhost;
},
{
place = (8, 519);
place = (8, 519);
type = Stem;
}
);
layerId = m01;
shapes = (
{
closed = 1;
nodes = (
(8,0,l),
(157,0,l),
(268,170,l),
(270,170,l),
(365,0,l),
(527,0,l),
(344,273,l),
(503,513,l),
(362,513,l),
(276,366,l),
(274,366,l),
(183,513,l),
(28,513,l),
(195,272,l)
);
}
);
width = 535;
}
);
note = x;
unicode = 120;
},
{
glyphname = y;
kernLeft = yacute;
kernRight = yacute;
layers = (
{
hints = (
{
horizontal = 1;
place = (-168, 107);
place = (-168, 107);
type = Stem;
},
{
horizontal = 1;
place = (513, -20);
target = down;
type = TopGhost;
},
{
place = (2, 493);
place = (2, 493);
type = Stem;
}
);
layerId = m01;
shapes = (
{
closed = 1;
nodes = (
(55,-168,l),
(135,-168,ls),
(239,-168,o),
(277,-127,o),
(316,-13,cs),
(495,513,l),
(358,513,l),
(286,282,ls),
(270,235,o),
(256,170,o),
(256,170,c),
(254,170,l),
(254,170,o),
(237,235,o),
(221,282,cs),
(145,513,l),
(2,513,l),
(140,148,ls),
(169,70,o),
(179,37,o),
(179,9,cs),
(179,-33,o),
(157,-61,o),
(103,-61,cs),
(55,-61,l)
);
}
);
width = 497;
}
);
note = y;
unicode = 121;
},
{
glyphname = z;
kernLeft = zcaron;
kernRight = zcaron;
layers = (
{
hints = (
{
horizontal = 1;
place = (0, 109);
place = (0, 109);
type = Stem;
},
{
horizontal = 1;
place = (406, 107);
place = (406, 107);
type = Stem;
},
{
place = (27, 164);
place = (27, 164);
type = Stem;
},
{
place = (291, 158);
place = (291, 158);
type = Stem;
}
);
layerId = m01;
shapes = (
{
closed = 1;
nodes = (
(27,0,l),
(462,0,l),
(462,109,l),
(191,109,l),
(191,112,l),
(449,404,l),
(449,513,l),
(57,513,l),
(57,406,l),
(291,406,l),
(291,403,l),
(27,104,l)
);
}
);
width = 485;
}
);
note = z;
unicode = 122;
},
{
glyphname = braceleft;
kernRight = bracketleft;
layers = (
{
hints = (
{
horizontal = 1;
place = (-131, 106);
place = (-131, 106);
type = Stem;
},
{
horizontal = 1;
place = (263, 100);
place = (263, 100);
type = Stem;
},
{
horizontal = 1;
place = (648, 106);
place = (648, 106);
type = Stem;
},
{
place = (108, 131);
place = (108, 131);
type = Stem;
},
{
place = (25, 154);
place = (25, 154);
type = Stem;
}
);
layerId = m01;
shapes = (
{
closed = 1;
nodes = (
(350,-131,l),
(350,-25,l),
(323,-25,ls),
(267,-25,o),
(239,-10,o),
(239,54,cs),
(239,209,ls),
(239,270,o),
(220,296,o),
(179,312,c),
(179,315,l),
(220,330,o),
(239,357,o),
(239,418,cs),
(239,570,ls),
(239,635,o),
(267,648,o),
(323,648,cs),
(350,648,l),
(350,754,l),
(318,754,ls),
(180,754,o),
(108,714,o),
(108,570,cs),
(108,440,ls),
(108,390,o),
(87,366,o),
(25,363,c),
(25,263,l),
(87,261,o),
(108,237,o),
(108,186,cs),
(108,54,ls),
(108,-90,o),
(180,-131,o),
(318,-131,cs)
);
}
);
width = 382;
}
);
note = braceleft;
unicode = 123;
},
{
glyphname = bar;
layers = (
{
hints = (
{
horizontal = 1;
place = (-131, 885);
place = (-131, 885);
type = Stem;
},
{
place = (64, 83);
place = (64, 83);
type = Stem;
}
);
layerId = m01;
shapes = (
{
closed = 1;
nodes = (
(64,-131,l),
(147,-131,l),
(147,754,l),
(64,754,l)
);
}
);
width = 210;
}
);
note = bar;
unicode = 124;
},
{
glyphname = braceright;
kernLeft = bracketright;
layers = (
{
hints = (
{
horizontal = 1;
place = (-131, 106);
place = (-131, 106);
type = Stem;
},
{
horizontal = 1;
place = (263, 100);
place = (263, 100);
type = Stem;
},
{
horizontal = 1;
place = (648, 106);
place = (648, 106);
type = Stem;
},
{
place = (143, 131);
place = (143, 131);
type = Stem;
},
{
place = (203, 154);
place = (203, 154);
type = Stem;
}
);
layerId = m01;
shapes = (
{
closed = 1;
nodes = (
(32,-131,l),
(64,-131,ls),
(202,-131,o),
(274,-91,o),
(274,53,cs),
(274,186,ls),
(274,236,o),
(295,260,o),
(357,263,c),
(357,363,l),
(295,365,o),
(274,389,o),
(274,440,cs),
(274,569,ls),
(274,713,o),
(202,754,o),
(64,754,cs),
(32,754,l),
(32,648,l),
(59,648,ls),
(115,648,o),
(143,633,o),
(143,569,cs),
(143,417,ls),
(143,356,o),
(162,330,o),
(203,314,c),
(203,311,l),
(162,296,o),
(143,269,o),
(143,208,cs),
(143,53,ls),
(143,-12,o),
(115,-25,o),
(59,-25,cs),
(32,-25,l)
);
}
);
width = 382;
}
);
note = braceright;
unicode = 125;
},
{
glyphname = asciitilde;
layers = (
{
hints = (
{
horizontal = 1;
place = (250, 156);
place = (250, 156);
type = Stem;
},
{
place = (32, 90);
place = (32, 90);
type = Stem;
},
{
place = (318, 90);
place = (318, 90);
type = Stem;
},
{
horizontal = 1;
place = (253, 152);
place = (253, 152);
type = Stem;
}
);
layerId = m01;
shapes = (
{
closed = 1;
nodes = (
(122,250,l),
(125,279,o),
(136,289,o),
(157,289,cs),
(189,289,o),
(242,253,o),
(299,253,cs),
(372,253,o),
(407,310,o),
(408,405,c),
(318,405,l),
(316,378,o),
(307,369,o),
(283,369,cs),
(249,369,o),
(203,406,o),
(146,406,cs),
(82,406,o),
(33,359,o),
(32,250,c)
);
}
);
width = 426;
}
);
note = asciitilde;
unicode = 126;
},
{
glyphname = Adieresis;
kernLeft = A;
kernRight = A;
layers = (
{
hints = (
{
horizontal = 1;
place = (0, 21);
target = up;
type = BottomGhost;
},
{
horizontal = 1;
place = (152, 111);
place = (152, 111);
type = Stem;
},
{
horizontal = 1;
place = (715, -20);
target = down;
type = TopGhost;
},
{
horizontal = 1;
place = (753, 114);
place = (753, 114);
type = Stem;
},
{
place = (162, 128);
place = (162, 128);
type = Stem;
},
{
place = (365, 128);
place = (365, 128);
type = Stem;
},
{
horizontal = 1;
place = (579, 136);
place = (579, 136);
type = Stem;
}
);
layerId = m01;
shapes = (
{
closed = 1;
nodes = (
(3,0,l),
(150,0,l),
(197,152,l),
(455,152,l),
(503,0,l),
(654,0,l),
(402,715,l),
(252,715,l)
);
},
{
closed = 1;
nodes = (
(295,469,ls),
(307,507,o),
(325,579,o),
(325,579,c),
(327,579,l),
(327,579,o),
(344,507,o),
(356,469,cs),
(420,263,l),
(231,263,l)
);
},
{
closed = 1;
nodes = (
(365,753,l),
(493,753,l),
(493,867,l),
(365,867,l)
);
},
{
closed = 1;
nodes = (
(162,753,l),
(290,753,l),
(290,867,l),
(162,867,l)
);
}
);
width = 659;
}
);
note = Adieresis;
unicode = 196;
},
{
glyphname = Aring;
kernLeft = A;
kernRight = A;
layers = (
{
hints = (
{
horizontal = 1;
place = (0, 21);
target = up;
type = BottomGhost;
},
{
horizontal = 1;
place = (152, 111);
place = (152, 111);
type = Stem;
},
{
horizontal = 1;
place = (715, -20);
target = down;
type = TopGhost;
},
{
horizontal = 1;
place = (883, 47);
place = (883, 47);
type = Stem;
},
{
place = (230, 52);
place = (230, 52);
type = Stem;
},
{
place = (372, 52);
place = (372, 52);
type = Stem;
},
{
horizontal = 1;
place = (579, 136);
place = (579, 136);
type = Stem;
},
{
horizontal = 1;
place = (742, 47);
place = (742, 47);
type = Stem;
}
);
layerId = m01;
shapes = (
{
closed = 1;
nodes = (
(3,0,l),
(150,0,l),
(197,152,l),
(455,152,l),
(503,0,l),
(654,0,l),
(402,715,l),
(252,715,l)
);
},
{
closed = 1;
nodes = (
(295,469,ls),
(307,507,o),
(325,579,o),
(325,579,c),
(327,579,l),
(327,579,o),
(344,507,o),
(356,469,cs),
(420,263,l),
(231,263,l)
);
},
{
closed = 1;
nodes = (
(380,742,o),
(424,783,o),
(424,836,cs),
(424,888,o),
(380,930,o),
(327,930,cs),
(274,930,o),
(230,888,o),
(230,836,cs),
(230,783,o),
(274,742,o),
(327,742,cs)
);
},
{
closed = 1;
nodes = (
(301,789,o),
(282,810,o),
(282,836,cs),
(282,862,o),
(301,883,o),
(327,883,cs),
(353,883,o),
(372,862,o),
(372,836,cs),
(372,810,o),
(353,789,o),
(327,789,cs)
);
}
);
width = 659;
}
);
note = Aring;
unicode = 197;
},
{
glyphname = Ccedilla;
kernLeft = C;
kernRight = C;
layers = (
{
hints = (
{
horizontal = 1;
place = (-192, 46);
place = (-192, 46);
type = Stem;
},
{
horizontal = 1;
place = (-86, 34);
place = (-86, 34);
type = Stem;
},
{
horizontal = 1;
place = (-13, 21);
target = up;
type = BottomGhost;
},
{
horizontal = 1;
place = (607, 122);
place = (607, 122);
type = Stem;
},
{
place = (24, 148);
place = (24, 148);
type = Stem;
},
{
place = (370, 82);
place = (370, 82);
type = Stem;
},
{
horizontal = 1;
place = (-13, 117);
place = (-13, 117);
type = Stem;
}
);
layerId = m01;
shapes = (
{
closed = 1;
nodes = (
(399,-192,o),
(452,-164,o),
(452,-116,cs),
(452,-63,o),
(399,-44,o),
(346,-52,c),
(346,-50,l),
(388,-14,l),
(476,-10,o),
(539,18,o),
(585,61,cs),
(633,106,o),
(660,167,o),
(664,230,c),
(522,230,l),
(513,155,o),
(453,104,o),
(368,104,cs),
(248,104,o),
(172,209,o),
(172,355,cs),
(172,497,o),
(235,607,o),
(367,607,cs),
(451,607,o),
(505,560,o),
(518,488,c),
(662,488,l),
(647,624,o),
(543,729,o),
(367,729,cs),
(156,729,o),
(24,567,o),
(24,355,cs),
(24,152,o),
(151,3,o),
(333,-13,c),
(276,-71,l),
(292,-93,l),
(303,-89,o),
(314,-86,o),
(329,-86,cs),
(351,-86,o),
(370,-96,o),
(370,-115,cs),
(370,-136,o),
(343,-146,o),
(313,-146,cs),
(289,-146,o),
(263,-140,o),
(243,-131,c),
(225,-163,l),
(251,-180,o),
(286,-192,o),
(331,-192,cs)
);
}
);
width = 684;
}
);
note = Ccedilla;
unicode = 199;
},
{
glyphname = Eacute;
kernRight = E;
layers = (
{
hints = (
{
horizontal = 1;
place = (0, 121);
place = (0, 121);
type = Stem;
},
{
horizontal = 1;
place = (314, 119);
place = (314, 119);
type = Stem;
},
{
horizontal = 1;
place = (593, 122);
place = (593, 122);
type = Stem;
},
{
horizontal = 1;
place = (753, 125);
place = (753, 125);
type = Stem;
},
{
place = (55, 145);
place = (55, 145);
type = Stem;
}
);
layerId = m01;
shapes = (
{
closed = 1;
nodes = (
(55,0,l),
(584,0,l),
(584,121,l),
(200,121,l),
(200,314,l),
(534,314,l),
(534,433,l),
(200,433,l),
(200,593,l),
(581,593,l),
(581,715,l),
(55,715,l)
);
},
{
closed = 1;
nodes = (
(472,878,l),
(313,878,l),
(271,753,l),
(377,753,l)
);
}
);
width = 619;
}
);
note = Eacute;
unicode = 201;
},
{
glyphname = Ntilde;
kernRight = H;
layers = (
{
hints = (
{
horizontal = 1;
place = (0, 21);
target = up;
type = BottomGhost;
},
{
horizontal = 1;
place = (715, -20);
target = down;
type = TopGhost;
},
{
horizontal = 1;
place = (755, 116);
place = (755, 116);
type = Stem;
},
{
place = (55, 143);
place = (55, 143);
type = Stem;
},
{
place = (488, 143);
place = (488, 143);
type = Stem;
},
{
place = (428, 72);
place = (428, 72);
type = Stem;
},
{
horizontal = 1;
place = (757, 118);
place = (757, 118);
type = Stem;
},
{
place = (200, 72);
place = (200, 72);
type = Stem;
}
);
layerId = m01;
shapes = (
{
closed = 1;
nodes = (
(55,0,l),
(198,0,l),
(198,369,ls),
(198,419,o),
(194,494,o),
(194,494,c),
(196,494,l),
(196,494,o),
(224,433,o),
(247,395,cs),
(491,0,l),
(631,0,l),
(631,715,l),
(488,715,l),
(488,340,ls),
(488,290,o),
(492,216,o),
(492,216,c),
(490,216,l),
(490,216,o),
(463,277,o),
(440,316,cs),
(202,715,l),
(55,715,l)
);
},
{
closed = 1;
nodes = (
(466,755,o),
(500,803,o),
(500,871,c),
(428,871,l),
(424,852,o),
(418,840,o),
(399,840,cs),
(372,840,o),
(339,875,o),
(290,875,cs),
(240,875,o),
(200,835,o),
(200,757,c),
(272,757,l),
(275,776,o),
(285,788,o),
(299,788,cs),
(326,788,o),
(360,755,o),
(408,755,cs)
);
}
);
width = 686;
}
);
note = Ntilde;
unicode = 209;
},
{
glyphname = Odieresis;
kernLeft = C;
kernRight = O;
layers = (
{
hints = (
{
horizontal = 1;
place = (-16, 119);
place = (-16, 119);
type = Stem;
},
{
horizontal = 1;
place = (610, 119);
place = (610, 119);
type = Stem;
},
{
place = (24, 148);
place = (24, 148);
type = Stem;
},
{
place = (203, 128);
place = (203, 128);
type = Stem;
},
{
place = (406, 128);
place = (406, 128);
type = Stem;
},
{
place = (565, 148);
place = (565, 148);
type = Stem;
},
{
horizontal = 1;
place = (753, 114);
place = (753, 114);
type = Stem;
}
);
layerId = m01;
shapes = (
{
closed = 1;
nodes = (
(580,-16,o),
(713,142,o),
(713,356,cs),
(713,570,o),
(580,729,o),
(369,729,cs),
(158,729,o),
(24,570,o),
(24,356,cs),
(24,142,o),
(158,-16,o),
(369,-16,cs)
);
},
{
closed = 1;
nodes = (
(239,103,o),
(172,214,o),
(172,356,cs),
(172,499,o),
(239,610,o),
(370,610,cs),
(501,610,o),
(565,499,o),
(565,356,cs),
(565,214,o),
(501,103,o),
(370,103,cs)
);
},
{
closed = 1;
nodes = (
(406,753,l),
(534,753,l),
(534,867,l),
(406,867,l)
);
},
{
closed = 1;
nodes = (
(203,753,l),
(331,753,l),
(331,867,l),
(203,867,l)
);
}
);
width = 737;
}
);
note = Odieresis;
unicode = 214;
},
{
glyphname = Udieresis;
kernLeft = U;
kernRight = U;
layers = (
{
hints = (
{
horizontal = 1;
place = (-12, 116);
place = (-12, 116);
type = Stem;
},
{
horizontal = 1;
place = (715, -20);
target = down;
type = TopGhost;
},
{
horizontal = 1;
place = (753, 114);
place = (753, 114);
type = Stem;
},
{
place = (49, 145);
place = (49, 145);
type = Stem;
},
{
place = (463, 145);
place = (463, 145);
type = Stem;
},
{
place = (365, 128);
place = (365, 128);
type = Stem;
},
{
place = (162, 128);
place = (162, 128);
type = Stem;
}
);
layerId = m01;
shapes = (
{
closed = 1;
nodes = (
(514,-12,o),
(608,77,o),
(608,230,cs),
(608,715,l),
(463,715,l),
(463,232,ls),
(463,158,o),
(420,104,o),
(328,104,cs),
(231,104,o),
(194,156,o),
(194,230,cs),
(194,715,l),
(49,715,l),
(49,230,ls),
(49,75,o),
(146,-12,o),
(331,-12,cs)
);
},
{
closed = 1;
nodes = (
(365,753,l),
(493,753,l),
(493,867,l),
(365,867,l)
);
},
{
closed = 1;
nodes = (
(162,753,l),
(290,753,l),
(290,867,l),
(162,867,l)
);
}
);
width = 657;
}
);
note = Udieresis;
unicode = 220;
},
{
glyphname = aacute;
kernLeft = a;
kernRight = a;
layers = (
{
hints = (
{
horizontal = 1;
place = (0, 21);
target = up;
type = BottomGhost;
},
{
horizontal = 1;
place = (429, 97);
place = (429, 97);
type = Stem;
},
{
horizontal = 1;
place = (577, 141);
place = (577, 141);
type = Stem;
},
{
place = (19, 132);
place = (19, 132);
type = Stem;
},
{
place = (352, 128);
place = (352, 128);
type = Stem;
},
{
horizontal = 1;
place = (-12, 95);
place = (-12, 95);
type = Stem;
}
);
layerId = m01;
shapes = (
{
closed = 1;
nodes = (
(498,0,l),
(498,5,l),
(486,14,o),
(480,37,o),
(480,76,cs),
(480,337,ls),
(480,457,o),
(418,526,o),
(264,526,cs),
(114,526,o),
(47,447,o),
(43,357,c),
(164,357,l),
(168,406,o),
(199,429,o),
(263,429,cs),
(320,429,o),
(349,405,o),
(349,368,cs),
(349,329,o),
(310,322,o),
(225,310,cs),
(111,294,o),
(19,258,o),
(19,145,cs),
(19,43,o),
(93,-12,o),
(198,-12,cs),
(286,-12,o),
(323,18,o),
(349,57,c),
(351,57,l),
(354,34,o),
(359,10,o),
(367,0,c)
);
},
{
closed = 1;
nodes = (
(183,83,o),
(151,100,o),
(151,148,cs),
(151,196,o),
(186,212,o),
(257,228,cs),
(291,236,o),
(328,244,o),
(352,258,c),
(352,181,ls),
(352,131,o),
(309,83,o),
(231,83,cs)
);
},
{
closed = 1;
nodes = (
(425,718,l),
(266,718,l),
(211,577,l),
(317,577,l)
);
}
);
width = 522;
}
);
note = aacute;
unicode = 225;
},
{
glyphname = agrave;
kernLeft = a;
kernRight = a;
layers = (
{
hints = (
{
horizontal = 1;
place = (0, 21);
target = up;
type = BottomGhost;
},
{
horizontal = 1;
place = (429, 97);
place = (429, 97);
type = Stem;
},
{
horizontal = 1;
place = (577, 141);
place = (577, 141);
type = Stem;
},
{
place = (19, 132);
place = (19, 132);
type = Stem;
},
{
place = (352, 128);
place = (352, 128);
type = Stem;
},
{
horizontal = 1;
place = (-12, 95);
place = (-12, 95);
type = Stem;
}
);
layerId = m01;
shapes = (
{
closed = 1;
nodes = (
(498,0,l),
(498,5,l),
(486,14,o),
(480,37,o),
(480,76,cs),
(480,337,ls),
(480,457,o),
(418,526,o),
(264,526,cs),
(114,526,o),
(47,447,o),
(43,357,c),
(164,357,l),
(168,406,o),
(199,429,o),
(263,429,cs),
(320,429,o),
(349,405,o),
(349,368,cs),
(349,329,o),
(310,322,o),
(225,310,cs),
(111,294,o),
(19,258,o),
(19,145,cs),
(19,43,o),
(93,-12,o),
(198,-12,cs),
(286,-12,o),
(323,18,o),
(349,57,c),
(351,57,l),
(354,34,o),
(359,10,o),
(367,0,c)
);
},
{
closed = 1;
nodes = (
(183,83,o),
(151,100,o),
(151,148,cs),
(151,196,o),
(186,212,o),
(257,228,cs),
(291,236,o),
(328,244,o),
(352,258,c),
(352,181,ls),
(352,131,o),
(309,83,o),
(231,83,cs)
);
},
{
closed = 1;
nodes = (
(217,577,l),
(323,577,l),
(268,718,l),
(109,718,l)
);
}
);
width = 522;
}
);
note = agrave;
unicode = 224;
},
{
glyphname = acircumflex;
kernLeft = a;
kernRight = a;
layers = (
{
hints = (
{
horizontal = 1;
place = (0, 21);
target = up;
type = BottomGhost;
},
{
horizontal = 1;
place = (429, 97);
place = (429, 97);
type = Stem;
},
{
horizontal = 1;
place = (581, 126);
place = (581, 126);
type = Stem;
},
{
place = (19, 132);
place = (19, 132);
type = Stem;
},
{
place = (352, 128);
place = (352, 128);
type = Stem;
},
{
horizontal = 1;
place = (-12, 95);
place = (-12, 95);
type = Stem;
}
);
layerId = m01;
shapes = (
{
closed = 1;
nodes = (
(498,0,l),
(498,5,l),
(486,14,o),
(480,37,o),
(480,76,cs),
(480,337,ls),
(480,457,o),
(418,526,o),
(264,526,cs),
(114,526,o),
(47,447,o),
(43,357,c),
(164,357,l),
(168,406,o),
(199,429,o),
(263,429,cs),
(320,429,o),
(349,405,o),
(349,368,cs),
(349,329,o),
(310,322,o),
(225,310,cs),
(111,294,o),
(19,258,o),
(19,145,cs),
(19,43,o),
(93,-12,o),
(198,-12,cs),
(286,-12,o),
(323,18,o),
(349,57,c),
(351,57,l),
(354,34,o),
(359,10,o),
(367,0,c)
);
},
{
closed = 1;
nodes = (
(183,83,o),
(151,100,o),
(151,148,cs),
(151,196,o),
(186,212,o),
(257,228,cs),
(291,236,o),
(328,244,o),
(352,258,c),
(352,181,ls),
(352,131,o),
(309,83,o),
(231,83,cs)
);
},
{
closed = 1;
nodes = (
(97,581,l),
(216,581,l),
(265,650,l),
(267,650,l),
(315,581,l),
(433,581,l),
(337,707,l),
(191,707,l)
);
}
);
width = 522;
}
);
note = acircumflex;
unicode = 226;
},
{
glyphname = adieresis;
kernLeft = a;
kernRight = a;
layers = (
{
hints = (
{
horizontal = 1;
place = (0, 21);
target = up;
type = BottomGhost;
},
{
horizontal = 1;
place = (429, 97);
place = (429, 97);
type = Stem;
},
{
horizontal = 1;
place = (581, 114);
place = (581, 114);
type = Stem;
},
{
place = (19, 132);
place = (19, 132);
type = Stem;
},
{
place = (352, 128);
place = (352, 128);
type = Stem;
},
{
horizontal = 1;
place = (-12, 95);
place = (-12, 95);
type = Stem;
},
{
place = (90, 128);
place = (90, 128);
type = Stem;
},
{
place = (313, 128);
place = (313, 128);
type = Stem;
}
);
layerId = m01;
shapes = (
{
closed = 1;
nodes = (
(498,0,l),
(498,5,l),
(486,14,o),
(480,37,o),
(480,76,cs),
(480,337,ls),
(480,457,o),
(418,526,o),
(264,526,cs),
(114,526,o),
(47,447,o),
(43,357,c),
(164,357,l),
(168,406,o),
(199,429,o),
(263,429,cs),
(320,429,o),
(349,405,o),
(349,368,cs),
(349,329,o),
(310,322,o),
(225,310,cs),
(111,294,o),
(19,258,o),
(19,145,cs),
(19,43,o),
(93,-12,o),
(198,-12,cs),
(286,-12,o),
(323,18,o),
(349,57,c),
(351,57,l),
(354,34,o),
(359,10,o),
(367,0,c)
);
},
{
closed = 1;
nodes = (
(183,83,o),
(151,100,o),
(151,148,cs),
(151,196,o),
(186,212,o),
(257,228,cs),
(291,236,o),
(328,244,o),
(352,258,c),
(352,181,ls),
(352,131,o),
(309,83,o),
(231,83,cs)
);
},
{
closed = 1;
nodes = (
(313,581,l),
(441,581,l),
(441,695,l),
(313,695,l)
);
},
{
closed = 1;
nodes = (
(90,581,l),
(218,581,l),
(218,695,l),
(90,695,l)
);
}
);
width = 522;
}
);
note = adieresis;
unicode = 228;
},
{
glyphname = atilde;
kernLeft = a;
kernRight = a;
layers = (
{
hints = (
{
horizontal = 1;
place = (0, 21);
target = up;
type = BottomGhost;
},
{
horizontal = 1;
place = (429, 97);
place = (429, 97);
type = Stem;
},
{
horizontal = 1;
place = (575, 116);
place = (575, 116);
type = Stem;
},
{
place = (19, 132);
place = (19, 132);
type = Stem;
},
{
place = (352, 128);
place = (352, 128);
type = Stem;
},
{
horizontal = 1;
place = (-12, 95);
place = (-12, 95);
type = Stem;
},
{
place = (343, 72);
place = (343, 72);
type = Stem;
},
{
horizontal = 1;
place = (575, 85);
place = (575, 85);
type = Stem;
},
{
horizontal = 1;
place = (577, 118);
place = (577, 118);
type = Stem;
},
{
place = (115, 72);
place = (115, 72);
type = Stem;
},
{
horizontal = 1;
place = (608, 87);
place = (608, 87);
type = Stem;
}
);
layerId = m01;
shapes = (
{
closed = 1;
nodes = (
(498,0,l),
(498,5,l),
(486,14,o),
(480,37,o),
(480,76,cs),
(480,337,ls),
(480,457,o),
(418,526,o),
(264,526,cs),
(114,526,o),
(47,447,o),
(43,357,c),
(164,357,l),
(168,406,o),
(199,429,o),
(263,429,cs),
(320,429,o),
(349,405,o),
(349,368,cs),
(349,329,o),
(310,322,o),
(225,310,cs),
(111,294,o),
(19,258,o),
(19,145,cs),
(19,43,o),
(93,-12,o),
(198,-12,cs),
(286,-12,o),
(323,18,o),
(349,57,c),
(351,57,l),
(354,34,o),
(359,10,o),
(367,0,c)
);
},
{
closed = 1;
nodes = (
(183,83,o),
(151,100,o),
(151,148,cs),
(151,196,o),
(186,212,o),
(257,228,cs),
(291,236,o),
(328,244,o),
(352,258,c),
(352,181,ls),
(352,131,o),
(309,83,o),
(231,83,cs)
);
},
{
closed = 1;
nodes = (
(381,575,o),
(415,623,o),
(415,691,c),
(343,691,l),
(339,672,o),
(333,660,o),
(314,660,cs),
(287,660,o),
(254,695,o),
(205,695,cs),
(155,695,o),
(115,655,o),
(115,577,c),
(187,577,l),
(190,596,o),
(200,608,o),
(214,608,cs),
(241,608,o),
(275,575,o),
(323,575,cs)
);
}
);
width = 522;
}
);
note = atilde;
unicode = 227;
},
{
glyphname = aring;
kernLeft = a;
kernRight = a;
layers = (
{
hints = (
{
horizontal = 1;
place = (0, 21);
target = up;
type = BottomGhost;
},
{
horizontal = 1;
place = (429, 97);
place = (429, 97);
type = Stem;
},
{
horizontal = 1;
place = (561, 47);
place = (561, 47);
type = Stem;
},
{
horizontal = 1;
place = (702, 47);
place = (702, 47);
type = Stem;
},
{
place = (19, 132);
place = (19, 132);
type = Stem;
},
{
place = (168, 52);
place = (168, 52);
type = Stem;
},
{
place = (352, 128);
place = (352, 128);
type = Stem;
},
{
horizontal = 1;
place = (-12, 95);
place = (-12, 95);
type = Stem;
},
{
place = (310, 52);
place = (310, 52);
type = Stem;
}
);
layerId = m01;
shapes = (
{
closed = 1;
nodes = (
(498,0,l),
(498,5,l),
(486,14,o),
(480,37,o),
(480,76,cs),
(480,337,ls),
(480,457,o),
(418,526,o),
(264,526,cs),
(114,526,o),
(47,447,o),
(43,357,c),
(164,357,l),
(168,406,o),
(199,429,o),
(263,429,cs),
(320,429,o),
(349,405,o),
(349,368,cs),
(349,329,o),
(310,322,o),
(225,310,cs),
(111,294,o),
(19,258,o),
(19,145,cs),
(19,43,o),
(93,-12,o),
(198,-12,cs),
(286,-12,o),
(323,18,o),
(349,57,c),
(351,57,l),
(354,34,o),
(359,10,o),
(367,0,c)
);
},
{
closed = 1;
nodes = (
(183,83,o),
(151,100,o),
(151,148,cs),
(151,196,o),
(186,212,o),
(257,228,cs),
(291,236,o),
(328,244,o),
(352,258,c),
(352,181,ls),
(352,131,o),
(309,83,o),
(231,83,cs)
);
},
{
closed = 1;
nodes = (
(318,561,o),
(362,602,o),
(362,655,cs),
(362,707,o),
(318,749,o),
(265,749,cs),
(212,749,o),
(168,707,o),
(168,655,cs),
(168,602,o),
(212,561,o),
(265,561,cs)
);
},
{
closed = 1;
nodes = (
(239,608,o),
(220,629,o),
(220,655,cs),
(220,681,o),
(239,702,o),
(265,702,cs),
(291,702,o),
(310,681,o),
(310,655,cs),
(310,629,o),
(291,608,o),
(265,608,cs)
);
}
);
width = 522;
}
);
note = aring;
unicode = 229;
},
{
glyphname = ccedilla;
kernLeft = c;
kernRight = c;
layers = (
{
hints = (
{
horizontal = 1;
place = (-192, 46);
place = (-192, 46);
type = Stem;
},
{
horizontal = 1;
place = (-86, 34);
place = (-86, 34);
type = Stem;
},
{
horizontal = 1;
place = (-13, 21);
target = up;
type = BottomGhost;
},
{
horizontal = 1;
place = (418, 109);
place = (418, 109);
type = Stem;
},
{
place = (19, 138);
place = (19, 138);
type = Stem;
},
{
place = (287, 82);
place = (287, 82);
type = Stem;
},
{
horizontal = 1;
place = (-13, 107);
place = (-13, 107);
type = Stem;
}
);
layerId = m01;
shapes = (
{
closed = 1;
nodes = (
(316,-192,o),
(369,-164,o),
(369,-116,cs),
(369,-63,o),
(316,-44,o),
(263,-52,c),
(263,-50,l),
(306,-14,l),
(429,-4,o),
(504,78,o),
(513,181,c),
(382,181,l),
(373,123,o),
(334,94,o),
(279,94,cs),
(196,94,o),
(157,159,o),
(157,256,cs),
(157,355,o),
(199,418,o),
(281,418,cs),
(331,418,o),
(366,384,o),
(375,339,c),
(508,339,l),
(490,450,o),
(408,527,o),
(275,527,cs),
(119,527,o),
(19,409,o),
(19,256,cs),
(19,113,o),
(107,1,o),
(250,-13,c),
(193,-71,l),
(209,-93,l),
(220,-89,o),
(231,-86,o),
(246,-86,cs),
(268,-86,o),
(287,-96,o),
(287,-115,cs),
(287,-136,o),
(260,-146,o),
(230,-146,cs),
(206,-146,o),
(180,-140,o),
(160,-131,c),
(142,-163,l),
(168,-180,o),
(203,-192,o),
(248,-192,cs)
);
}
);
width = 528;
}
);
note = ccedilla;
unicode = 231;
},
{
glyphname = eacute;
kernLeft = c;
kernRight = e;
layers = (
{
hints = (
{
horizontal = 1;
place = (-15, 105);
place = (-15, 105);
type = Stem;
},
{
horizontal = 1;
place = (218, 94);
place = (218, 94);
type = Stem;
},
{
horizontal = 1;
place = (422, 105);
place = (422, 105);
type = Stem;
},
{
horizontal = 1;
place = (577, 141);
place = (577, 141);
type = Stem;
},
{
place = (19, 134);
place = (19, 134);
type = Stem;
},
{
place = (383, 142);
place = (383, 142);
type = Stem;
}
);
layerId = m01;
shapes = (
{
closed = 1;
nodes = (
(417,-15,o),
(498,62,o),
(517,153,c),
(383,153,l),
(368,114,o),
(337,90,o),
(284,90,cs),
(207,90,o),
(163,139,o),
(153,218,c),
(525,218,l),
(525,401,o),
(437,527,o),
(272,527,cs),
(122,527,o),
(19,409,o),
(19,257,cs),
(19,104,o),
(115,-15,o),
(285,-15,cs)
);
},
{
closed = 1;
nodes = (
(336,422,o),
(379,377,o),
(383,312,c),
(155,312,l),
(167,379,o),
(202,422,o),
(274,422,cs)
);
},
{
closed = 1;
nodes = (
(432,718,l),
(273,718,l),
(218,577,l),
(324,577,l)
);
}
);
width = 544;
}
);
note = eacute;
unicode = 233;
},
{
glyphname = egrave;
kernLeft = c;
kernRight = e;
layers = (
{
hints = (
{
horizontal = 1;
place = (-15, 105);
place = (-15, 105);
type = Stem;
},
{
horizontal = 1;
place = (218, 94);
place = (218, 94);
type = Stem;
},
{
horizontal = 1;
place = (422, 105);
place = (422, 105);
type = Stem;
},
{
horizontal = 1;
place = (577, 141);
place = (577, 141);
type = Stem;
},
{
place = (19, 134);
place = (19, 134);
type = Stem;
},
{
place = (383, 142);
place = (383, 142);
type = Stem;
}
);
layerId = m01;
shapes = (
{
closed = 1;
nodes = (
(417,-15,o),
(498,62,o),
(517,153,c),
(383,153,l),
(368,114,o),
(337,90,o),
(284,90,cs),
(207,90,o),
(163,139,o),
(153,218,c),
(525,218,l),
(525,401,o),
(437,527,o),
(272,527,cs),
(122,527,o),
(19,409,o),
(19,257,cs),
(19,104,o),
(115,-15,o),
(285,-15,cs)
);
},
{
closed = 1;
nodes = (
(336,422,o),
(379,377,o),
(383,312,c),
(155,312,l),
(167,379,o),
(202,422,o),
(274,422,cs)
);
},
{
closed = 1;
nodes = (
(224,577,l),
(330,577,l),
(275,718,l),
(116,718,l)
);
}
);
width = 544;
}
);
note = egrave;
unicode = 232;
},
{
glyphname = ecircumflex;
kernLeft = c;
kernRight = e;
layers = (
{
hints = (
{
horizontal = 1;
place = (-15, 105);
place = (-15, 105);
type = Stem;
},
{
horizontal = 1;
place = (218, 94);
place = (218, 94);
type = Stem;
},
{
horizontal = 1;
place = (422, 105);
place = (422, 105);
type = Stem;
},
{
horizontal = 1;
place = (581, 126);
place = (581, 126);
type = Stem;
},
{
place = (19, 134);
place = (19, 134);
type = Stem;
},
{
place = (383, 142);
place = (383, 142);
type = Stem;
}
);
layerId = m01;
shapes = (
{
closed = 1;
nodes = (
(417,-15,o),
(498,62,o),
(517,153,c),
(383,153,l),
(368,114,o),
(337,90,o),
(284,90,cs),
(207,90,o),
(163,139,o),
(153,218,c),
(525,218,l),
(525,401,o),
(437,527,o),
(272,527,cs),
(122,527,o),
(19,409,o),
(19,257,cs),
(19,104,o),
(115,-15,o),
(285,-15,cs)
);
},
{
closed = 1;
nodes = (
(336,422,o),
(379,377,o),
(383,312,c),
(155,312,l),
(167,379,o),
(202,422,o),
(274,422,cs)
);
},
{
closed = 1;
nodes = (
(104,581,l),
(223,581,l),
(272,650,l),
(274,650,l),
(322,581,l),
(440,581,l),
(344,707,l),
(198,707,l)
);
}
);
width = 544;
}
);
note = ecircumflex;
unicode = 234;
},
{
glyphname = edieresis;
kernLeft = c;
kernRight = e;
layers = (
{
hints = (
{
horizontal = 1;
place = (-15, 105);
place = (-15, 105);
type = Stem;
},
{
horizontal = 1;
place = (218, 94);
place = (218, 94);
type = Stem;
},
{
horizontal = 1;
place = (422, 105);
place = (422, 105);
type = Stem;
},
{
horizontal = 1;
place = (581, 114);
place = (581, 114);
type = Stem;
},
{
place = (19, 134);
place = (19, 134);
type = Stem;
},
{
place = (383, 142);
place = (383, 142);
type = Stem;
},
{
place = (97, 128);
place = (97, 128);
type = Stem;
},
{
place = (320, 128);
place = (320, 128);
type = Stem;
}
);
layerId = m01;
shapes = (
{
closed = 1;
nodes = (
(417,-15,o),
(498,62,o),
(517,153,c),
(383,153,l),
(368,114,o),
(337,90,o),
(284,90,cs),
(207,90,o),
(163,139,o),
(153,218,c),
(525,218,l),
(525,401,o),
(437,527,o),
(272,527,cs),
(122,527,o),
(19,409,o),
(19,257,cs),
(19,104,o),
(115,-15,o),
(285,-15,cs)
);
},
{
closed = 1;
nodes = (
(336,422,o),
(379,377,o),
(383,312,c),
(155,312,l),
(167,379,o),
(202,422,o),
(274,422,cs)
);
},
{
closed = 1;
nodes = (
(320,581,l),
(448,581,l),
(448,695,l),
(320,695,l)
);
},
{
closed = 1;
nodes = (
(97,581,l),
(225,581,l),
(225,695,l),
(97,695,l)
);
}
);
width = 544;
}
);
note = edieresis;
unicode = 235;
},
{
glyphname = iacute;
kernLeft = b;
kernRight = d;
layers = (
{
hints = (
{
horizontal = 1;
place = (0, 21);
target = up;
type = BottomGhost;
},
{
horizontal = 1;
place = (513, -20);
target = down;
type = TopGhost;
},
{
horizontal = 1;
place = (577, 141);
place = (577, 141);
type = Stem;
},
{
place = (44, 136);
place = (44, 136);
type = Stem;
}
);
layerId = m01;
shapes = (
{
closed = 1;
nodes = (
(44,0,l),
(180,0,l),
(180,513,l),
(44,513,l)
);
},
{
closed = 1;
nodes = (
(272,718,l),
(113,718,l),
(58,577,l),
(164,577,l)
);
}
);
width = 224;
}
);
note = iacute;
unicode = 237;
},
{
glyphname = igrave;
kernLeft = b;
kernRight = d;
layers = (
{
hints = (
{
horizontal = 1;
place = (0, 21);
target = up;
type = BottomGhost;
},
{
horizontal = 1;
place = (513, -20);
target = down;
type = TopGhost;
},
{
horizontal = 1;
place = (577, 141);
place = (577, 141);
type = Stem;
},
{
place = (44, 136);
place = (44, 136);
type = Stem;
}
);
layerId = m01;
shapes = (
{
closed = 1;
nodes = (
(44,0,l),
(180,0,l),
(180,513,l),
(44,513,l)
);
},
{
closed = 1;
nodes = (
(64,577,l),
(170,577,l),
(115,718,l),
(-44,718,l)
);
}
);
width = 224;
}
);
note = igrave;
unicode = 236;
},
{
glyphname = icircumflex;
kernLeft = b;
kernRight = d;
layers = (
{
hints = (
{
horizontal = 1;
place = (0, 21);
target = up;
type = BottomGhost;
},
{
horizontal = 1;
place = (513, -20);
target = down;
type = TopGhost;
},
{
horizontal = 1;
place = (581, 126);
place = (581, 126);
type = Stem;
},
{
place = (44, 136);
place = (44, 136);
type = Stem;
}
);
layerId = m01;
shapes = (
{
closed = 1;
nodes = (
(44,0,l),
(180,0,l),
(180,513,l),
(44,513,l)
);
},
{
closed = 1;
nodes = (
(-30,581,l),
(78,581,l),
(112,647,l),
(114,647,l),
(146,581,l),
(253,581,l),
(180,707,l),
(41,707,l)
);
}
);
width = 224;
}
);
note = icircumflex;
unicode = 238;
},
{
glyphname = idieresis;
kernLeft = b;
kernRight = d;
layers = (
{
hints = (
{
horizontal = 1;
place = (0, 21);
target = up;
type = BottomGhost;
},
{
horizontal = 1;
place = (513, -20);
target = down;
type = TopGhost;
},
{
horizontal = 1;
place = (581, 114);
place = (581, 114);
type = Stem;
},
{
place = (44, 136);
place = (44, 136);
type = Stem;
},
{
place = (130, 108);
place = (130, 108);
type = Stem;
},
{
place = (-13, 108);
place = (-13, 108);
type = Stem;
}
);
layerId = m01;
shapes = (
{
closed = 1;
nodes = (
(44,0,l),
(180,0,l),
(180,513,l),
(44,513,l)
);
},
{
closed = 1;
nodes = (
(130,581,l),
(238,581,l),
(238,695,l),
(130,695,l)
);
},
{
closed = 1;
nodes = (
(-13,581,l),
(95,581,l),
(95,695,l),
(-13,695,l)
);
}
);
width = 224;
}
);
note = idieresis;
unicode = 239;
},
{
glyphname = ntilde;
kernLeft = m;
kernRight = h;
layers = (
{
hints = (
{
horizontal = 1;
place = (0, 21);
target = up;
type = BottomGhost;
},
{
horizontal = 1;
place = (409, 104);
place = (409, 104);
type = Stem;
},
{
horizontal = 1;
place = (575, 116);
place = (575, 116);
type = Stem;
},
{
place = (44, 136);
place = (44, 136);
type = Stem;
},
{
place = (373, 136);
place = (373, 136);
type = Stem;
},
{
horizontal = 1;
place = (409, 118);
place = (409, 118);
type = Stem;
},
{
place = (354, 72);
place = (354, 72);
type = Stem;
},
{
horizontal = 1;
place = (575, 85);
place = (575, 85);
type = Stem;
},
{
horizontal = 1;
place = (577, 118);
place = (577, 118);
type = Stem;
},
{
place = (126, 51);
place = (126, 51);
type = Stem;
},
{
horizontal = 1;
place = (608, 87);
place = (608, 87);
type = Stem;
}
);
layerId = m01;
shapes = (
{
closed = 1;
nodes = (
(177,513,l),
(44,513,l),
(44,0,l),
(180,0,l),
(180,291,ls),
(180,361,o),
(224,409,o),
(284,409,cs),
(341,409,o),
(373,370,o),
(373,315,cs),
(373,0,l),
(509,0,l),
(509,335,ls),
(509,447,o),
(438,527,o),
(332,527,cs),
(262,527,o),
(215,498,o),
(180,443,c),
(177,443,l)
);
},
{
closed = 1;
nodes = (
(392,575,o),
(426,623,o),
(426,691,c),
(354,691,l),
(350,672,o),
(344,660,o),
(325,660,cs),
(298,660,o),
(265,695,o),
(216,695,cs),
(166,695,o),
(126,655,o),
(126,577,c),
(198,577,l),
(201,596,o),
(211,608,o),
(225,608,cs),
(252,608,o),
(286,575,o),
(334,575,cs)
);
}
);
width = 549;
}
);
note = ntilde;
unicode = 241;
},
{
glyphname = oacute;
kernLeft = c;
kernRight = o;
layers = (
{
hints = (
{
horizontal = 1;
place = (-15, 104);
place = (-15, 104);
type = Stem;
},
{
horizontal = 1;
place = (424, 103);
place = (424, 103);
type = Stem;
},
{
horizontal = 1;
place = (577, 141);
place = (577, 141);
type = Stem;
},
{
place = (19, 138);
place = (19, 138);
type = Stem;
},
{
place = (417, 138);
place = (417, 138);
type = Stem;
}
);
layerId = m01;
shapes = (
{
closed = 1;
nodes = (
(446,-15,o),
(555,103,o),
(555,256,cs),
(555,409,o),
(446,527,o),
(287,527,cs),
(128,527,o),
(19,409,o),
(19,256,cs),
(19,103,o),
(128,-15,o),
(287,-15,cs)
);
},
{
closed = 1;
nodes = (
(203,89,o),
(157,156,o),
(157,256,cs),
(157,356,o),
(203,424,o),
(287,424,cs),
(370,424,o),
(417,356,o),
(417,256,cs),
(417,156,o),
(370,89,o),
(287,89,cs)
);
},
{
closed = 1;
nodes = (
(447,718,l),
(288,718,l),
(233,577,l),
(339,577,l)
);
}
);
width = 574;
}
);
note = oacute;
unicode = 243;
},
{
glyphname = ograve;
kernLeft = c;
kernRight = o;
layers = (
{
hints = (
{
horizontal = 1;
place = (-15, 104);
place = (-15, 104);
type = Stem;
},
{
horizontal = 1;
place = (424, 103);
place = (424, 103);
type = Stem;
},
{
horizontal = 1;
place = (577, 141);
place = (577, 141);
type = Stem;
},
{
place = (19, 138);
place = (19, 138);
type = Stem;
},
{
place = (417, 138);
place = (417, 138);
type = Stem;
}
);
layerId = m01;
shapes = (
{
closed = 1;
nodes = (
(446,-15,o),
(555,103,o),
(555,256,cs),
(555,409,o),
(446,527,o),
(287,527,cs),
(128,527,o),
(19,409,o),
(19,256,cs),
(19,103,o),
(128,-15,o),
(287,-15,cs)
);
},
{
closed = 1;
nodes = (
(203,89,o),
(157,156,o),
(157,256,cs),
(157,356,o),
(203,424,o),
(287,424,cs),
(370,424,o),
(417,356,o),
(417,256,cs),
(417,156,o),
(370,89,o),
(287,89,cs)
);
},
{
closed = 1;
nodes = (
(239,577,l),
(345,577,l),
(290,718,l),
(131,718,l)
);
}
);
width = 574;
}
);
note = ograve;
unicode = 242;
},
{
glyphname = ocircumflex;
kernLeft = c;
kernRight = o;
layers = (
{
hints = (
{
horizontal = 1;
place = (-15, 104);
place = (-15, 104);
type = Stem;
},
{
horizontal = 1;
place = (424, 103);
place = (424, 103);
type = Stem;
},
{
horizontal = 1;
place = (581, 126);
place = (581, 126);
type = Stem;
},
{
place = (19, 138);
place = (19, 138);
type = Stem;
},
{
place = (417, 138);
place = (417, 138);
type = Stem;
}
);
layerId = m01;
shapes = (
{
closed = 1;
nodes = (
(446,-15,o),
(555,103,o),
(555,256,cs),
(555,409,o),
(446,527,o),
(287,527,cs),
(128,527,o),
(19,409,o),
(19,256,cs),
(19,103,o),
(128,-15,o),
(287,-15,cs)
);
},
{
closed = 1;
nodes = (
(203,89,o),
(157,156,o),
(157,256,cs),
(157,356,o),
(203,424,o),
(287,424,cs),
(370,424,o),
(417,356,o),
(417,256,cs),
(417,156,o),
(370,89,o),
(287,89,cs)
);
},
{
closed = 1;
nodes = (
(119,581,l),
(238,581,l),
(287,650,l),
(289,650,l),
(337,581,l),
(455,581,l),
(359,707,l),
(213,707,l)
);
}
);
width = 574;
}
);
note = ocircumflex;
unicode = 244;
},
{
glyphname = odieresis;
kernLeft = c;
kernRight = o;
layers = (
{
hints = (
{
horizontal = 1;
place = (-15, 104);
place = (-15, 104);
type = Stem;
},
{
horizontal = 1;
place = (424, 103);
place = (424, 103);
type = Stem;
},
{
horizontal = 1;
place = (581, 114);
place = (581, 114);
type = Stem;
},
{
place = (19, 138);
place = (19, 138);
type = Stem;
},
{
place = (417, 138);
place = (417, 138);
type = Stem;
},
{
place = (112, 128);
place = (112, 128);
type = Stem;
},
{
place = (335, 128);
place = (335, 128);
type = Stem;
}
);
layerId = m01;
shapes = (
{
closed = 1;
nodes = (
(446,-15,o),
(555,103,o),
(555,256,cs),
(555,409,o),
(446,527,o),
(287,527,cs),
(128,527,o),
(19,409,o),
(19,256,cs),
(19,103,o),
(128,-15,o),
(287,-15,cs)
);
},
{
closed = 1;
nodes = (
(203,89,o),
(157,156,o),
(157,256,cs),
(157,356,o),
(203,424,o),
(287,424,cs),
(370,424,o),
(417,356,o),
(417,256,cs),
(417,156,o),
(370,89,o),
(287,89,cs)
);
},
{
closed = 1;
nodes = (
(335,581,l),
(463,581,l),
(463,695,l),
(335,695,l)
);
},
{
closed = 1;
nodes = (
(112,581,l),
(240,581,l),
(240,695,l),
(112,695,l)
);
}
);
width = 574;
}
);
note = odieresis;
unicode = 246;
},
{
glyphname = otilde;
kernLeft = c;
kernRight = o;
layers = (
{
hints = (
{
horizontal = 1;
place = (-15, 104);
place = (-15, 104);
type = Stem;
},
{
horizontal = 1;
place = (424, 103);
place = (424, 103);
type = Stem;
},
{
horizontal = 1;
place = (575, 116);
place = (575, 116);
type = Stem;
},
{
place = (19, 138);
place = (19, 138);
type = Stem;
},
{
place = (417, 138);
place = (417, 138);
type = Stem;
},
{
place = (365, 72);
place = (365, 72);
type = Stem;
},
{
horizontal = 1;
place = (575, 85);
place = (575, 85);
type = Stem;
},
{
horizontal = 1;
place = (577, 118);
place = (577, 118);
type = Stem;
},
{
place = (137, 72);
place = (137, 72);
type = Stem;
},
{
horizontal = 1;
place = (608, 87);
place = (608, 87);
type = Stem;
}
);
layerId = m01;
shapes = (
{
closed = 1;
nodes = (
(446,-15,o),
(555,103,o),
(555,256,cs),
(555,409,o),
(446,527,o),
(287,527,cs),
(128,527,o),
(19,409,o),
(19,256,cs),
(19,103,o),
(128,-15,o),
(287,-15,cs)
);
},
{
closed = 1;
nodes = (
(203,89,o),
(157,156,o),
(157,256,cs),
(157,356,o),
(203,424,o),
(287,424,cs),
(370,424,o),
(417,356,o),
(417,256,cs),
(417,156,o),
(370,89,o),
(287,89,cs)
);
},
{
closed = 1;
nodes = (
(403,575,o),
(437,623,o),
(437,691,c),
(365,691,l),
(361,672,o),
(355,660,o),
(336,660,cs),
(309,660,o),
(276,695,o),
(227,695,cs),
(177,695,o),
(137,655,o),
(137,577,c),
(209,577,l),
(212,596,o),
(222,608,o),
(236,608,cs),
(263,608,o),
(297,575,o),
(345,575,cs)
);
}
);
width = 574;
}
);
note = otilde;
unicode = 245;
},
{
glyphname = uacute;
kernLeft = u;
kernRight = u;
layers = (
{
hints = (
{
horizontal = 1;
place = (0, 101);
place = (0, 101);
type = Stem;
},
{
horizontal = 1;
place = (513, -20);
target = down;
type = TopGhost;
},
{
horizontal = 1;
place = (577, 141);
place = (577, 141);
type = Stem;
},
{
place = (40, 135);
place = (40, 135);
type = Stem;
},
{
place = (363, 136);
place = (363, 136);
type = Stem;
},
{
horizontal = 1;
place = (-14, 115);
place = (-14, 115);
type = Stem;
}
);
layerId = m01;
shapes = (
{
closed = 1;
nodes = (
(499,0,l),
(499,513,l),
(363,513,l),
(363,217,ls),
(363,149,o),
(324,101,o),
(260,101,cs),
(202,101,o),
(175,134,o),
(175,194,cs),
(175,513,l),
(40,513,l),
(40,171,ls),
(40,59,o),
(104,-14,o),
(218,-14,cs),
(290,-14,o),
(330,13,o),
(365,60,c),
(368,60,l),
(368,0,l)
);
},
{
closed = 1;
nodes = (
(431,718,l),
(272,718,l),
(217,577,l),
(323,577,l)
);
}
);
width = 543;
}
);
note = uacute;
unicode = 250;
},
{
glyphname = ugrave;
kernLeft = u;
kernRight = u;
layers = (
{
hints = (
{
horizontal = 1;
place = (0, 101);
place = (0, 101);
type = Stem;
},
{
horizontal = 1;
place = (513, -20);
target = down;
type = TopGhost;
},
{
horizontal = 1;
place = (577, 141);
place = (577, 141);
type = Stem;
},
{
place = (40, 135);
place = (40, 135);
type = Stem;
},
{
place = (363, 136);
place = (363, 136);
type = Stem;
},
{
horizontal = 1;
place = (-14, 115);
place = (-14, 115);
type = Stem;
}
);
layerId = m01;
shapes = (
{
closed = 1;
nodes = (
(499,0,l),
(499,513,l),
(363,513,l),
(363,217,ls),
(363,149,o),
(324,101,o),
(260,101,cs),
(202,101,o),
(175,134,o),
(175,194,cs),
(175,513,l),
(40,513,l),
(40,171,ls),
(40,59,o),
(104,-14,o),
(218,-14,cs),
(290,-14,o),
(330,13,o),
(365,60,c),
(368,60,l),
(368,0,l)
);
},
{
closed = 1;
nodes = (
(223,577,l),
(329,577,l),
(274,718,l),
(115,718,l)
);
}
);
width = 543;
}
);
note = ugrave;
unicode = 249;
},
{
glyphname = ucircumflex;
kernLeft = u;
kernRight = u;
layers = (
{
hints = (
{
horizontal = 1;
place = (0, 101);
place = (0, 101);
type = Stem;
},
{
horizontal = 1;
place = (513, -20);
target = down;
type = TopGhost;
},
{
horizontal = 1;
place = (581, 126);
place = (581, 126);
type = Stem;
},
{
place = (40, 135);
place = (40, 135);
type = Stem;
},
{
place = (363, 136);
place = (363, 136);
type = Stem;
},
{
horizontal = 1;
place = (-14, 115);
place = (-14, 115);
type = Stem;
}
);
layerId = m01;
shapes = (
{
closed = 1;
nodes = (
(499,0,l),
(499,513,l),
(363,513,l),
(363,217,ls),
(363,149,o),
(324,101,o),
(260,101,cs),
(202,101,o),
(175,134,o),
(175,194,cs),
(175,513,l),
(40,513,l),
(40,171,ls),
(40,59,o),
(104,-14,o),
(218,-14,cs),
(290,-14,o),
(330,13,o),
(365,60,c),
(368,60,l),
(368,0,l)
);
},
{
closed = 1;
nodes = (
(103,581,l),
(222,581,l),
(271,650,l),
(273,650,l),
(321,581,l),
(439,581,l),
(343,707,l),
(197,707,l)
);
}
);
width = 543;
}
);
note = ucircumflex;
unicode = 251;
},
{
glyphname = udieresis;
kernLeft = u;
kernRight = u;
layers = (
{
hints = (
{
horizontal = 1;
place = (0, 101);
place = (0, 101);
type = Stem;
},
{
horizontal = 1;
place = (513, -20);
target = down;
type = TopGhost;
},
{
horizontal = 1;
place = (581, 114);
place = (581, 114);
type = Stem;
},
{
place = (40, 135);
place = (40, 135);
type = Stem;
},
{
place = (363, 136);
place = (363, 136);
type = Stem;
},
{
horizontal = 1;
place = (-14, 115);
place = (-14, 115);
type = Stem;
},
{
place = (319, 128);
place = (319, 128);
type = Stem;
},
{
place = (96, 128);
place = (96, 128);
type = Stem;
}
);
layerId = m01;
shapes = (
{
closed = 1;
nodes = (
(499,0,l),
(499,513,l),
(363,513,l),
(363,217,ls),
(363,149,o),
(324,101,o),
(260,101,cs),
(202,101,o),
(175,134,o),
(175,194,cs),
(175,513,l),
(40,513,l),
(40,171,ls),
(40,59,o),
(104,-14,o),
(218,-14,cs),
(290,-14,o),
(330,13,o),
(365,60,c),
(368,60,l),
(368,0,l)
);
},
{
closed = 1;
nodes = (
(319,581,l),
(447,581,l),
(447,695,l),
(319,695,l)
);
},
{
closed = 1;
nodes = (
(96,581,l),
(224,581,l),
(224,695,l),
(96,695,l)
);
}
);
width = 543;
}
);
note = udieresis;
unicode = 252;
},
{
glyphname = dagger;
layers = (
{
hints = (
{
horizontal = 1;
place = (412, 107);
place = (412, 107);
type = Stem;
},
{
horizontal = 1;
place = (715, -20);
target = down;
type = TopGhost;
},
{
place = (217, 131);
place = (217, 131);
type = Stem;
}
);
layerId = m01;
shapes = (
{
closed = 1;
nodes = (
(34,412,l),
(217,412,l),
(217,-117,l),
(348,-117,l),
(348,412,l),
(531,412,l),
(531,519,l),
(348,519,l),
(348,715,l),
(217,715,l),
(217,519,l),
(34,519,l)
);
}
);
width = 565;
}
);
note = dagger;
unicode = 8224;
},
{
glyphname = degree;
layers = (
{
hints = (
{
horizontal = 1;
place = (418, 63);
place = (418, 63);
type = Stem;
},
{
horizontal = 1;
place = (637, 63);
place = (637, 63);
type = Stem;
},
{
place = (32, 73);
place = (32, 73);
type = Stem;
},
{
place = (252, 72);
place = (252, 72);
type = Stem;
}
);
layerId = m01;
shapes = (
{
closed = 1;
nodes = (
(258,418,o),
(324,479,o),
(324,558,cs),
(324,637,o),
(258,700,o),
(178,700,cs),
(99,700,o),
(32,637,o),
(32,558,cs),
(32,479,o),
(99,418,o),
(178,418,cs)
);
},
{
closed = 1;
nodes = (
(133,481,o),
(105,515,o),
(105,558,cs),
(105,601,o),
(133,637,o),
(178,637,cs),
(223,637,o),
(252,601,o),
(252,558,cs),
(252,515,o),
(223,481,o),
(178,481,cs)
);
}
);
width = 356;
}
);
note = degree;
unicode = 176;
},
{
glyphname = cent;
layers = (
{
hints = (
{
horizontal = 1;
place = (-14, 21);
target = up;
type = BottomGhost;
},
{
horizontal = 1;
place = (525, -20);
target = down;
type = TopGhost;
},
{
place = (19, 138);
place = (19, 138);
type = Stem;
},
{
place = (248, 60);
place = (248, 60);
type = Stem;
},
{
place = (382, 131);
place = (382, 131);
type = Stem;
},
{
horizontal = 1;
place = (-13, 21);
target = up;
type = BottomGhost;
}
);
layerId = m01;
shapes = (
{
closed = 1;
nodes = (
(248,-100,l),
(308,-100,l),
(308,-14,l),
(429,-3,o),
(504,79,o),
(513,181,c),
(382,181,l),
(374,134,o),
(347,106,o),
(308,97,c),
(308,414,l),
(343,404,o),
(367,375,o),
(375,339,c),
(508,339,l),
(491,440,o),
(421,513,o),
(308,525,c),
(308,593,l),
(248,593,l),
(248,525,l),
(107,512,o),
(19,400,o),
(19,256,cs),
(19,114,o),
(106,2,o),
(248,-13,c)
);
},
{
closed = 1;
nodes = (
(157,340,o),
(188,399,o),
(248,414,c),
(248,97,l),
(186,112,o),
(157,172,o),
(157,256,cs)
);
}
);
width = 525;
}
);
note = cent;
unicode = 162;
},
{
glyphname = sterling;
layers = (
{
hints = (
{
horizontal = 1;
place = (-14, 126);
place = (-14, 126);
type = Stem;
},
{
horizontal = 1;
place = (290, 87);
place = (290, 87);
type = Stem;
},
{
horizontal = 1;
place = (588, 111);
place = (588, 111);
type = Stem;
},
{
place = (45, 146);
place = (45, 146);
type = Stem;
},
{
place = (419, 136);
place = (419, 136);
type = Stem;
},
{
horizontal = 1;
place = (-8, 21);
target = up;
type = BottomGhost;
},
{
horizontal = 1;
place = (33, 109);
place = (33, 109);
type = Stem;
},
{
place = (123, 135);
place = (123, 135);
type = Stem;
}
);
layerId = m01;
shapes = (
{
closed = 1;
nodes = (
(31,290,l),
(116,290,l),
(120,275,o),
(123,259,o),
(123,242,cs),
(123,179,o),
(81,132,o),
(27,96,c),
(97,-8,l),
(127,12,o),
(159,33,o),
(199,33,cs),
(277,33,o),
(310,-14,o),
(407,-14,cs),
(468,-14,o),
(526,13,o),
(566,48,c),
(504,155,l),
(480,134,o),
(445,112,o),
(406,112,cs),
(351,112,o),
(330,142,o),
(258,142,cs),
(227,142,o),
(204,132,o),
(181,124,c),
(179,126,l),
(227,162,o),
(258,208,o),
(258,263,cs),
(258,272,o),
(257,281,o),
(256,290,c),
(373,290,l),
(373,377,l),
(226,377,l),
(209,413,o),
(191,448,o),
(191,488,cs),
(191,548,o),
(229,588,o),
(300,588,cs),
(368,588,o),
(418,550,o),
(419,454,c),
(555,454,l),
(553,544,o),
(526,601,o),
(480,641,cs),
(434,681,o),
(372,699,o),
(299,699,cs),
(135,699,o),
(45,609,o),
(45,492,cs),
(45,446,o),
(59,410,o),
(76,377,c),
(31,377,l)
);
}
);
width = 579;
}
);
note = sterling;
unicode = 163;
},
{
glyphname = section;
layers = (
{
hints = (
{
horizontal = 1;
place = (-171, 107);
place = (-171, 107);
type = Stem;
},
{
horizontal = 1;
place = (597, 102);
place = (597, 102);
type = Stem;
},
{
place = (84, 135);
place = (84, 135);
type = Stem;
},
{
place = (380, 144);
place = (380, 144);
type = Stem;
},
{
place = (435, 131);
place = (435, 131);
type = Stem;
},
{
place = (24, 133);
place = (24, 133);
type = Stem;
}
);
layerId = m01;
shapes = (
{
closed = 1;
nodes = (
(432,-171,o),
(524,-112,o),
(524,-2,cs),
(524,66,o),
(490,107,o),
(454,130,c),
(526,152,o),
(566,194,o),
(566,267,cs),
(566,378,o),
(465,415,o),
(354,459,cs),
(262,496,o),
(219,509,o),
(219,546,cs),
(219,576,o),
(243,597,o),
(295,597,cs),
(348,597,o),
(379,569,o),
(385,523,c),
(508,523,l),
(500,627,o),
(427,699,o),
(291,699,cs),
(172,699,o),
(84,643,o),
(84,546,cs),
(84,489,o),
(106,458,o),
(144,431,c),
(64,408,o),
(24,358,o),
(24,299,cs),
(24,201,o),
(95,154,o),
(228,100,cs),
(332,58,o),
(380,46,o),
(380,-1,cs),
(380,-35,o),
(348,-64,o),
(298,-64,cs),
(238,-64,o),
(196,-28,o),
(193,36,c),
(61,36,l),
(63,-77,o),
(147,-171,o),
(306,-171,cs)
);
},
{
closed = 1;
nodes = (
(373,310,o),
(435,287,o),
(435,243,cs),
(435,216,o),
(412,191,o),
(373,181,c),
(343,194,o),
(308,211,o),
(286,221,cs),
(186,266,o),
(157,279,o),
(157,315,cs),
(157,342,o),
(174,365,o),
(213,375,c),
(236,365,o),
(269,352,o),
(302,339,cs)
);
}
);
width = 591;
}
);
note = section;
unicode = 167;
},
{
glyphname = bullet;
layers = (
{
hints = (
{
horizontal = 1;
place = (182, 279);
place = (182, 279);
type = Stem;
},
{
place = (36, 279);
place = (36, 279);
type = Stem;
}
);
layerId = m01;
shapes = (
{
closed = 1;
nodes = (
(252,182,o),
(315,245,o),
(315,321,cs),
(315,398,o),
(252,461,o),
(176,461,cs),
(99,461,o),
(36,398,o),
(36,321,cs),
(36,245,o),
(99,182,o),
(176,182,cs)
);
}
);
width = 351;
}
);
note = bullet;
unicode = 8226;
},
{
glyphname = paragraph;
layers = (
{
hints = (
{
horizontal = 1;
place = (0, 21);
target = up;
type = BottomGhost;
},
{
horizontal = 1;
place = (634, 81);
place = (634, 81);
type = Stem;
},
{
place = (274, 90);
place = (274, 90);
type = Stem;
},
{
place = (433, 90);
place = (433, 90);
type = Stem;
}
);
layerId = m01;
shapes = (
{
closed = 1;
nodes = (
(274,341,l),
(274,0,l),
(364,0,l),
(364,634,l),
(433,634,l),
(433,0,l),
(523,0,l),
(523,715,l),
(232,715,ls),
(166,715,o),
(117,698,o),
(83,665,cs),
(47,631,o),
(27,583,o),
(27,527,cs),
(27,415,o),
(100,341,o),
(221,341,cs)
);
}
);
width = 578;
}
);
note = paragraph;
unicode = 182;
},
{
glyphname = germandbls;
kernLeft = germandbls;
kernRight = germandbls;
layers = (
{
hints = (
{
horizontal = 1;
place = (-9, 21);
target = up;
type = BottomGhost;
},
{
horizontal = 1;
place = (372, 83);
place = (372, 83);
type = Stem;
},
{
horizontal = 1;
place = (628, 101);
place = (628, 101);
type = Stem;
},
{
place = (44, 136);
place = (44, 136);
type = Stem;
},
{
place = (394, 135);
place = (394, 135);
type = Stem;
},
{
horizontal = 1;
place = (0, 21);
target = up;
type = BottomGhost;
},
{
place = (364, 129);
place = (364, 129);
type = Stem;
},
{
place = (235, 166);
place = (235, 166);
type = Stem;
},
{
horizontal = 1;
place = (-2, 21);
target = up;
type = BottomGhost;
}
);
layerId = m01;
shapes = (
{
closed = 1;
nodes = (
(430,-9,o),
(529,70,o),
(529,230,cs),
(529,317,o),
(488,392,o),
(401,418,c),
(401,421,l),
(459,444,o),
(493,485,o),
(493,547,cs),
(493,659,o),
(408,729,o),
(278,729,cs),
(133,729,o),
(44,648,o),
(44,524,cs),
(44,0,l),
(180,0,l),
(180,522,ls),
(180,592,o),
(217,628,o),
(279,628,cs),
(335,628,o),
(364,593,o),
(364,543,cs),
(364,484,o),
(324,455,o),
(261,455,cs),
(235,455,l),
(235,372,l),
(266,372,ls),
(358,372,o),
(394,322,o),
(394,234,cs),
(394,125,o),
(334,84,o),
(236,96,cs),
(234,96,l),
(234,-2,l),
(254,-7,o),
(277,-9,o),
(298,-9,cs)
);
}
);
width = 548;
}
);
note = germandbls;
unicode = 223;
},
{
glyphname = registered;
kernLeft = registered;
kernRight = registered;
layers = (
{
hints = (
{
horizontal = 1;
place = (244, 37);
place = (244, 37);
type = Stem;
},
{
horizontal = 1;
place = (453, 50);
place = (453, 50);
type = Stem;
},
{
horizontal = 1;
place = (561, 55);
place = (561, 55);
type = Stem;
},
{
horizontal = 1;
place = (690, 38);
place = (690, 38);
type = Stem;
},
{
place = (26, 44);
place = (26, 44);
type = Stem;
},
{
place = (163, 69);
place = (163, 69);
type = Stem;
},
{
place = (311, 68);
place = (311, 68);
type = Stem;
},
{
place = (460, 44);
place = (460, 44);
type = Stem;
}
);
layerId = m01;
shapes = (
{
closed = 1;
nodes = (
(399,244,o),
(504,347,o),
(504,486,cs),
(504,625,o),
(399,728,o),
(265,728,cs),
(131,728,o),
(26,625,o),
(26,486,cs),
(26,347,o),
(131,244,o),
(265,244,cs)
);
},
{
closed = 1;
nodes = (
(153,281,o),
(70,368,o),
(70,486,cs),
(70,603,o),
(153,690,o),
(265,690,cs),
(378,690,o),
(460,603,o),
(460,486,cs),
(460,368,o),
(378,281,o),
(265,281,cs)
);
},
{
closed = 1;
nodes = (
(163,360,l),
(232,360,l),
(232,453,l),
(266,453,ls),
(291,453,o),
(304,442,o),
(306,419,cs),
(309,394,o),
(310,364,o),
(317,360,c),
(385,360,l),
(385,365,l),
(375,370,o),
(379,400,o),
(373,432,cs),
(368,456,o),
(359,471,o),
(335,478,c),
(335,480,l),
(364,490,o),
(379,512,o),
(379,541,cs),
(379,589,o),
(337,616,o),
(287,616,cs),
(163,616,l)
);
},
{
closed = 1;
nodes = (
(232,561,l),
(275,561,ls),
(300,561,o),
(311,551,o),
(311,532,cs),
(311,513,o),
(299,503,o),
(275,503,cs),
(232,503,l)
);
}
);
width = 530;
}
);
note = registered;
unicode = 174;
},
{
glyphname = copyright;
kernLeft = copyright;
kernRight = copyright;
layers = (
{
hints = (
{
horizontal = 1;
place = (-17, 49);
place = (-17, 49);
type = Stem;
},
{
horizontal = 1;
place = (133, 92);
place = (133, 92);
type = Stem;
},
{
horizontal = 1;
place = (492, 93);
place = (492, 93);
type = Stem;
},
{
horizontal = 1;
place = (678, 50);
place = (678, 50);
type = Stem;
},
{
place = (40, 58);
place = (40, 58);
type = Stem;
},
{
place = (197, 113);
place = (197, 113);
type = Stem;
},
{
place = (717, 58);
place = (717, 58);
type = Stem;
}
);
layerId = m01;
shapes = (
{
closed = 1;
nodes = (
(614,-17,o),
(775,141,o),
(775,355,cs),
(775,569,o),
(614,728,o),
(408,728,cs),
(202,728,o),
(40,569,o),
(40,355,cs),
(40,141,o),
(202,-17,o),
(408,-17,cs)
);
},
{
closed = 1;
nodes = (
(231,32,o),
(98,170,o),
(98,355,cs),
(98,540,o),
(231,678,o),
(408,678,cs),
(584,678,o),
(717,540,o),
(717,355,cs),
(717,170,o),
(584,32,o),
(408,32,cs)
);
},
{
closed = 1;
nodes = (
(473,133,o),
(518,149,o),
(552,182,cs),
(582,211,o),
(602,253,o),
(605,298,c),
(497,298,l),
(492,258,o),
(463,225,o),
(412,225,cs),
(350,225,o),
(310,281,o),
(310,358,cs),
(310,434,o),
(344,492,o),
(411,492,cs),
(458,492,o),
(486,464,o),
(493,427,c),
(601,427,l),
(591,518,o),
(522,585,o),
(412,585,cs),
(281,585,o),
(197,488,o),
(197,358,cs),
(197,228,o),
(283,133,o),
(411,133,cs)
);
}
);
width = 815;
}
);
note = copyright;
unicode = 169;
},
{
glyphname = trademark;
kernLeft = trademark;
layers = (
{
hints = (
{
horizontal = 1;
place = (436, 103);
place = (436, 103);
type = Stem;
},
{
horizontal = 1;
place = (651, 64);
place = (651, 64);
type = Stem;
},
{
place = (113, 78);
place = (113, 78);
type = Stem;
},
{
place = (314, 71);
place = (314, 71);
type = Stem;
},
{
place = (559, 72);
place = (559, 72);
type = Stem;
}
);
layerId = m01;
shapes = (
{
closed = 1;
nodes = (
(314,436,l),
(385,436,l),
(385,617,l),
(387,617,l),
(441,436,l),
(502,436,l),
(557,617,l),
(559,617,l),
(559,436,l),
(631,436,l),
(631,715,l),
(523,715,l),
(473,539,l),
(471,539,l),
(422,715,l),
(314,715,l)
);
},
{
closed = 1;
nodes = (
(31,651,l),
(113,651,l),
(113,436,l),
(191,436,l),
(191,651,l),
(273,651,l),
(273,715,l),
(31,715,l)
);
}
);
width = 679;
}
);
note = trademark;
unicode = 8482;
},
{
glyphname = acute;
layers = (
{
hints = (
{
horizontal = 1;
place = (577, 141);
place = (577, 141);
type = Stem;
},
{
place = (183, 214);
place = (183, 214);
type = Stem;
}
);
layerId = m01;
shapes = (
{
closed = 1;
nodes = (
(397,718,l),
(238,718,l),
(183,577,l),
(289,577,l)
);
}
);
width = 500;
}
);
note = acute;
unicode = 180;
},
{
glyphname = dieresis;
layers = (
{
hints = (
{
horizontal = 1;
place = (581, 114);
place = (581, 114);
type = Stem;
},
{
place = (74, 128);
place = (74, 128);
type = Stem;
},
{
place = (297, 128);
place = (297, 128);
type = Stem;
}
);
layerId = m01;
shapes = (
{
closed = 1;
nodes = (
(297,581,l),
(425,581,l),
(425,695,l),
(297,695,l)
);
},
{
closed = 1;
nodes = (
(74,581,l),
(202,581,l),
(202,695,l),
(74,695,l)
);
}
);
width = 500;
}
);
note = dieresis;
unicode = 168;
},
{
glyphname = notequal;
layers = (
{
hints = (
{
horizontal = 1;
place = (165, 98);
place = (165, 98);
type = Stem;
},
{
horizontal = 1;
place = (358, 98);
place = (358, 98);
type = Stem;
},
{
place = (56, 464);
place = (56, 464);
type = Stem;
}
);
layerId = m01;
shapes = (
{
closed = 1;
nodes = (
(56,358,l),
(264,358,l),
(220,263,l),
(56,263,l),
(56,165,l),
(174,165,l),
(134,78,l),
(226,78,l),
(266,165,l),
(520,165,l),
(520,263,l),
(312,263,l),
(356,358,l),
(520,358,l),
(520,456,l),
(401,456,l),
(442,543,l),
(350,543,l),
(309,456,l),
(56,456,l)
);
}
);
width = 562;
}
);
note = notequal;
unicode = 8800;
},
{
glyphname = AE;
kernLeft = AE;
kernRight = E;
layers = (
{
hints = (
{
horizontal = 1;
place = (0, 131);
place = (0, 131);
type = Stem;
},
{
horizontal = 1;
place = (312, 117);
place = (312, 117);
type = Stem;
},
{
horizontal = 1;
place = (590, 125);
place = (590, 125);
type = Stem;
},
{
place = (426, 149);
place = (426, 149);
type = Stem;
},
{
horizontal = 1;
place = (152, 107);
place = (152, 107);
type = Stem;
}
);
layerId = m01;
shapes = (
{
closed = 1;
nodes = (
(4,0,l),
(151,0,l),
(202,152,l),
(426,152,l),
(426,0,l),
(940,0,l),
(940,131,l),
(575,131,l),
(575,312,l),
(881,312,l),
(881,429,l),
(575,429,l),
(575,590,l),
(929,590,l),
(929,715,l),
(252,715,l)
);
},
{
closed = 1;
nodes = (
(349,590,l),
(426,590,l),
(426,259,l),
(238,259,l)
);
}
);
width = 972;
}
);
note = AE;
unicode = 198;
},
{
glyphname = Oslash;
kernLeft = C;
kernRight = O;
layers = (
{
hints = (
{
horizontal = 1;
place = (-16, 119);
place = (-16, 119);
type = Stem;
},
{
horizontal = 1;
place = (610, 119);
place = (610, 119);
type = Stem;
},
{
place = (24, 148);
place = (24, 148);
type = Stem;
},
{
place = (565, 148);
place = (565, 148);
type = Stem;
},
{
horizontal = 1;
place = (725, -20);
target = down;
type = TopGhost;
}
);
layerId = m01;
shapes = (
{
closed = 1;
nodes = (
(79,-21,l),
(150,58,l),
(207,11,o),
(281,-16,o),
(369,-16,cs),
(580,-16,o),
(713,142,o),
(713,356,cs),
(713,453,o),
(685,539,o),
(635,604,c),
(706,683,l),
(657,725,l),
(591,651,l),
(534,700,o),
(458,729,o),
(369,729,cs),
(158,729,o),
(24,570,o),
(24,356,cs),
(24,257,o),
(52,170,o),
(104,105,c),
(30,21,l)
);
},
{
closed = 1;
nodes = (
(172,499,o),
(239,610,o),
(370,610,cs),
(427,610,o),
(472,589,o),
(504,553,c),
(200,212,l),
(181,253,o),
(172,302,o),
(172,356,cs)
);
},
{
closed = 1;
nodes = (
(314,103,o),
(270,123,o),
(238,157,c),
(539,496,l),
(556,456,o),
(565,408,o),
(565,356,cs),
(565,214,o),
(501,103,o),
(370,103,cs)
);
}
);
width = 737;
}
);
note = Oslash;
unicode = 216;
},
{
glyphname = infinity;
layers = (
{
hints = (
{
horizontal = 1;
place = (124, 100);
place = (124, 100);
type = Stem;
},
{
horizontal = 1;
place = (385, 100);
place = (385, 100);
type = Stem;
},
{
place = (27, 107);
place = (27, 107);
type = Stem;
},
{
place = (592, 106);
place = (592, 106);
type = Stem;
}
);
layerId = m01;
shapes = (
{
closed = 1;
nodes = (
(267,124,o),
(320,173,o),
(365,240,c),
(410,173,o),
(460,124,o),
(540,124,cs),
(635,124,o),
(698,197,o),
(698,305,cs),
(698,412,o),
(635,485,o),
(540,485,cs),
(460,485,o),
(410,436,o),
(365,369,c),
(320,436,o),
(267,485,o),
(184,485,cs),
(81,485,o),
(27,401,o),
(27,305,cs),
(27,208,o),
(80,124,o),
(184,124,cs)
);
},
{
closed = 1;
nodes = (
(238,385,o),
(268,347,o),
(293,304,c),
(268,263,o),
(238,224,o),
(196,224,cs),
(152,224,o),
(134,260,o),
(134,305,cs),
(134,349,o),
(152,385,o),
(196,385,cs)
);
},
{
closed = 1;
nodes = (
(489,224,o),
(461,263,o),
(436,304,c),
(461,347,o),
(489,385,o),
(529,385,cs),
(573,385,o),
(592,349,o),
(592,305,cs),
(592,260,o),
(573,224,o),
(529,224,cs)
);
}
);
width = 725;
}
);
note = infinity;
unicode = 8734;
},
{
glyphname = plusminus;
layers = (
{
hints = (
{
horizontal = 1;
place = (0, 100);
place = (0, 100);
type = Stem;
},
{
horizontal = 1;
place = (318, 100);
place = (318, 100);
type = Stem;
},
{
place = (232, 104);
place = (232, 104);
type = Stem;
}
);
layerId = m01;
shapes = (
{
closed = 1;
nodes = (
(35,318,l),
(232,318,l),
(232,155,l),
(336,155,l),
(336,318,l),
(534,318,l),
(534,418,l),
(336,418,l),
(336,581,l),
(232,581,l),
(232,418,l),
(35,418,l)
);
},
{
closed = 1;
nodes = (
(35,0,l),
(534,0,l),
(534,100,l),
(35,100,l)
);
}
);
width = 569;
}
);
note = plusminus;
unicode = 177;
},
{
glyphname = lessequal;
layers = (
{
hints = (
{
horizontal = 1;
place = (0, 98);
place = (0, 98);
type = Stem;
},
{
place = (45, 410);
place = (45, 410);
type = Stem;
},
{
place = (45, 98);
place = (45, 98);
type = Stem;
}
);
layerId = m01;
shapes = (
{
closed = 1;
nodes = (
(455,124,l),
(455,235,l),
(238,304,ls),
(205,315,o),
(143,330,o),
(143,330,c),
(143,332,l),
(143,332,o),
(205,349,o),
(238,360,cs),
(455,432,l),
(455,541,l),
(45,394,l),
(45,271,l)
);
},
{
closed = 1;
nodes = (
(45,0,l),
(455,0,l),
(455,98,l),
(45,98,l)
);
}
);
width = 500;
}
);
note = lessequal;
unicode = 8804;
},
{
glyphname = greaterequal;
layers = (
{
hints = (
{
horizontal = 1;
place = (0, 98);
place = (0, 98);
type = Stem;
},
{
place = (45, 410);
place = (45, 410);
type = Stem;
},
{
place = (357, 98);
place = (357, 98);
type = Stem;
}
);
layerId = m01;
shapes = (
{
closed = 1;
nodes = (
(45,541,l),
(45,430,l),
(262,361,ls),
(295,350,o),
(357,335,o),
(357,335,c),
(357,333,l),
(357,333,o),
(295,316,o),
(262,305,cs),
(45,233,l),
(45,124,l),
(455,271,l),
(455,394,l)
);
},
{
closed = 1;
nodes = (
(455,98,l),
(45,98,l),
(45,0,l),
(455,0,l)
);
}
);
width = 500;
}
);
note = greaterequal;
unicode = 8805;
},
{
glyphname = yen;
layers = (
{
hints = (
{
horizontal = 1;
place = (141, 59);
place = (141, 59);
type = Stem;
},
{
horizontal = 1;
place = (263, 59);
place = (263, 59);
type = Stem;
},
{
horizontal = 1;
place = (686, -20);
target = down;
type = TopGhost;
},
{
place = (242, 133);
place = (242, 133);
type = Stem;
},
{
horizontal = 1;
place = (0, 200);
place = (0, 200);
type = Stem;
}
);
layerId = m01;
shapes = (
{
closed = 1;
nodes = (
(68,263,l),
(242,263,l),
(242,200,l),
(68,200,l),
(68,141,l),
(242,141,l),
(242,0,l),
(375,0,l),
(375,141,l),
(549,141,l),
(549,200,l),
(375,200,l),
(375,263,l),
(549,263,l),
(549,322,l),
(399,322,l),
(611,686,l),
(459,686,l),
(352,484,ls),
(333,447,o),
(311,399,o),
(311,399,c),
(309,399,l),
(309,399,o),
(287,447,o),
(268,484,cs),
(160,686,l),
(4,686,l),
(215,322,l),
(68,322,l)
);
}
);
width = 618;
}
);
note = yen;
unicode = 165;
},
{
glyphname = mu;
layers = (
{
hints = (
{
horizontal = 1;
place = (-168, 21);
target = up;
type = BottomGhost;
},
{
horizontal = 1;
place = (-14, 115);
place = (-14, 115);
type = Stem;
},
{
horizontal = 1;
place = (513, -20);
target = down;
type = TopGhost;
},
{
place = (44, 135);
place = (44, 135);
type = Stem;
},
{
place = (367, 136);
place = (367, 136);
type = Stem;
},
{
horizontal = 1;
place = (0, 101);
place = (0, 101);
type = Stem;
}
);
layerId = m01;
shapes = (
{
closed = 1;
nodes = (
(44,-168,l),
(179,-168,l),
(179,2,l),
(182,2,l),
(195,-7,o),
(211,-14,o),
(240,-14,cs),
(295,-14,o),
(336,13,o),
(369,60,c),
(372,60,l),
(372,0,l),
(503,0,l),
(503,513,l),
(367,513,l),
(367,217,ls),
(367,149,o),
(328,101,o),
(264,101,cs),
(206,101,o),
(179,134,o),
(179,194,cs),
(179,513,l),
(44,513,l)
);
}
);
width = 547;
}
);
note = mu;
unicode = 181;
},
{
glyphname = partialdiff;
layers = (
{
hints = (
{
horizontal = 1;
place = (-14, 106);
place = (-14, 106);
type = Stem;
},
{
horizontal = 1;
place = (360, 103);
place = (360, 103);
type = Stem;
},
{
horizontal = 1;
place = (722, -20);
target = down;
type = TopGhost;
},
{
place = (29, 135);
place = (29, 135);
type = Stem;
},
{
place = (398, 141);
place = (398, 141);
type = Stem;
}
);
layerId = m01;
shapes = (
{
closed = 1;
nodes = (
(366,444,o),
(324,463,o),
(264,463,cs),
(129,463,o),
(29,363,o),
(29,215,cs),
(29,78,o),
(110,-14,o),
(269,-14,cs),
(453,-14,o),
(539,111,o),
(539,304,cs),
(539,556,o),
(390,709,o),
(139,722,c),
(139,603,l),
(268,587,o),
(368,537,o),
(391,417,c)
);
},
{
closed = 1;
nodes = (
(210,92,o),
(164,127,o),
(164,213,cs),
(164,311,o),
(219,360,o),
(292,360,cs),
(353,360,o),
(398,324,o),
(398,246,cs),
(398,164,o),
(354,92,o),
(271,92,cs)
);
}
);
width = 572;
}
);
note = partialdiff;
unicode = 8706;
},
{
glyphname = summation;
layers = (
{
hints = (
{
horizontal = 1;
place = (-100, 117);
place = (-100, 117);
type = Stem;
},
{
horizontal = 1;
place = (597, 118);
place = (597, 118);
type = Stem;
},
{
place = (34, 534);
place = (34, 534);
type = Stem;
},
{
place = (34, 162);
place = (34, 162);
type = Stem;
}
);
layerId = m01;
shapes = (
{
closed = 1;
nodes = (
(568,-100,l),
(568,17,l),
(189,17,l),
(189,19,l),
(458,289,l),
(458,349,l),
(196,595,l),
(196,597,l),
(558,597,l),
(558,715,l),
(34,715,l),
(34,590,l),
(316,317,l),
(316,315,l),
(34,25,l),
(34,-100,l)
);
}
);
width = 608;
}
);
note = summation;
unicode = 8721;
},
{
glyphname = product;
layers = (
{
hints = (
{
horizontal = 1;
place = (593, 122);
place = (593, 122);
type = Stem;
},
{
place = (58, 145);
place = (58, 145);
type = Stem;
},
{
place = (498, 145);
place = (498, 145);
type = Stem;
}
);
layerId = m01;
shapes = (
{
closed = 1;
nodes = (
(58,715,l),
(58,-100,l),
(203,-100,l),
(203,593,l),
(498,593,l),
(498,-100,l),
(643,-100,l),
(643,715,l)
);
}
);
width = 701;
}
);
note = product;
unicode = 8719;
},
{
glyphname = pi;
layers = (
{
hints = (
{
horizontal = 1;
place = (-1, 101);
place = (-1, 101);
type = Stem;
},
{
horizontal = 1;
place = (423, 90);
place = (423, 90);
type = Stem;
},
{
place = (92, 133);
place = (92, 133);
type = Stem;
},
{
place = (377, 133);
place = (377, 133);
type = Stem;
}
);
layerId = m01;
shapes = (
{
closed = 1;
nodes = (
(225,423,l),
(377,423,l),
(377,122,ls),
(377,25,o),
(444,-1,o),
(522,-1,cs),
(551,-1,o),
(567,0,o),
(579,1,c),
(579,101,l),
(578,101,o),
(565,100,o),
(550,100,cs),
(521,100,o),
(510,113,o),
(510,146,cs),
(510,423,l),
(590,423,l),
(590,513,l),
(15,513,l),
(15,423,l),
(92,423,l),
(92,0,l),
(225,0,l)
);
}
);
width = 611;
}
);
note = pi;
unicode = 960;
},
{
glyphname = integral;
layers = (
{
hints = (
{
horizontal = 1;
place = (-176, 105);
place = (-176, 105);
type = Stem;
},
{
horizontal = 1;
place = (730, -20);
target = down;
type = TopGhost;
},
{
place = (102, 136);
place = (102, 136);
type = Stem;
},
{
horizontal = 1;
place = (636, 105);
place = (636, 105);
type = Stem;
}
);
layerId = m01;
shapes = (
{
closed = 1;
nodes = (
(102,-17,ls),
(102,-59,o),
(81,-71,o),
(41,-71,cs),
(16,-71,o),
(-1,-67,o),
(-12,-63,c),
(-15,-63,l),
(-15,-165,l),
(6,-171,o),
(32,-176,o),
(72,-176,cs),
(138,-176,o),
(175,-165,o),
(205,-135,cs),
(226,-113,o),
(238,-83,o),
(238,-30,cs),
(238,582,ls),
(238,624,o),
(259,636,o),
(299,636,cs),
(324,636,o),
(341,632,o),
(352,628,c),
(355,628,l),
(355,730,l),
(334,736,o),
(308,741,o),
(268,741,cs),
(202,741,o),
(165,730,o),
(135,700,cs),
(114,678,o),
(102,648,o),
(102,595,cs)
);
}
);
width = 337;
}
);
note = integral;
unicode = 8747;
},
{
glyphname = ordfeminine;
layers = (
{
hints = (
{
horizontal = 1;
place = (226, 86);
place = (226, 86);
type = Stem;
},
{
horizontal = 1;
place = (611, 88);
place = (611, 88);
type = Stem;
},
{
place = (30, 124);
place = (30, 124);
type = Stem;
},
{
place = (323, 121);
place = (323, 121);
type = Stem;
}
);
layerId = m01;
shapes = (
{
closed = 1;
nodes = (
(459,236,l),
(459,242,l),
(449,249,o),
(444,269,o),
(444,303,cs),
(444,533,ls),
(444,638,o),
(385,699,o),
(249,699,cs),
(117,699,o),
(55,629,o),
(51,550,c),
(165,550,l),
(169,589,o),
(194,611,o),
(249,611,cs),
(297,611,o),
(320,591,o),
(320,560,cs),
(320,528,o),
(290,520,o),
(215,510,cs),
(108,496,o),
(30,464,o),
(30,366,cs),
(30,276,o),
(100,226,o),
(190,226,cs),
(261,226,o),
(298,254,o),
(320,286,c),
(322,286,l),
(325,266,o),
(330,245,o),
(337,236,c)
);
},
{
closed = 1;
nodes = (
(181,312,o),
(154,330,o),
(154,369,cs),
(154,407,o),
(183,424,o),
(243,437,cs),
(273,444,o),
(302,451,o),
(323,463,c),
(323,395,ls),
(323,352,o),
(286,312,o),
(220,312,cs)
);
}
);
width = 497;
}
);
note = ordfeminine;
unicode = 170;
},
{
glyphname = ordmasculine;
layers = (
{
hints = (
{
horizontal = 1;
place = (222, 95);
place = (222, 95);
type = Stem;
},
{
horizontal = 1;
place = (604, 95);
place = (604, 95);
type = Stem;
},
{
place = (24, 129);
place = (24, 129);
type = Stem;
},
{
place = (370, 129);
place = (370, 129);
type = Stem;
}
);
layerId = m01;
shapes = (
{
closed = 1;
nodes = (
(404,222,o),
(499,326,o),
(499,460,cs),
(499,595,o),
(404,699,o),
(262,699,cs),
(119,699,o),
(24,595,o),
(24,460,cs),
(24,326,o),
(119,222,o),
(262,222,cs)
);
},
{
closed = 1;
nodes = (
(190,317,o),
(153,376,o),
(153,460,cs),
(153,544,o),
(190,604,o),
(262,604,cs),
(333,604,o),
(370,544,o),
(370,460,cs),
(370,376,o),
(333,317,o),
(262,317,cs)
);
}
);
width = 523;
}
);
note = ordmasculine;
unicode = 186;
},
{
glyphname = Omega;
layers = (
{
hints = (
{
horizontal = 1;
place = (0, 111);
place = (0, 111);
type = Stem;
},
{
horizontal = 1;
place = (610, 119);
place = (610, 119);
type = Stem;
},
{
place = (24, 148);
place = (24, 148);
type = Stem;
},
{
place = (565, 148);
place = (565, 148);
type = Stem;
}
);
layerId = m01;
shapes = (
{
closed = 1;
nodes = (
(501,610,o),
(565,514,o),
(565,362,cs),
(565,219,o),
(514,131,o),
(411,107,c),
(411,0,l),
(706,0,l),
(706,111,l),
(594,111,l),
(594,113,l),
(677,162,o),
(713,268,o),
(713,375,cs),
(713,582,o),
(580,729,o),
(369,729,cs),
(158,729,o),
(24,582,o),
(24,375,cs),
(24,268,o),
(61,162,o),
(144,113,c),
(144,111,l),
(31,111,l),
(31,0,l),
(327,0,l),
(327,107,l),
(224,131,o),
(172,219,o),
(172,362,cs),
(172,514,o),
(237,610,o),
(370,610,cs)
);
}
);
width = 737;
}
);
note = Omega;
unicode = 8486;
},
{
glyphname = ae;
kernLeft = a;
kernRight = e;
layers = (
{
hints = (
{
horizontal = 1;
place = (-15, 105);
place = (-15, 105);
type = Stem;
},
{
horizontal = 1;
place = (218, 94);
place = (218, 94);
type = Stem;
},
{
horizontal = 1;
place = (429, 97);
place = (429, 97);
type = Stem;
},
{
place = (19, 132);
place = (19, 132);
type = Stem;
},
{
place = (352, 129);
place = (352, 129);
type = Stem;
},
{
place = (711, 142);
place = (711, 142);
type = Stem;
},
{
horizontal = 1;
place = (422, 105);
place = (422, 105);
type = Stem;
},
{
horizontal = 1;
place = (-12, 95);
place = (-12, 95);
type = Stem;
}
);
layerId = m01;
shapes = (
{
closed = 1;
nodes = (
(745,-15,o),
(826,62,o),
(845,153,c),
(711,153,l),
(696,114,o),
(665,90,o),
(612,90,cs),
(535,90,o),
(491,139,o),
(481,218,c),
(853,218,l),
(853,401,o),
(765,527,o),
(600,527,cs),
(535,527,o),
(480,505,o),
(438,467,c),
(404,505,o),
(348,526,o),
(264,526,cs),
(114,526,o),
(47,447,o),
(43,357,c),
(164,357,l),
(168,406,o),
(199,429,o),
(263,429,cs),
(320,429,o),
(349,405,o),
(349,368,cs),
(349,329,o),
(310,322,o),
(225,310,cs),
(111,294,o),
(19,258,o),
(19,145,cs),
(19,43,o),
(95,-12,o),
(206,-12,cs),
(304,-12,o),
(353,13,o),
(409,72,c),
(412,72,l),
(456,18,o),
(523,-15,o),
(613,-15,cs)
);
},
{
closed = 1;
nodes = (
(664,422,o),
(707,377,o),
(711,312,c),
(483,312,l),
(495,379,o),
(530,422,o),
(602,422,cs)
);
},
{
closed = 1;
nodes = (
(183,83,o),
(151,100,o),
(151,148,cs),
(151,196,o),
(186,212,o),
(257,228,cs),
(291,236,o),
(328,244,o),
(352,258,c),
(352,181,ls),
(352,131,o),
(309,83,o),
(231,83,cs)
);
}
);
width = 872;
}
);
note = ae;
unicode = 230;
},
{
glyphname = oslash;
kernLeft = c;
kernRight = o;
layers = (
{
hints = (
{
horizontal = 1;
place = (-15, 104);
place = (-15, 104);
type = Stem;
},
{
horizontal = 1;
place = (424, 103);
place = (424, 103);
type = Stem;
},
{
place = (19, 138);
place = (19, 138);
type = Stem;
},
{
place = (417, 138);
place = (417, 138);
type = Stem;
},
{
horizontal = 1;
place = (1, 21);
target = up;
type = BottomGhost;
}
);
layerId = m01;
shapes = (
{
closed = 1;
nodes = (
(63,-36,l),
(127,34,l),
(170,3,o),
(225,-15,o),
(287,-15,cs),
(446,-15,o),
(555,103,o),
(555,256,cs),
(555,326,o),
(531,390,o),
(491,437,c),
(551,504,l),
(512,541,l),
(451,474,l),
(407,507,o),
(351,527,o),
(287,527,cs),
(128,527,o),
(19,409,o),
(19,256,cs),
(19,183,o),
(43,119,o),
(86,71,c),
(23,1,l)
);
},
{
closed = 1;
nodes = (
(157,356,o),
(203,424,o),
(287,424,cs),
(323,424,o),
(352,411,o),
(374,388,c),
(172,166,l),
(162,191,o),
(157,222,o),
(157,256,cs)
);
},
{
closed = 1;
nodes = (
(253,89,o),
(225,100,o),
(204,120,c),
(403,340,l),
(412,316,o),
(417,288,o),
(417,256,cs),
(417,156,o),
(370,89,o),
(287,89,cs)
);
}
);
width = 574;
}
);
note = oslash;
unicode = 248;
},
{
glyphname = questiondown;
kernRight = questiondown;
layers = (
{
hints = (
{
horizontal = 1;
place = (-140, 115);
place = (-140, 115);
type = Stem;
},
{
horizontal = 1;
place = (443, 145);
place = (443, 145);
type = Stem;
},
{
place = (16, 136);
place = (16, 136);
type = Stem;
},
{
place = (203, 146);
place = (203, 146);
type = Stem;
},
{
place = (383, 129);
place = (383, 129);
type = Stem;
},
{
place = (215, 122);
place = (215, 122);
type = Stem;
}
);
layerId = m01;
shapes = (
{
closed = 1;
nodes = (
(422,-140,o),
(509,-33,o),
(512,100,c),
(383,100,l),
(382,22,o),
(332,-25,o),
(258,-25,cs),
(197,-25,o),
(152,12,o),
(152,73,cs),
(152,134,o),
(190,158,o),
(233,189,cs),
(294,233,o),
(337,262,o),
(337,379,c),
(215,379,l),
(215,308,o),
(186,298,o),
(111,241,cs),
(68,208,o),
(16,168,o),
(16,69,cs),
(16,-49,o),
(106,-140,o),
(259,-140,cs)
);
},
{
closed = 1;
nodes = (
(203,443,l),
(349,443,l),
(349,588,l),
(203,588,l)
);
}
);
width = 525;
}
);
note = questiondown;
unicode = 191;
},
{
glyphname = exclamdown;
kernRight = exclamdown;
layers = (
{
hints = (
{
horizontal = 1;
place = (443, 145);
place = (443, 145);
type = Stem;
},
{
place = (54, 146);
place = (54, 146);
type = Stem;
}
);
layerId = m01;
shapes = (
{
closed = 1;
nodes = (
(56,-127,l),
(198,-127,l),
(198,31,l),
(160,379,l),
(94,379,l),
(56,31,l)
);
},
{
closed = 1;
nodes = (
(54,443,l),
(200,443,l),
(200,588,l),
(54,588,l)
);
}
);
width = 254;
}
);
note = exclamdown;
unicode = 161;
},
{
glyphname = logicalnot;
layers = (
{
hints = (
{
horizontal = 1;
place = (318, 100);
place = (318, 100);
type = Stem;
},
{
place = (354, 104);
place = (354, 104);
type = Stem;
}
);
layerId = m01;
shapes = (
{
closed = 1;
nodes = (
(35,318,l),
(354,318,l),
(354,145,l),
(458,145,l),
(458,418,l),
(35,418,l)
);
}
);
width = 513;
}
);
note = logicalnot;
unicode = 172;
},
{
glyphname = radical;
layers = (
{
hints = (
{
horizontal = 1;
place = (215, 118);
place = (215, 118);
type = Stem;
},
{
horizontal = 1;
place = (715, -20);
target = down;
type = TopGhost;
},
{
place = (17, 599);
place = (17, 599);
type = Stem;
}
);
layerId = m01;
shapes = (
{
closed = 1;
nodes = (
(17,215,l),
(102,215,l),
(233,-100,l),
(352,-100,l),
(616,715,l),
(486,715,l),
(319,195,ls),
(300,137,o),
(288,81,o),
(288,81,c),
(286,81,l),
(286,81,o),
(269,136,o),
(246,194,cs),
(191,333,l),
(17,333,l)
);
}
);
width = 622;
}
);
note = radical;
unicode = 8730;
},
{
glyphname = florin;
layers = (
{
hints = (
{
horizontal = 1;
place = (-155, 98);
place = (-155, 98);
type = Stem;
},
{
horizontal = 1;
place = (323, 90);
place = (323, 90);
type = Stem;
},
{
horizontal = 1;
place = (595, 103);
place = (595, 103);
type = Stem;
},
{
place = (-15, 390);
place = (-15, 390);
type = Stem;
},
{
horizontal = 1;
place = (694, -20);
target = down;
type = TopGhost;
}
);
layerId = m01;
shapes = (
{
closed = 1;
nodes = (
(30,323,l),
(108,323,l),
(61,-4,ls),
(54,-57,o),
(28,-60,o),
(-15,-57,c),
(-15,-150,l),
(104,-168,o),
(180,-146,o),
(198,-18,cs),
(247,323,l),
(360,323,l),
(360,413,l),
(260,413,l),
(279,542,ls),
(287,595,o),
(317,600,o),
(375,595,c),
(375,694,l),
(252,710,o),
(161,689,o),
(142,556,cs),
(121,413,l),
(30,413,l)
);
}
);
width = 398;
}
);
note = florin;
unicode = 402;
},
{
glyphname = approxequal;
layers = (
{
hints = (
{
horizontal = 1;
place = (148, 138);
place = (148, 138);
type = Stem;
},
{
horizontal = 1;
place = (339, 142);
place = (339, 142);
type = Stem;
},
{
place = (53, 95);
place = (53, 95);
type = Stem;
},
{
horizontal = 1;
place = (342, 138);
place = (342, 138);
type = Stem;
},
{
horizontal = 1;
place = (145, 142);
place = (145, 142);
type = Stem;
}
);
layerId = m01;
shapes = (
{
closed = 1;
nodes = (
(148,339,l),
(151,362,o),
(162,374,o),
(183,374,cs),
(225,374,o),
(326,342,o),
(401,342,cs),
(486,342,o),
(525,399,o),
(526,480,c),
(431,480,l),
(429,459,o),
(420,448,o),
(396,448,cs),
(352,448,o),
(248,481,o),
(184,481,cs),
(107,481,o),
(54,434,o),
(53,339,c)
);
},
{
closed = 1;
nodes = (
(148,145,l),
(151,168,o),
(162,180,o),
(183,180,cs),
(225,180,o),
(326,148,o),
(401,148,cs),
(486,148,o),
(525,205,o),
(526,286,c),
(431,286,l),
(429,265,o),
(420,254,o),
(396,254,cs),
(352,254,o),
(248,287,o),
(184,287,cs),
(107,287,o),
(54,240,o),
(53,145,c)
);
}
);
width = 562;
}
);
note = approxequal;
unicode = 8776;
},
{
glyphname = Delta;
layers = (
{
hints = (
{
horizontal = 1;
place = (0, 113);
place = (0, 113);
type = Stem;
},
{
horizontal = 1;
place = (715, -20);
target = down;
type = TopGhost;
},
{
place = (21, 622);
place = (21, 622);
type = Stem;
},
{
horizontal = 1;
place = (582, 133);
place = (582, 133);
type = Stem;
}
);
layerId = m01;
shapes = (
{
closed = 1;
nodes = (
(21,0,l),
(643,0,l),
(643,99,l),
(406,715,l),
(256,715,l),
(21,98,l)
);
},
{
closed = 1;
nodes = (
(294,461,ls),
(308,498,o),
(329,582,o),
(329,582,c),
(331,582,l),
(331,582,o),
(351,498,o),
(365,461,cs),
(493,113,l),
(167,113,l)
);
}
);
width = 664;
}
);
note = Delta;
unicode = 8710;
},
{
glyphname = guillemotleft;
kernLeft = guillemotleft;
kernRight = guillemotleft;
layers = (
{
hints = (
{
horizontal = 1;
place = (59, 398);
place = (59, 398);
type = Stem;
},
{
place = (54, 144);
place = (54, 144);
type = Stem;
},
{
place = (244, 144);
place = (244, 144);
type = Stem;
}
);
layerId = m01;
shapes = (
{
closed = 1;
nodes = (
(388,59,l),
(388,185,l),
(308,256,l),
(308,258,l),
(388,329,l),
(388,457,l),
(244,324,l),
(244,192,l)
);
},
{
closed = 1;
nodes = (
(198,59,l),
(198,185,l),
(118,256,l),
(118,258,l),
(198,329,l),
(198,457,l),
(54,324,l),
(54,192,l)
);
}
);
width = 447;
}
);
note = guillemotleft;
unicode = 171;
},
{
glyphname = guillemotright;
kernLeft = guillemotright;
kernRight = guillemotright;
layers = (
{
hints = (
{
horizontal = 1;
place = (59, 398);
place = (59, 398);
type = Stem;
},
{
place = (59, 144);
place = (59, 144);
type = Stem;
},
{
place = (249, 144);
place = (249, 144);
type = Stem;
}
);
layerId = m01;
shapes = (
{
closed = 1;
nodes = (
(59,457,l),
(59,331,l),
(139,260,l),
(139,258,l),
(59,187,l),
(59,59,l),
(203,192,l),
(203,324,l)
);
},
{
closed = 1;
nodes = (
(249,457,l),
(249,331,l),
(329,260,l),
(329,258,l),
(249,187,l),
(249,59,l),
(393,192,l),
(393,324,l)
);
}
);
width = 447;
}
);
note = guillemotright;
unicode = 187;
},
{
glyphname = ellipsis;
kernLeft = comma;
kernRight = comma;
layers = (
{
hints = (
{
horizontal = 1;
place = (0, 145);
place = (0, 145);
type = Stem;
},
{
place = (36, 146);
place = (36, 146);
type = Stem;
},
{
place = (288, 146);
place = (288, 146);
type = Stem;
},
{
place = (540, 146);
place = (540, 146);
type = Stem;
}
);
layerId = m01;
shapes = (
{
closed = 1;
nodes = (
(540,0,l),
(686,0,l),
(686,145,l),
(540,145,l)
);
},
{
closed = 1;
nodes = (
(36,0,l),
(182,0,l),
(182,145,l),
(36,145,l)
);
},
{
closed = 1;
nodes = (
(288,0,l),
(434,0,l),
(434,145,l),
(288,145,l)
);
}
);
width = 722;
}
);
note = ellipsis;
unicode = 8230;
},
{
glyphname = Agrave;
kernLeft = A;
kernRight = A;
layers = (
{
hints = (
{
horizontal = 1;
place = (0, 21);
target = up;
type = BottomGhost;
},
{
horizontal = 1;
place = (152, 111);
place = (152, 111);
type = Stem;
},
{
horizontal = 1;
place = (715, -20);
target = down;
type = TopGhost;
},
{
horizontal = 1;
place = (753, 125);
place = (753, 125);
type = Stem;
},
{
place = (3, 651);
place = (3, 651);
type = Stem;
},
{
horizontal = 1;
place = (579, 136);
place = (579, 136);
type = Stem;
}
);
layerId = m01;
shapes = (
{
closed = 1;
nodes = (
(3,0,l),
(150,0,l),
(197,152,l),
(455,152,l),
(503,0,l),
(654,0,l),
(402,715,l),
(252,715,l)
);
},
{
closed = 1;
nodes = (
(295,469,ls),
(307,507,o),
(325,579,o),
(325,579,c),
(327,579,l),
(327,579,o),
(344,507,o),
(356,469,cs),
(420,263,l),
(231,263,l)
);
},
{
closed = 1;
nodes = (
(279,753,l),
(385,753,l),
(343,878,l),
(184,878,l)
);
}
);
width = 659;
}
);
note = Agrave;
unicode = 192;
},
{
glyphname = Atilde;
kernLeft = A;
kernRight = A;
layers = (
{
hints = (
{
horizontal = 1;
place = (0, 21);
target = up;
type = BottomGhost;
},
{
horizontal = 1;
place = (152, 111);
place = (152, 111);
type = Stem;
},
{
horizontal = 1;
place = (715, -20);
target = down;
type = TopGhost;
},
{
place = (177, 72);
place = (177, 72);
type = Stem;
},
{
place = (405, 72);
place = (405, 72);
type = Stem;
},
{
horizontal = 1;
place = (579, 136);
place = (579, 136);
type = Stem;
},
{
horizontal = 1;
place = (755, 116);
place = (755, 116);
type = Stem;
},
{
horizontal = 1;
place = (757, 118);
place = (757, 118);
type = Stem;
}
);
layerId = m01;
shapes = (
{
closed = 1;
nodes = (
(3,0,l),
(150,0,l),
(197,152,l),
(455,152,l),
(503,0,l),
(654,0,l),
(402,715,l),
(252,715,l)
);
},
{
closed = 1;
nodes = (
(295,469,ls),
(307,507,o),
(325,579,o),
(325,579,c),
(327,579,l),
(327,579,o),
(344,507,o),
(356,469,cs),
(420,263,l),
(231,263,l)
);
},
{
closed = 1;
nodes = (
(443,755,o),
(477,803,o),
(477,871,c),
(405,871,l),
(401,852,o),
(395,840,o),
(376,840,cs),
(349,840,o),
(316,875,o),
(267,875,cs),
(217,875,o),
(177,835,o),
(177,757,c),
(249,757,l),
(252,776,o),
(262,788,o),
(276,788,cs),
(303,788,o),
(337,755,o),
(385,755,cs)
);
}
);
width = 659;
}
);
note = Atilde;
unicode = 195;
},
{
glyphname = Otilde;
kernLeft = C;
kernRight = O;
layers = (
{
hints = (
{
horizontal = 1;
place = (-16, 119);
place = (-16, 119);
type = Stem;
},
{
horizontal = 1;
place = (610, 119);
place = (610, 119);
type = Stem;
},
{
place = (24, 148);
place = (24, 148);
type = Stem;
},
{
place = (565, 148);
place = (565, 148);
type = Stem;
},
{
horizontal = 1;
place = (755, 116);
place = (755, 116);
type = Stem;
},
{
place = (446, 72);
place = (446, 72);
type = Stem;
},
{
horizontal = 1;
place = (757, 118);
place = (757, 118);
type = Stem;
},
{
place = (218, 72);
place = (218, 72);
type = Stem;
}
);
layerId = m01;
shapes = (
{
closed = 1;
nodes = (
(580,-16,o),
(713,142,o),
(713,356,cs),
(713,570,o),
(580,729,o),
(369,729,cs),
(158,729,o),
(24,570,o),
(24,356,cs),
(24,142,o),
(158,-16,o),
(369,-16,cs)
);
},
{
closed = 1;
nodes = (
(239,103,o),
(172,214,o),
(172,356,cs),
(172,499,o),
(239,610,o),
(370,610,cs),
(501,610,o),
(565,499,o),
(565,356,cs),
(565,214,o),
(501,103,o),
(370,103,cs)
);
},
{
closed = 1;
nodes = (
(484,755,o),
(518,803,o),
(518,871,c),
(446,871,l),
(442,852,o),
(436,840,o),
(417,840,cs),
(390,840,o),
(357,875,o),
(308,875,cs),
(258,875,o),
(218,835,o),
(218,757,c),
(290,757,l),
(293,776,o),
(303,788,o),
(317,788,cs),
(344,788,o),
(378,755,o),
(426,755,cs)
);
}
);
width = 737;
}
);
note = Otilde;
unicode = 213;
},
{
glyphname = OE;
kernLeft = C;
kernRight = E;
layers = (
{
hints = (
{
horizontal = 1;
place = (-16, 119);
place = (-16, 119);
type = Stem;
},
{
horizontal = 1;
place = (312, 117);
place = (312, 117);
type = Stem;
},
{
horizontal = 1;
place = (590, 125);
place = (590, 125);
type = Stem;
},
{
place = (24, 148);
place = (24, 148);
type = Stem;
},
{
place = (510, 143);
place = (510, 143);
type = Stem;
},
{
horizontal = 1;
place = (0, 131);
place = (0, 131);
type = Stem;
},
{
horizontal = 1;
place = (610, 119);
place = (610, 119);
type = Stem;
}
);
layerId = m01;
shapes = (
{
closed = 1;
nodes = (
(413,-16,o),
(466,6,o),
(510,43,c),
(510,0,l),
(1018,0,l),
(1018,131,l),
(653,131,l),
(653,312,l),
(959,312,l),
(959,429,l),
(653,429,l),
(653,590,l),
(1007,590,l),
(1007,715,l),
(510,715,l),
(510,673,l),
(468,708,o),
(416,729,o),
(355,729,cs),
(165,729,o),
(24,570,o),
(24,356,cs),
(24,142,o),
(165,-16,o),
(355,-16,cs)
);
},
{
closed = 1;
nodes = (
(240,103,o),
(172,214,o),
(172,356,cs),
(172,499,o),
(240,610,o),
(361,610,cs),
(429,610,o),
(479,583,o),
(510,534,c),
(510,175,l),
(479,127,o),
(430,103,o),
(361,103,cs)
);
}
);
width = 1053;
}
);
note = OE;
unicode = 338;
},
{
glyphname = oe;
kernLeft = c;
kernRight = e;
layers = (
{
hints = (
{
horizontal = 1;
place = (-15, 104);
place = (-15, 104);
type = Stem;
},
{
horizontal = 1;
place = (218, 94);
place = (218, 94);
type = Stem;
},
{
horizontal = 1;
place = (424, 103);
place = (424, 103);
type = Stem;
},
{
place = (19, 138);
place = (19, 138);
type = Stem;
},
{
place = (417, 135);
place = (417, 135);
type = Stem;
},
{
place = (782, 142);
place = (782, 142);
type = Stem;
}
);
layerId = m01;
shapes = (
{
closed = 1;
nodes = (
(371,-15,o),
(438,18,o),
(483,71,c),
(527,18,o),
(594,-15,o),
(684,-15,cs),
(816,-15,o),
(897,62,o),
(916,153,c),
(782,153,l),
(767,114,o),
(736,90,o),
(683,90,cs),
(606,90,o),
(562,139,o),
(552,218,c),
(924,218,l),
(924,401,o),
(836,527,o),
(671,527,cs),
(591,527,o),
(527,493,o),
(484,440,c),
(439,494,o),
(371,527,o),
(287,527,cs),
(128,527,o),
(19,409,o),
(19,256,cs),
(19,103,o),
(128,-15,o),
(287,-15,cs)
);
},
{
closed = 1;
nodes = (
(203,89,o),
(157,156,o),
(157,256,cs),
(157,356,o),
(203,424,o),
(287,424,cs),
(370,424,o),
(417,356,o),
(417,256,cs),
(417,156,o),
(370,89,o),
(287,89,cs)
);
},
{
closed = 1;
nodes = (
(735,422,o),
(778,377,o),
(782,312,c),
(554,312,l),
(566,379,o),
(601,422,o),
(673,422,cs)
);
}
);
width = 943;
}
);
note = oe;
unicode = 339;
},
{
glyphname = endash;
kernLeft = hyphen;
kernRight = hyphen;
layers = (
{
hints = (
{
horizontal = 1;
place = (196, 117);
place = (196, 117);
type = Stem;
},
{
place = (44, 465);
place = (44, 465);
type = Stem;
}
);
layerId = m01;
shapes = (
{
closed = 1;
nodes = (
(44,196,l),
(509,196,l),
(509,313,l),
(44,313,l)
);
}
);
width = 553;
}
);
note = endash;
unicode = 8211;
},
{
glyphname = emdash;
kernLeft = hyphen;
kernRight = hyphen;
layers = (
{
hints = (
{
horizontal = 1;
place = (196, 117);
place = (196, 117);
type = Stem;
},
{
place = (44, 800);
place = (44, 800);
type = Stem;
}
);
layerId = m01;
shapes = (
{
closed = 1;
nodes = (
(44,196,l),
(844,196,l),
(844,313,l),
(44,313,l)
);
}
);
width = 888;
}
);
note = emdash;
unicode = 8212;
},
{
glyphname = quotedblleft;
kernLeft = quotedblleft;
kernRight = quotedblleft;
layers = (
{
hints = (
{
horizontal = 1;
place = (450, 130);
place = (450, 130);
type = Stem;
},
{
horizontal = 1;
place = (718, -20);
target = down;
type = TopGhost;
},
{
place = (32, 135);
place = (32, 135);
type = Stem;
},
{
place = (230, 135);
place = (230, 135);
type = Stem;
}
);
layerId = m01;
shapes = (
{
closed = 1;
nodes = (
(230,450,l),
(365,450,l),
(365,580,l),
(299,580,l),
(299,629,o),
(336,661,o),
(367,671,c),
(367,718,l),
(300,707,o),
(230,659,o),
(230,568,cs)
);
},
{
closed = 1;
nodes = (
(32,450,l),
(167,450,l),
(167,580,l),
(101,580,l),
(101,629,o),
(138,661,o),
(169,671,c),
(169,718,l),
(102,707,o),
(32,659,o),
(32,568,cs)
);
}
);
width = 399;
}
);
note = quotedblleft;
unicode = 8220;
},
{
glyphname = quotedblright;
kernLeft = quotedblright;
kernRight = quotedblright;
layers = (
{
hints = (
{
horizontal = 1;
place = (585, 130);
place = (585, 130);
type = Stem;
},
{
place = (34, 135);
place = (34, 135);
type = Stem;
},
{
place = (232, 135);
place = (232, 135);
type = Stem;
}
);
layerId = m01;
shapes = (
{
closed = 1;
nodes = (
(230,447,l),
(297,458,o),
(367,506,o),
(367,597,cs),
(367,715,l),
(232,715,l),
(232,585,l),
(298,585,l),
(298,536,o),
(261,504,o),
(230,494,c)
);
},
{
closed = 1;
nodes = (
(32,447,l),
(99,458,o),
(169,506,o),
(169,597,cs),
(169,715,l),
(34,715,l),
(34,585,l),
(100,585,l),
(100,536,o),
(63,504,o),
(32,494,c)
);
}
);
width = 399;
}
);
note = quotedblright;
unicode = 8221;
},
{
glyphname = quoteleft;
kernLeft = quotedblleft;
kernRight = quotedblleft;
layers = (
{
hints = (
{
horizontal = 1;
place = (450, 130);
place = (450, 130);
type = Stem;
},
{
horizontal = 1;
place = (718, -20);
target = down;
type = TopGhost;
},
{
place = (32, 135);
place = (32, 135);
type = Stem;
}
);
layerId = m01;
shapes = (
{
closed = 1;
nodes = (
(32,450,l),
(167,450,l),
(167,580,l),
(101,580,l),
(101,629,o),
(138,661,o),
(169,671,c),
(169,718,l),
(102,707,o),
(32,659,o),
(32,568,cs)
);
}
);
width = 201;
}
);
note = quoteleft;
unicode = 8216;
},
{
glyphname = quoteright;
kernLeft = quotedblright;
kernRight = quotedblright;
layers = (
{
hints = (
{
horizontal = 1;
place = (585, 130);
place = (585, 130);
type = Stem;
},
{
place = (34, 135);
place = (34, 135);
type = Stem;
}
);
layerId = m01;
shapes = (
{
closed = 1;
nodes = (
(32,447,l),
(99,458,o),
(169,506,o),
(169,597,cs),
(169,715,l),
(34,715,l),
(34,585,l),
(100,585,l),
(100,536,o),
(63,504,o),
(32,494,c)
);
}
);
width = 201;
}
);
note = quoteright;
unicode = 8217;
},
{
glyphname = divide;
kernLeft = minus;
kernRight = minus;
layers = (
{
hints = (
{
horizontal = 1;
place = (74, 133);
place = (74, 133);
type = Stem;
},
{
horizontal = 1;
place = (278, 100);
place = (278, 100);
type = Stem;
},
{
horizontal = 1;
place = (450, 132);
place = (450, 132);
type = Stem;
},
{
place = (211, 146);
place = (211, 146);
type = Stem;
}
);
layerId = m01;
shapes = (
{
closed = 1;
nodes = (
(211,74,l),
(357,74,l),
(357,207,l),
(211,207,l)
);
},
{
closed = 1;
nodes = (
(211,450,l),
(357,450,l),
(357,582,l),
(211,582,l)
);
},
{
closed = 1;
nodes = (
(35,278,l),
(534,278,l),
(534,378,l),
(35,378,l)
);
}
);
width = 569;
}
);
note = divide;
unicode = 247;
},
{
glyphname = lozenge;
layers = (
{
hints = (
{
horizontal = 1;
place = (0, 21);
target = up;
type = BottomGhost;
},
{
horizontal = 1;
place = (715, -20);
target = down;
type = TopGhost;
},
{
place = (18, 524);
place = (18, 524);
type = Stem;
},
{
horizontal = 1;
place = (0, 122);
place = (0, 122);
type = Stem;
},
{
horizontal = 1;
place = (593, 122);
place = (593, 122);
type = Stem;
}
);
layerId = m01;
shapes = (
{
closed = 1;
nodes = (
(340,715,l),
(219,715,l),
(18,358,l),
(220,0,l),
(341,0,l),
(542,357,l)
);
},
{
closed = 1;
nodes = (
(278,593,l),
(280,593,l),
(403,354,l),
(282,122,l),
(280,122,l),
(156,360,l)
);
}
);
width = 560;
}
);
note = lozenge;
unicode = 9674;
},
{
glyphname = ydieresis;
kernLeft = yacute;
kernRight = yacute;
layers = (
{
hints = (
{
horizontal = 1;
place = (-168, 107);
place = (-168, 107);
type = Stem;
},
{
horizontal = 1;
place = (513, -20);
target = down;
type = TopGhost;
},
{
horizontal = 1;
place = (581, 114);
place = (581, 114);
type = Stem;
},
{
place = (73, 128);
place = (73, 128);
type = Stem;
},
{
place = (296, 128);
place = (296, 128);
type = Stem;
}
);
layerId = m01;
shapes = (
{
closed = 1;
nodes = (
(55,-168,l),
(135,-168,ls),
(239,-168,o),
(277,-127,o),
(316,-13,cs),
(495,513,l),
(358,513,l),
(286,282,ls),
(270,235,o),
(256,170,o),
(256,170,c),
(254,170,l),
(254,170,o),
(237,235,o),
(221,282,cs),
(145,513,l),
(2,513,l),
(140,148,ls),
(169,70,o),
(179,37,o),
(179,9,cs),
(179,-33,o),
(157,-61,o),
(103,-61,cs),
(55,-61,l)
);
},
{
closed = 1;
nodes = (
(296,581,l),
(424,581,l),
(424,695,l),
(296,695,l)
);
},
{
closed = 1;
nodes = (
(73,581,l),
(201,581,l),
(201,695,l),
(73,695,l)
);
}
);
width = 497;
}
);
note = ydieresis;
unicode = 255;
},
{
glyphname = Ydieresis;
kernLeft = Yacute;
kernRight = Yacute;
layers = (
{
hints = (
{
horizontal = 1;
place = (0, 21);
target = up;
type = BottomGhost;
},
{
horizontal = 1;
place = (715, -20);
target = down;
type = TopGhost;
},
{
horizontal = 1;
place = (753, 114);
place = (753, 114);
type = Stem;
},
{
place = (242, 145);
place = (242, 145);
type = Stem;
},
{
place = (149, 128);
place = (149, 128);
type = Stem;
},
{
place = (352, 128);
place = (352, 128);
type = Stem;
}
);
layerId = m01;
shapes = (
{
closed = 1;
nodes = (
(242,0,l),
(387,0,l),
(387,276,l),
(625,715,l),
(473,715,l),
(367,503,ls),
(346,460,o),
(319,401,o),
(319,401,c),
(317,401,l),
(317,401,o),
(292,460,o),
(270,503,cs),
(162,715,l),
(4,715,l),
(242,276,l)
);
},
{
closed = 1;
nodes = (
(352,753,l),
(480,753,l),
(480,867,l),
(352,867,l)
);
},
{
closed = 1;
nodes = (
(149,753,l),
(277,753,l),
(277,867,l),
(149,867,l)
);
}
);
width = 629;
}
);
note = Ydieresis;
unicode = 376;
},
{
glyphname = fraction;
layers = (
{
hints = (
{
horizontal = 1;
place = (0, 21);
target = up;
type = BottomGhost;
},
{
horizontal = 1;
place = (715, -20);
target = down;
type = TopGhost;
},
{
place = (-171, 586);
place = (-171, 586);
type = Stem;
}
);
layerId = m01;
shapes = (
{
closed = 1;
nodes = (
(-171,0,l),
(-82,0,l),
(415,715,l),
(325,715,l)
);
}
);
width = 244;
}
);
note = fraction;
unicode = 8260;
},
{
glyphname = Euro;
layers = (
{
hints = (
{
horizontal = 1;
place = (-16, 115);
place = (-16, 115);
type = Stem;
},
{
horizontal = 1;
place = (247, 59);
place = (247, 59);
type = Stem;
},
{
horizontal = 1;
place = (369, 59);
place = (369, 59);
type = Stem;
},
{
horizontal = 1;
place = (586, 114);
place = (586, 114);
type = Stem;
},
{
place = (65, 143);
place = (65, 143);
type = Stem;
},
{
place = (486, 132);
place = (486, 132);
type = Stem;
}
);
layerId = m01;
shapes = (
{
closed = 1;
nodes = (
(18,369,l),
(65,369,l),
(64,360,o),
(64,350,o),
(64,341,cs),
(64,329,o),
(64,317,o),
(65,306,c),
(18,306,l),
(18,247,l),
(72,247,l),
(102,85,o),
(210,-16,o),
(360,-16,cs),
(519,-16,o),
(610,90,o),
(618,238,c),
(486,238,l),
(477,157,o),
(439,99,o),
(362,99,cs),
(284,99,o),
(234,151,o),
(215,247,c),
(391,247,l),
(391,306,l),
(208,306,l),
(207,317,o),
(207,329,o),
(207,341,cs),
(207,350,o),
(207,360,o),
(208,369,c),
(391,369,l),
(391,428,l),
(214,428,l),
(231,525,o),
(279,586,o),
(357,586,cs),
(426,586,o),
(465,541,o),
(476,468,c),
(612,468,l),
(599,603,o),
(511,700,o),
(357,700,cs),
(205,700,o),
(98,591,o),
(71,428,c),
(18,428,l)
);
}
);
width = 630;
}
);
note = Euro;
unicode = 8364;
},
{
glyphname = guilsinglleft;
kernLeft = guillemotleft;
kernRight = guillemotleft;
layers = (
{
hints = (
{
horizontal = 1;
place = (55, 406);
place = (55, 406);
type = Stem;
},
{
place = (54, 164);
place = (54, 164);
type = Stem;
}
);
layerId = m01;
shapes = (
{
closed = 1;
nodes = (
(218,55,l),
(218,184,l),
(130,256,l),
(130,258,l),
(218,330,l),
(218,461,l),
(54,321,l),
(54,195,l)
);
}
);
width = 277;
}
);
note = guilsinglleft;
unicode = 8249;
},
{
glyphname = guilsinglright;
kernLeft = guillemotright;
kernRight = guillemotright;
layers = (
{
hints = (
{
horizontal = 1;
place = (55, 406);
place = (55, 406);
type = Stem;
},
{
place = (59, 164);
place = (59, 164);
type = Stem;
}
);
layerId = m01;
shapes = (
{
closed = 1;
nodes = (
(59,461,l),
(59,332,l),
(147,260,l),
(147,258,l),
(59,186,l),
(59,55,l),
(223,195,l),
(223,321,l)
);
}
);
width = 277;
}
);
note = guilsinglright;
unicode = 8250;
},
{
glyphname = fi;
kernLeft = f;
kernRight = d;
layers = (
{
hints = (
{
horizontal = 1;
place = (0, 21);
target = up;
type = BottomGhost;
},
{
horizontal = 1;
place = (419, 94);
place = (419, 94);
type = Stem;
},
{
horizontal = 1;
place = (593, 122);
place = (593, 122);
type = Stem;
},
{
place = (84, 136);
place = (84, 136);
type = Stem;
},
{
place = (373, 136);
place = (373, 136);
type = Stem;
},
{
horizontal = 1;
place = (609, 106);
place = (609, 106);
type = Stem;
}
);
layerId = m01;
shapes = (
{
closed = 1;
nodes = (
(14,419,l),
(84,419,l),
(84,0,l),
(220,0,l),
(220,419,l),
(312,419,l),
(312,513,l),
(220,513,l),
(220,551,ls),
(220,604,o),
(248,612,o),
(312,609,c),
(312,714,l),
(181,728,o),
(84,684,o),
(84,559,cs),
(84,513,l),
(14,513,l)
);
},
{
closed = 1;
nodes = (
(373,0,l),
(509,0,l),
(509,513,l),
(373,513,l)
);
},
{
closed = 1;
nodes = (
(373,593,l),
(509,593,l),
(509,715,l),
(373,715,l)
);
}
);
width = 553;
}
);
note = fi;
unicode = 64257;
},
{
glyphname = fl;
kernLeft = f;
kernRight = d;
layers = (
{
hints = (
{
horizontal = 1;
place = (0, 21);
target = up;
type = BottomGhost;
},
{
horizontal = 1;
place = (419, 94);
place = (419, 94);
type = Stem;
},
{
horizontal = 1;
place = (609, 106);
place = (609, 106);
type = Stem;
},
{
place = (84, 136);
place = (84, 136);
type = Stem;
},
{
place = (373, 136);
place = (373, 136);
type = Stem;
}
);
layerId = m01;
shapes = (
{
closed = 1;
nodes = (
(14,419,l),
(84,419,l),
(84,0,l),
(220,0,l),
(220,419,l),
(312,419,l),
(312,513,l),
(220,513,l),
(220,551,ls),
(220,604,o),
(248,612,o),
(312,609,c),
(312,714,l),
(181,728,o),
(84,684,o),
(84,559,cs),
(84,513,l),
(14,513,l)
);
},
{
closed = 1;
nodes = (
(373,0,l),
(509,0,l),
(509,715,l),
(373,715,l)
);
}
);
width = 555;
}
);
note = fl;
unicode = 64258;
},
{
glyphname = daggerdbl;
layers = (
{
hints = (
{
horizontal = 1;
place = (79, 107);
place = (79, 107);
type = Stem;
},
{
horizontal = 1;
place = (412, 107);
place = (412, 107);
type = Stem;
},
{
horizontal = 1;
place = (715, -20);
target = down;
type = TopGhost;
},
{
place = (217, 131);
place = (217, 131);
type = Stem;
}
);
layerId = m01;
shapes = (
{
closed = 1;
nodes = (
(34,412,l),
(217,412,l),
(217,186,l),
(34,186,l),
(34,79,l),
(217,79,l),
(217,-117,l),
(348,-117,l),
(348,79,l),
(531,79,l),
(531,186,l),
(348,186,l),
(348,412,l),
(531,412,l),
(531,519,l),
(348,519,l),
(348,715,l),
(217,715,l),
(217,519,l),
(34,519,l)
);
}
);
width = 565;
}
);
note = daggerdbl;
unicode = 8225;
},
{
glyphname = periodcentered;
kernLeft = periodcentered;
kernRight = periodcentered;
layers = (
{
hints = (
{
horizontal = 1;
place = (243, 145);
place = (243, 145);
type = Stem;
},
{
place = (36, 146);
place = (36, 146);
type = Stem;
}
);
layerId = m01;
shapes = (
{
closed = 1;
nodes = (
(36,243,l),
(182,243,l),
(182,388,l),
(36,388,l)
);
}
);
width = 218;
}
);
note = periodcentered;
unicode = 183;
},
{
glyphname = quotesinglbase;
kernLeft = quotesinglbase;
kernRight = quotesinglbase;
layers = (
{
hints = (
{
horizontal = 1;
place = (0, 130);
place = (0, 130);
type = Stem;
},
{
place = (34, 135);
place = (34, 135);
type = Stem;
}
);
layerId = m01;
shapes = (
{
closed = 1;
nodes = (
(32,-138,l),
(99,-127,o),
(169,-79,o),
(169,12,cs),
(169,130,l),
(34,130,l),
(34,0,l),
(100,0,l),
(100,-49,o),
(63,-81,o),
(32,-91,c)
);
}
);
width = 201;
}
);
note = quotesinglbase;
unicode = 8218;
},
{
glyphname = quotedblbase;
kernLeft = quotesinglbase;
kernRight = quotesinglbase;
layers = (
{
hints = (
{
horizontal = 1;
place = (0, 130);
place = (0, 130);
type = Stem;
},
{
place = (34, 135);
place = (34, 135);
type = Stem;
},
{
place = (232, 135);
place = (232, 135);
type = Stem;
}
);
layerId = m01;
shapes = (
{
closed = 1;
nodes = (
(230,-138,l),
(297,-127,o),
(367,-79,o),
(367,12,cs),
(367,130,l),
(232,130,l),
(232,0,l),
(298,0,l),
(298,-49,o),
(261,-81,o),
(230,-91,c)
);
},
{
closed = 1;
nodes = (
(32,-138,l),
(99,-127,o),
(169,-79,o),
(169,12,cs),
(169,130,l),
(34,130,l),
(34,0,l),
(100,0,l),
(100,-49,o),
(63,-81,o),
(32,-91,c)
);
}
);
width = 399;
}
);
note = quotedblbase;
unicode = 8222;
},
{
glyphname = perthousand;
kernLeft = percent;
layers = (
{
hints = (
{
horizontal = 1;
place = (-16, 77);
place = (-16, 77);
type = Stem;
},
{
horizontal = 1;
place = (301, 77);
place = (301, 77);
type = Stem;
},
{
horizontal = 1;
place = (624, 76);
place = (624, 76);
type = Stem;
},
{
place = (19, 107);
place = (19, 107);
type = Stem;
},
{
place = (264, 106);
place = (264, 106);
type = Stem;
},
{
place = (458, 107);
place = (458, 107);
type = Stem;
},
{
place = (703, 106);
place = (703, 106);
type = Stem;
},
{
horizontal = 1;
place = (307, 76);
place = (307, 76);
type = Stem;
},
{
place = (851, 107);
place = (851, 107);
type = Stem;
},
{
place = (1096, 106);
place = (1096, 106);
type = Stem;
},
{
horizontal = 1;
place = (0, 21);
target = up;
type = BottomGhost;
},
{
horizontal = 1;
place = (686, -20);
target = down;
type = TopGhost;
}
);
layerId = m01;
shapes = (
{
closed = 1;
nodes = (
(298,301,o),
(370,379,o),
(370,500,cs),
(370,623,o),
(298,700,o),
(195,700,cs),
(94,700,o),
(19,622,o),
(19,500,cs),
(19,379,o),
(93,301,o),
(195,301,cs)
);
},
{
closed = 1;
nodes = (
(737,-16,o),
(809,62,o),
(809,183,cs),
(809,306,o),
(737,383,o),
(634,383,cs),
(533,383,o),
(458,305,o),
(458,183,cs),
(458,62,o),
(532,-16,o),
(634,-16,cs)
);
},
{
closed = 1;
nodes = (
(1130,-16,o),
(1202,62,o),
(1202,183,cs),
(1202,306,o),
(1130,383,o),
(1027,383,cs),
(926,383,o),
(851,305,o),
(851,183,cs),
(851,62,o),
(925,-16,o),
(1027,-16,cs)
);
},
{
closed = 1;
nodes = (
(196,0,l),
(281,0,l),
(632,686,l),
(547,686,l)
);
},
{
closed = 1;
nodes = (
(148,378,o),
(126,429,o),
(126,500,cs),
(126,573,o),
(148,624,o),
(195,624,cs),
(241,624,o),
(264,572,o),
(264,500,cs),
(264,428,o),
(242,378,o),
(195,378,cs)
);
},
{
closed = 1;
nodes = (
(587,61,o),
(565,112,o),
(565,183,cs),
(565,256,o),
(587,307,o),
(634,307,cs),
(680,307,o),
(703,255,o),
(703,183,cs),
(703,111,o),
(681,61,o),
(634,61,cs)
);
},
{
closed = 1;
nodes = (
(980,61,o),
(958,112,o),
(958,183,cs),
(958,256,o),
(980,307,o),
(1027,307,cs),
(1073,307,o),
(1096,255,o),
(1096,183,cs),
(1096,111,o),
(1074,61,o),
(1027,61,cs)
);
}
);
width = 1221;
}
);
note = perthousand;
unicode = 8240;
},
{
glyphname = Acircumflex;
kernLeft = A;
kernRight = A;
layers = (
{
hints = (
{
horizontal = 1;
place = (0, 21);
target = up;
type = BottomGhost;
},
{
horizontal = 1;
place = (152, 111);
place = (152, 111);
type = Stem;
},
{
horizontal = 1;
place = (715, -20);
target = down;
type = TopGhost;
},
{
horizontal = 1;
place = (753, 114);
place = (753, 114);
type = Stem;
},
{
place = (3, 651);
place = (3, 651);
type = Stem;
},
{
horizontal = 1;
place = (579, 136);
place = (579, 136);
type = Stem;
}
);
layerId = m01;
shapes = (
{
closed = 1;
nodes = (
(3,0,l),
(150,0,l),
(197,152,l),
(455,152,l),
(503,0,l),
(654,0,l),
(402,715,l),
(252,715,l)
);
},
{
closed = 1;
nodes = (
(295,469,ls),
(307,507,o),
(325,579,o),
(325,579,c),
(327,579,l),
(327,579,o),
(344,507,o),
(356,469,cs),
(420,263,l),
(231,263,l)
);
},
{
closed = 1;
nodes = (
(159,753,l),
(278,753,l),
(327,810,l),
(329,810,l),
(377,753,l),
(495,753,l),
(399,867,l),
(253,867,l)
);
}
);
width = 659;
}
);
note = Acircumflex;
unicode = 194;
},
{
glyphname = Ecircumflex;
kernRight = E;
layers = (
{
hints = (
{
horizontal = 1;
place = (0, 121);
place = (0, 121);
type = Stem;
},
{
horizontal = 1;
place = (314, 119);
place = (314, 119);
type = Stem;
},
{
horizontal = 1;
place = (593, 122);
place = (593, 122);
type = Stem;
},
{
horizontal = 1;
place = (753, 114);
place = (753, 114);
type = Stem;
},
{
place = (55, 145);
place = (55, 145);
type = Stem;
}
);
layerId = m01;
shapes = (
{
closed = 1;
nodes = (
(55,0,l),
(584,0,l),
(584,121,l),
(200,121,l),
(200,314,l),
(534,314,l),
(534,433,l),
(200,433,l),
(200,593,l),
(581,593,l),
(581,715,l),
(55,715,l)
);
},
{
closed = 1;
nodes = (
(157,753,l),
(276,753,l),
(325,810,l),
(327,810,l),
(375,753,l),
(493,753,l),
(397,867,l),
(251,867,l)
);
}
);
width = 619;
}
);
note = Ecircumflex;
unicode = 202;
},
{
glyphname = Aacute;
kernLeft = A;
kernRight = A;
layers = (
{
hints = (
{
horizontal = 1;
place = (0, 21);
target = up;
type = BottomGhost;
},
{
horizontal = 1;
place = (152, 111);
place = (152, 111);
type = Stem;
},
{
horizontal = 1;
place = (715, -20);
target = down;
type = TopGhost;
},
{
horizontal = 1;
place = (753, 125);
place = (753, 125);
type = Stem;
},
{
place = (3, 651);
place = (3, 651);
type = Stem;
},
{
horizontal = 1;
place = (579, 136);
place = (579, 136);
type = Stem;
}
);
layerId = m01;
shapes = (
{
closed = 1;
nodes = (
(3,0,l),
(150,0,l),
(197,152,l),
(455,152,l),
(503,0,l),
(654,0,l),
(402,715,l),
(252,715,l)
);
},
{
closed = 1;
nodes = (
(295,469,ls),
(307,507,o),
(325,579,o),
(325,579,c),
(327,579,l),
(327,579,o),
(344,507,o),
(356,469,cs),
(420,263,l),
(231,263,l)
);
},
{
closed = 1;
nodes = (
(474,878,l),
(315,878,l),
(273,753,l),
(379,753,l)
);
}
);
width = 659;
}
);
note = Aacute;
unicode = 193;
},
{
glyphname = Edieresis;
kernRight = E;
layers = (
{
hints = (
{
horizontal = 1;
place = (0, 121);
place = (0, 121);
type = Stem;
},
{
horizontal = 1;
place = (314, 119);
place = (314, 119);
type = Stem;
},
{
horizontal = 1;
place = (593, 122);
place = (593, 122);
type = Stem;
},
{
horizontal = 1;
place = (753, 114);
place = (753, 114);
type = Stem;
},
{
place = (55, 145);
place = (55, 145);
type = Stem;
},
{
place = (363, 128);
place = (363, 128);
type = Stem;
},
{
place = (160, 128);
place = (160, 128);
type = Stem;
}
);
layerId = m01;
shapes = (
{
closed = 1;
nodes = (
(55,0,l),
(584,0,l),
(584,121,l),
(200,121,l),
(200,314,l),
(534,314,l),
(534,433,l),
(200,433,l),
(200,593,l),
(581,593,l),
(581,715,l),
(55,715,l)
);
},
{
closed = 1;
nodes = (
(363,753,l),
(491,753,l),
(491,867,l),
(363,867,l)
);
},
{
closed = 1;
nodes = (
(160,753,l),
(288,753,l),
(288,867,l),
(160,867,l)
);
}
);
width = 619;
}
);
note = Edieresis;
unicode = 203;
},
{
glyphname = Egrave;
kernRight = E;
layers = (
{
hints = (
{
horizontal = 1;
place = (0, 121);
place = (0, 121);
type = Stem;
},
{
horizontal = 1;
place = (314, 119);
place = (314, 119);
type = Stem;
},
{
horizontal = 1;
place = (593, 122);
place = (593, 122);
type = Stem;
},
{
horizontal = 1;
place = (753, 125);
place = (753, 125);
type = Stem;
},
{
place = (55, 145);
place = (55, 145);
type = Stem;
}
);
layerId = m01;
shapes = (
{
closed = 1;
nodes = (
(55,0,l),
(584,0,l),
(584,121,l),
(200,121,l),
(200,314,l),
(534,314,l),
(534,433,l),
(200,433,l),
(200,593,l),
(581,593,l),
(581,715,l),
(55,715,l)
);
},
{
closed = 1;
nodes = (
(277,753,l),
(383,753,l),
(341,878,l),
(182,878,l)
);
}
);
width = 619;
}
);
note = Egrave;
unicode = 200;
},
{
glyphname = Iacute;
kernRight = H;
layers = (
{
hints = (
{
horizontal = 1;
place = (0, 21);
target = up;
type = BottomGhost;
},
{
horizontal = 1;
place = (715, -20);
target = down;
type = TopGhost;
},
{
horizontal = 1;
place = (753, 125);
place = (753, 125);
type = Stem;
},
{
place = (56, 145);
place = (56, 145);
type = Stem;
}
);
layerId = m01;
shapes = (
{
closed = 1;
nodes = (
(56,0,l),
(201,0,l),
(201,715,l),
(56,715,l)
);
},
{
closed = 1;
nodes = (
(275,878,l),
(116,878,l),
(74,753,l),
(180,753,l)
);
}
);
width = 257;
}
);
note = Iacute;
unicode = 205;
},
{
glyphname = Icircumflex;
kernRight = H;
layers = (
{
hints = (
{
horizontal = 1;
place = (0, 21);
target = up;
type = BottomGhost;
},
{
horizontal = 1;
place = (715, -20);
target = down;
type = TopGhost;
},
{
horizontal = 1;
place = (753, 114);
place = (753, 114);
type = Stem;
},
{
place = (56, 145);
place = (56, 145);
type = Stem;
}
);
layerId = m01;
shapes = (
{
closed = 1;
nodes = (
(56,0,l),
(201,0,l),
(201,715,l),
(56,715,l)
);
},
{
closed = 1;
nodes = (
(-40,753,l),
(79,753,l),
(128,810,l),
(130,810,l),
(178,753,l),
(296,753,l),
(200,867,l),
(54,867,l)
);
}
);
width = 257;
}
);
note = Icircumflex;
unicode = 206;
},
{
glyphname = Idieresis;
kernRight = H;
layers = (
{
hints = (
{
horizontal = 1;
place = (0, 21);
target = up;
type = BottomGhost;
},
{
horizontal = 1;
place = (715, -20);
target = down;
type = TopGhost;
},
{
horizontal = 1;
place = (753, 114);
place = (753, 114);
type = Stem;
},
{
place = (56, 145);
place = (56, 145);
type = Stem;
},
{
place = (166, 128);
place = (166, 128);
type = Stem;
},
{
place = (-37, 128);
place = (-37, 128);
type = Stem;
}
);
layerId = m01;
shapes = (
{
closed = 1;
nodes = (
(56,0,l),
(201,0,l),
(201,715,l),
(56,715,l)
);
},
{
closed = 1;
nodes = (
(166,753,l),
(294,753,l),
(294,867,l),
(166,867,l)
);
},
{
closed = 1;
nodes = (
(-37,753,l),
(91,753,l),
(91,867,l),
(-37,867,l)
);
}
);
width = 257;
}
);
note = Idieresis;
unicode = 207;
},
{
glyphname = Igrave;
kernRight = H;
layers = (
{
hints = (
{
horizontal = 1;
place = (0, 21);
target = up;
type = BottomGhost;
},
{
horizontal = 1;
place = (715, -20);
target = down;
type = TopGhost;
},
{
horizontal = 1;
place = (753, 125);
place = (753, 125);
type = Stem;
},
{
place = (56, 145);
place = (56, 145);
type = Stem;
}
);
layerId = m01;
shapes = (
{
closed = 1;
nodes = (
(56,0,l),
(201,0,l),
(201,715,l),
(56,715,l)
);
},
{
closed = 1;
nodes = (
(80,753,l),
(186,753,l),
(144,878,l),
(-15,878,l)
);
}
);
width = 257;
}
);
note = Igrave;
unicode = 204;
},
{
glyphname = Oacute;
kernLeft = C;
kernRight = O;
layers = (
{
hints = (
{
horizontal = 1;
place = (-16, 119);
place = (-16, 119);
type = Stem;
},
{
horizontal = 1;
place = (610, 119);
place = (610, 119);
type = Stem;
},
{
place = (24, 148);
place = (24, 148);
type = Stem;
},
{
place = (565, 148);
place = (565, 148);
type = Stem;
},
{
horizontal = 1;
place = (753, 125);
place = (753, 125);
type = Stem;
}
);
layerId = m01;
shapes = (
{
closed = 1;
nodes = (
(580,-16,o),
(713,142,o),
(713,356,cs),
(713,570,o),
(580,729,o),
(369,729,cs),
(158,729,o),
(24,570,o),
(24,356,cs),
(24,142,o),
(158,-16,o),
(369,-16,cs)
);
},
{
closed = 1;
nodes = (
(239,103,o),
(172,214,o),
(172,356,cs),
(172,499,o),
(239,610,o),
(370,610,cs),
(501,610,o),
(565,499,o),
(565,356,cs),
(565,214,o),
(501,103,o),
(370,103,cs)
);
},
{
closed = 1;
nodes = (
(515,878,l),
(356,878,l),
(314,753,l),
(420,753,l)
);
}
);
width = 737;
}
);
note = Oacute;
unicode = 211;
},
{
glyphname = Ocircumflex;
kernLeft = C;
kernRight = O;
layers = (
{
hints = (
{
horizontal = 1;
place = (-16, 119);
place = (-16, 119);
type = Stem;
},
{
horizontal = 1;
place = (610, 119);
place = (610, 119);
type = Stem;
},
{
place = (24, 148);
place = (24, 148);
type = Stem;
},
{
place = (565, 148);
place = (565, 148);
type = Stem;
},
{
horizontal = 1;
place = (753, 114);
place = (753, 114);
type = Stem;
}
);
layerId = m01;
shapes = (
{
closed = 1;
nodes = (
(580,-16,o),
(713,142,o),
(713,356,cs),
(713,570,o),
(580,729,o),
(369,729,cs),
(158,729,o),
(24,570,o),
(24,356,cs),
(24,142,o),
(158,-16,o),
(369,-16,cs)
);
},
{
closed = 1;
nodes = (
(239,103,o),
(172,214,o),
(172,356,cs),
(172,499,o),
(239,610,o),
(370,610,cs),
(501,610,o),
(565,499,o),
(565,356,cs),
(565,214,o),
(501,103,o),
(370,103,cs)
);
},
{
closed = 1;
nodes = (
(200,753,l),
(319,753,l),
(368,810,l),
(370,810,l),
(418,753,l),
(536,753,l),
(440,867,l),
(294,867,l)
);
}
);
width = 737;
}
);
note = Ocircumflex;
unicode = 212;
},
{
glyphname = Ograve;
kernLeft = C;
kernRight = O;
layers = (
{
hints = (
{
horizontal = 1;
place = (-16, 119);
place = (-16, 119);
type = Stem;
},
{
horizontal = 1;
place = (610, 119);
place = (610, 119);
type = Stem;
},
{
place = (24, 148);
place = (24, 148);
type = Stem;
},
{
place = (565, 148);
place = (565, 148);
type = Stem;
},
{
horizontal = 1;
place = (753, 125);
place = (753, 125);
type = Stem;
}
);
layerId = m01;
shapes = (
{
closed = 1;
nodes = (
(580,-16,o),
(713,142,o),
(713,356,cs),
(713,570,o),
(580,729,o),
(369,729,cs),
(158,729,o),
(24,570,o),
(24,356,cs),
(24,142,o),
(158,-16,o),
(369,-16,cs)
);
},
{
closed = 1;
nodes = (
(239,103,o),
(172,214,o),
(172,356,cs),
(172,499,o),
(239,610,o),
(370,610,cs),
(501,610,o),
(565,499,o),
(565,356,cs),
(565,214,o),
(501,103,o),
(370,103,cs)
);
},
{
closed = 1;
nodes = (
(320,753,l),
(426,753,l),
(384,878,l),
(225,878,l)
);
}
);
width = 737;
}
);
note = Ograve;
unicode = 210;
},
{
glyphname = Uacute;
kernLeft = U;
kernRight = U;
layers = (
{
hints = (
{
horizontal = 1;
place = (-12, 116);
place = (-12, 116);
type = Stem;
},
{
horizontal = 1;
place = (715, -20);
target = down;
type = TopGhost;
},
{
horizontal = 1;
place = (753, 125);
place = (753, 125);
type = Stem;
},
{
place = (49, 145);
place = (49, 145);
type = Stem;
},
{
place = (463, 145);
place = (463, 145);
type = Stem;
}
);
layerId = m01;
shapes = (
{
closed = 1;
nodes = (
(514,-12,o),
(608,77,o),
(608,230,cs),
(608,715,l),
(463,715,l),
(463,232,ls),
(463,158,o),
(420,104,o),
(328,104,cs),
(231,104,o),
(194,156,o),
(194,230,cs),
(194,715,l),
(49,715,l),
(49,230,ls),
(49,75,o),
(146,-12,o),
(331,-12,cs)
);
},
{
closed = 1;
nodes = (
(474,878,l),
(315,878,l),
(273,753,l),
(379,753,l)
);
}
);
width = 657;
}
);
note = Uacute;
unicode = 218;
},
{
glyphname = Ucircumflex;
kernLeft = U;
kernRight = U;
layers = (
{
hints = (
{
horizontal = 1;
place = (-12, 116);
place = (-12, 116);
type = Stem;
},
{
horizontal = 1;
place = (715, -20);
target = down;
type = TopGhost;
},
{
horizontal = 1;
place = (753, 114);
place = (753, 114);
type = Stem;
},
{
place = (49, 145);
place = (49, 145);
type = Stem;
},
{
place = (463, 145);
place = (463, 145);
type = Stem;
}
);
layerId = m01;
shapes = (
{
closed = 1;
nodes = (
(514,-12,o),
(608,77,o),
(608,230,cs),
(608,715,l),
(463,715,l),
(463,232,ls),
(463,158,o),
(420,104,o),
(328,104,cs),
(231,104,o),
(194,156,o),
(194,230,cs),
(194,715,l),
(49,715,l),
(49,230,ls),
(49,75,o),
(146,-12,o),
(331,-12,cs)
);
},
{
closed = 1;
nodes = (
(159,753,l),
(278,753,l),
(327,810,l),
(329,810,l),
(377,753,l),
(495,753,l),
(399,867,l),
(253,867,l)
);
}
);
width = 657;
}
);
note = Ucircumflex;
unicode = 219;
},
{
glyphname = Ugrave;
kernLeft = U;
kernRight = U;
layers = (
{
hints = (
{
horizontal = 1;
place = (-12, 116);
place = (-12, 116);
type = Stem;
},
{
horizontal = 1;
place = (715, -20);
target = down;
type = TopGhost;
},
{
horizontal = 1;
place = (753, 125);
place = (753, 125);
type = Stem;
},
{
place = (49, 145);
place = (49, 145);
type = Stem;
},
{
place = (463, 145);
place = (463, 145);
type = Stem;
}
);
layerId = m01;
shapes = (
{
closed = 1;
nodes = (
(514,-12,o),
(608,77,o),
(608,230,cs),
(608,715,l),
(463,715,l),
(463,232,ls),
(463,158,o),
(420,104,o),
(328,104,cs),
(231,104,o),
(194,156,o),
(194,230,cs),
(194,715,l),
(49,715,l),
(49,230,ls),
(49,75,o),
(146,-12,o),
(331,-12,cs)
);
},
{
closed = 1;
nodes = (
(279,753,l),
(385,753,l),
(343,878,l),
(184,878,l)
);
}
);
width = 657;
}
);
note = Ugrave;
unicode = 217;
},
{
glyphname = dotlessi;
kernLeft = m;
kernRight = u;
layers = (
{
hints = (
{
horizontal = 1;
place = (0, 21);
target = up;
type = BottomGhost;
},
{
horizontal = 1;
place = (513, -20);
target = down;
type = TopGhost;
},
{
place = (44, 136);
place = (44, 136);
type = Stem;
}
);
layerId = m01;
shapes = (
{
closed = 1;
nodes = (
(44,0,l),
(180,0,l),
(180,513,l),
(44,513,l)
);
}
);
width = 224;
}
);
note = dotlessi;
unicode = 305;
},
{
glyphname = circumflex;
layers = (
{
hints = (
{
horizontal = 1;
place = (581, 126);
place = (581, 126);
type = Stem;
},
{
place = (82, 336);
place = (82, 336);
type = Stem;
}
);
layerId = m01;
shapes = (
{
closed = 1;
nodes = (
(82,581,l),
(201,581,l),
(250,650,l),
(252,650,l),
(300,581,l),
(418,581,l),
(322,707,l),
(176,707,l)
);
}
);
width = 500;
}
);
note = circumflex;
unicode = 710;
},
{
glyphname = tilde;
layers = (
{
hints = (
{
horizontal = 1;
place = (575, 116);
place = (575, 116);
type = Stem;
},
{
place = (100, 72);
place = (100, 72);
type = Stem;
},
{
place = (328, 72);
place = (328, 72);
type = Stem;
},
{
horizontal = 1;
place = (575, 85);
place = (575, 85);
type = Stem;
},
{
horizontal = 1;
place = (577, 118);
place = (577, 118);
type = Stem;
},
{
horizontal = 1;
place = (608, 87);
place = (608, 87);
type = Stem;
}
);
layerId = m01;
shapes = (
{
closed = 1;
nodes = (
(366,575,o),
(400,623,o),
(400,691,c),
(328,691,l),
(324,672,o),
(318,660,o),
(299,660,cs),
(272,660,o),
(239,695,o),
(190,695,cs),
(140,695,o),
(100,655,o),
(100,577,c),
(172,577,l),
(175,596,o),
(185,608,o),
(199,608,cs),
(226,608,o),
(260,575,o),
(308,575,cs)
);
}
);
width = 500;
}
);
note = tilde;
unicode = 732;
},
{
glyphname = macron;
layers = (
{
hints = (
{
horizontal = 1;
place = (592, 97);
place = (592, 97);
type = Stem;
},
{
place = (113, 284);
place = (113, 284);
type = Stem;
}
);
layerId = m01;
shapes = (
{
closed = 1;
nodes = (
(113,592,l),
(397,592,l),
(397,689,l),
(113,689,l)
);
}
);
width = 500;
}
);
note = macron;
unicode = 175;
},
{
glyphname = breve;
layers = (
{
hints = (
{
horizontal = 1;
place = (573, 85);
place = (573, 85);
type = Stem;
},
{
place = (122, 294);
place = (122, 294);
type = Stem;
}
);
layerId = m01;
shapes = (
{
closed = 1;
nodes = (
(357,573,o),
(410,632,o),
(416,706,c),
(338,706,l),
(334,679,o),
(309,658,o),
(269,658,cs),
(228,658,o),
(204,677,o),
(200,706,c),
(122,706,l),
(127,630,o),
(186,573,o),
(270,573,cs)
);
}
);
width = 500;
}
);
note = breve;
unicode = 728;
},
{
glyphname = dotaccent;
layers = (
{
hints = (
{
horizontal = 1;
place = (593, 122);
place = (593, 122);
type = Stem;
},
{
place = (182, 136);
place = (182, 136);
type = Stem;
}
);
layerId = m01;
shapes = (
{
closed = 1;
nodes = (
(182,593,l),
(318,593,l),
(318,715,l),
(182,715,l)
);
}
);
width = 500;
}
);
note = dotaccent;
unicode = 729;
},
